<mxfile host="Electron" agent="Mozilla/5.0 (Windows NT 10.0; Win64; x64) AppleWebKit/537.36 (KHTML, like Gecko) draw.io/26.0.9 Chrome/128.0.6613.186 Electron/32.2.5 Safari/537.36" version="26.0.9">
  <diagram name="Seite-1" id="SucJZKahYQlLSCs5oSBS">
    <mxGraphModel dx="16274" dy="5206" grid="1" gridSize="10" guides="1" tooltips="1" connect="1" arrows="1" fold="1" page="1" pageScale="1" pageWidth="413" pageHeight="583" math="0" shadow="0">
      <root>
        <mxCell id="0" />
        <mxCell id="1" parent="0" />
        <mxCell id="O1UydrZ1jq3LFg6Wgoyg-41" value="" style="endArrow=none;html=1;rounded=0;" parent="1" edge="1">
          <mxGeometry width="50" height="50" relative="1" as="geometry">
            <mxPoint x="-2940" y="-520" as="sourcePoint" />
            <mxPoint x="-2890" y="-570" as="targetPoint" />
          </mxGeometry>
        </mxCell>
        <mxCell id="O1UydrZ1jq3LFg6Wgoyg-48" value="Text" style="text;html=1;align=center;verticalAlign=middle;resizable=0;points=[];autosize=1;strokeColor=none;fillColor=none;" parent="1" vertex="1">
          <mxGeometry x="-13855" y="-3982" width="50" height="30" as="geometry" />
        </mxCell>
        <mxCell id="VvfXGRav1KqSERkKNpbv-1" style="edgeStyle=orthogonalEdgeStyle;rounded=0;orthogonalLoop=1;jettySize=auto;html=1;" parent="1" edge="1">
          <mxGeometry relative="1" as="geometry">
            <mxPoint x="-4764.24" y="-1880" as="sourcePoint" />
            <mxPoint x="-4764.24" y="-1780" as="targetPoint" />
            <Array as="points">
              <mxPoint x="-4764.24" y="-1880" />
            </Array>
          </mxGeometry>
        </mxCell>
        <mxCell id="VvfXGRav1KqSERkKNpbv-2" value="Benutzer" style="shape=umlActor;verticalLabelPosition=bottom;verticalAlign=top;html=1;outlineConnect=0;" parent="1" vertex="1">
          <mxGeometry x="-4779" y="-1970" width="30" height="60" as="geometry" />
        </mxCell>
        <mxCell id="VvfXGRav1KqSERkKNpbv-3" style="edgeStyle=orthogonalEdgeStyle;rounded=0;orthogonalLoop=1;jettySize=auto;html=1;" parent="1" edge="1">
          <mxGeometry relative="1" as="geometry">
            <mxPoint x="-4764" y="-1700.0000000000005" as="sourcePoint" />
            <mxPoint x="-4764" y="-1610" as="targetPoint" />
          </mxGeometry>
        </mxCell>
        <mxCell id="VvfXGRav1KqSERkKNpbv-4" style="edgeStyle=orthogonalEdgeStyle;rounded=0;orthogonalLoop=1;jettySize=auto;html=1;entryX=0.5;entryY=0;entryDx=0;entryDy=0;" parent="1" edge="1">
          <mxGeometry relative="1" as="geometry">
            <Array as="points">
              <mxPoint x="-4764" y="-1640" />
              <mxPoint x="-4620" y="-1640" />
            </Array>
            <mxPoint x="-4763.923076923078" y="-1700.0000000000005" as="sourcePoint" />
            <mxPoint x="-4620" y="-1610" as="targetPoint" />
          </mxGeometry>
        </mxCell>
        <mxCell id="VvfXGRav1KqSERkKNpbv-5" style="edgeStyle=orthogonalEdgeStyle;rounded=0;orthogonalLoop=1;jettySize=auto;html=1;entryX=0.5;entryY=0;entryDx=0;entryDy=0;" parent="1" source="bUnyjfJmZebXfHfqXDth-2" edge="1">
          <mxGeometry relative="1" as="geometry">
            <Array as="points">
              <mxPoint x="-4764" y="-1640" />
              <mxPoint x="-4920" y="-1640" />
            </Array>
            <mxPoint x="-4763.923076923078" y="-1700.0000000000005" as="sourcePoint" />
            <mxPoint x="-4920" y="-1610" as="targetPoint" />
          </mxGeometry>
        </mxCell>
        <mxCell id="VvfXGRav1KqSERkKNpbv-7" value="IP: 8000" style="text;html=1;align=center;verticalAlign=middle;resizable=0;points=[];autosize=1;strokeColor=none;fillColor=none;" parent="1" vertex="1">
          <mxGeometry x="-4770" y="-1850" width="70" height="30" as="geometry" />
        </mxCell>
        <mxCell id="VvfXGRav1KqSERkKNpbv-9" value="Paperless Node 1" style="text;html=1;align=center;verticalAlign=middle;resizable=0;points=[];autosize=1;strokeColor=none;fillColor=none;" parent="1" vertex="1">
          <mxGeometry x="-4980" y="-1532" width="120" height="30" as="geometry" />
        </mxCell>
        <mxCell id="VvfXGRav1KqSERkKNpbv-11" value="Paperless Node 2" style="text;html=1;align=center;verticalAlign=middle;resizable=0;points=[];autosize=1;strokeColor=none;fillColor=none;" parent="1" vertex="1">
          <mxGeometry x="-4824" y="-1532" width="120" height="30" as="geometry" />
        </mxCell>
        <mxCell id="VvfXGRav1KqSERkKNpbv-13" value="Paperless Node 3" style="text;html=1;align=center;verticalAlign=middle;resizable=0;points=[];autosize=1;strokeColor=none;fillColor=none;" parent="1" vertex="1">
          <mxGeometry x="-4680" y="-1532" width="120" height="30" as="geometry" />
        </mxCell>
        <mxCell id="VvfXGRav1KqSERkKNpbv-14" style="edgeStyle=orthogonalEdgeStyle;rounded=0;orthogonalLoop=1;jettySize=auto;html=1;" parent="1" edge="1">
          <mxGeometry relative="1" as="geometry">
            <Array as="points">
              <mxPoint x="-4764" y="-1250" />
              <mxPoint x="-4620" y="-1250" />
            </Array>
            <mxPoint x="-4764" y="-1359.9999999999995" as="sourcePoint" />
            <mxPoint x="-4620" y="-1460" as="targetPoint" />
          </mxGeometry>
        </mxCell>
        <mxCell id="VvfXGRav1KqSERkKNpbv-15" style="edgeStyle=orthogonalEdgeStyle;rounded=0;orthogonalLoop=1;jettySize=auto;html=1;" parent="1" edge="1">
          <mxGeometry relative="1" as="geometry">
            <mxPoint x="-4920" y="-1460" as="targetPoint" />
            <Array as="points">
              <mxPoint x="-4764" y="-1250" />
              <mxPoint x="-4920" y="-1250" />
            </Array>
            <mxPoint x="-4764" y="-1359.9999999999995" as="sourcePoint" />
          </mxGeometry>
        </mxCell>
        <mxCell id="VvfXGRav1KqSERkKNpbv-17" style="edgeStyle=orthogonalEdgeStyle;rounded=0;orthogonalLoop=1;jettySize=auto;html=1;exitX=0.5;exitY=0;exitDx=0;exitDy=0;exitPerimeter=0;" parent="1" source="bUnyjfJmZebXfHfqXDth-6" edge="1">
          <mxGeometry relative="1" as="geometry">
            <mxPoint x="-4764" y="-1460" as="targetPoint" />
            <mxPoint x="-4764" y="-1359.9999999999995" as="sourcePoint" />
          </mxGeometry>
        </mxCell>
        <mxCell id="bUnyjfJmZebXfHfqXDth-15" style="edgeStyle=orthogonalEdgeStyle;rounded=0;orthogonalLoop=1;jettySize=auto;html=1;" edge="1" parent="1" source="VvfXGRav1KqSERkKNpbv-18" target="VvfXGRav1KqSERkKNpbv-19">
          <mxGeometry relative="1" as="geometry" />
        </mxCell>
        <mxCell id="VvfXGRav1KqSERkKNpbv-18" value="Admin" style="shape=umlActor;verticalLabelPosition=bottom;verticalAlign=top;html=1;outlineConnect=0;" parent="1" vertex="1">
          <mxGeometry x="-4780" y="-1020" width="30" height="60" as="geometry" />
        </mxCell>
        <mxCell id="VvfXGRav1KqSERkKNpbv-19" value="Management" style="text;html=1;align=center;verticalAlign=middle;resizable=0;points=[];autosize=1;strokeColor=none;fillColor=none;" parent="1" vertex="1">
          <mxGeometry x="-4810" y="-1146" width="90" height="30" as="geometry" />
        </mxCell>
        <mxCell id="bUnyjfJmZebXfHfqXDth-1" value="" style="fontColor=#0066CC;verticalAlign=top;verticalLabelPosition=bottom;labelPosition=center;align=center;html=1;outlineConnect=0;fillColor=#CCCCCC;strokeColor=#6881B3;gradientColor=none;gradientDirection=north;strokeWidth=2;shape=mxgraph.networks.load_balancer;" vertex="1" parent="1">
          <mxGeometry x="-4814" y="-1770" width="100" height="30" as="geometry" />
        </mxCell>
        <mxCell id="bUnyjfJmZebXfHfqXDth-2" value="Load Balancer" style="text;html=1;align=center;verticalAlign=middle;resizable=0;points=[];autosize=1;strokeColor=none;fillColor=none;" vertex="1" parent="1">
          <mxGeometry x="-4810" y="-1742" width="100" height="30" as="geometry" />
        </mxCell>
        <mxCell id="bUnyjfJmZebXfHfqXDth-26" style="edgeStyle=orthogonalEdgeStyle;rounded=0;orthogonalLoop=1;jettySize=auto;html=1;" edge="1" parent="1" source="bUnyjfJmZebXfHfqXDth-3">
          <mxGeometry relative="1" as="geometry">
            <mxPoint x="-5120" y="-1569" as="targetPoint" />
          </mxGeometry>
        </mxCell>
        <mxCell id="bUnyjfJmZebXfHfqXDth-3" value="" style="fontColor=#0066CC;verticalAlign=top;verticalLabelPosition=bottom;labelPosition=center;align=center;html=1;outlineConnect=0;fillColor=#CCCCCC;strokeColor=#6881B3;gradientColor=none;gradientDirection=north;strokeWidth=2;shape=mxgraph.networks.server;" vertex="1" parent="1">
          <mxGeometry x="-4950" y="-1606" width="60" height="74" as="geometry" />
        </mxCell>
        <mxCell id="bUnyjfJmZebXfHfqXDth-27" style="edgeStyle=orthogonalEdgeStyle;rounded=0;orthogonalLoop=1;jettySize=auto;html=1;" edge="1" parent="1" source="bUnyjfJmZebXfHfqXDth-4">
          <mxGeometry relative="1" as="geometry">
            <mxPoint x="-5120" y="-1590" as="targetPoint" />
          </mxGeometry>
        </mxCell>
        <mxCell id="bUnyjfJmZebXfHfqXDth-4" value="" style="fontColor=#0066CC;verticalAlign=top;verticalLabelPosition=bottom;labelPosition=center;align=center;html=1;outlineConnect=0;fillColor=#CCCCCC;strokeColor=#6881B3;gradientColor=none;gradientDirection=north;strokeWidth=2;shape=mxgraph.networks.server;" vertex="1" parent="1">
          <mxGeometry x="-4794" y="-1606" width="60" height="74" as="geometry" />
        </mxCell>
        <mxCell id="bUnyjfJmZebXfHfqXDth-32" style="edgeStyle=orthogonalEdgeStyle;rounded=0;orthogonalLoop=1;jettySize=auto;html=1;" edge="1" parent="1" source="bUnyjfJmZebXfHfqXDth-5">
          <mxGeometry relative="1" as="geometry">
            <mxPoint x="-5120" y="-1550" as="targetPoint" />
          </mxGeometry>
        </mxCell>
        <mxCell id="bUnyjfJmZebXfHfqXDth-5" value="" style="fontColor=#0066CC;verticalAlign=top;verticalLabelPosition=bottom;labelPosition=center;align=center;html=1;outlineConnect=0;fillColor=#CCCCCC;strokeColor=#6881B3;gradientColor=none;gradientDirection=north;strokeWidth=2;shape=mxgraph.networks.server;" vertex="1" parent="1">
          <mxGeometry x="-4650" y="-1606" width="60" height="74" as="geometry" />
        </mxCell>
        <mxCell id="bUnyjfJmZebXfHfqXDth-8" value="" style="endArrow=none;dashed=1;html=1;dashPattern=1 3;strokeWidth=2;rounded=0;" edge="1" parent="1">
          <mxGeometry width="50" height="50" relative="1" as="geometry">
            <mxPoint x="-5190" y="-1630" as="sourcePoint" />
            <mxPoint x="-4310" y="-1630" as="targetPoint" />
          </mxGeometry>
        </mxCell>
        <mxCell id="bUnyjfJmZebXfHfqXDth-9" value="" style="endArrow=none;dashed=1;html=1;dashPattern=1 3;strokeWidth=2;rounded=0;" edge="1" parent="1">
          <mxGeometry width="50" height="50" relative="1" as="geometry">
            <mxPoint x="-5190" y="-1440" as="sourcePoint" />
            <mxPoint x="-4310" y="-1440" as="targetPoint" />
          </mxGeometry>
        </mxCell>
        <mxCell id="bUnyjfJmZebXfHfqXDth-13" value="" style="shape=image;aspect=fixed;image=data:image/PNG,iVBORw0KGgoAAAANSUhEUgAAAD8AAAAvCAYAAABUiRJEAAAAAXNSR0IArs4c6QAAAARnQU1BAACxjwv8YQUAAAAJcEhZcwAADsMAAA7DAcdvqGQAAAJ/SURBVGhD7ZnPS1RRFMf9R1q6alniqkUULlqkq1wUQQRhSS0SyWBsIKKFkUQQKgqhqauIBCmK7IfQbMJFPyA3IVhBQ+i8+eHo0/Q0Z7pP3tx3X3PfzDmPGe79wHfhvTrvfN677/4YW8BgrLypWHlTsfKmYuVNxcqbSkPJHzi/VpG7TzdEDw9WvlGw8qbKp5a3A+GEVR6Lx6fnj6oNg4S1c8EuLw9lT97fdmooV/59fxvGylfh2ZILP9d2xU/RaHr5k7cc6Eg68CuzJ1r0YZdHMX88ebkdkduqyS//+LN/o04P52DTjXYDWOW5kUfQ4Ey0OYJMHp+UvxAsjGLYqz7Do/9hoaK9vT8jevRoavkzpaEu973/ug3zH1yYfL1V/nt8NcJoavlrk5VPPiw4KeKqINPU8jPvtgJ9qhy57sD338HlkEwei6wnUT7Dz4mbWaWwP68+qrfJDSOvm+el4fvozb/3+XBfRinrBfuH54qiwiBk8q0X15UFxJnuO1m4NJqHxHShfHPSzv/XfTL5Y4OOsqA4s5IOn9lVkMmfu59XFhRXrowXRCX6kMkPTOktO1xZ+rYjKtGHTF5evuJMYrq2oy+Z/Ep6V1kYdw5dzcCqYg3XgUweOXsvuN3kztiLTXH16JDKzy7q7bio0jOSF1euDVJ5RN7mcqXrdlZcsXbI5fEAoSqWOhSQyyO9Y3xr/tGEI65SPyzyCH6roiq+nlx4UN87LsMmjzxOuVUPHzo5eHkdJl7WPquHwSqP4OFC5wSmyvEbDgw9KcKX1ei7Nx3Y5T1yxT1Y+OSWZXBF6Ehmoa10Q1p7Kk+DnaVZHI+hbz/z/qsKiU2+EbHypmKwPMBfCr1CLxFqkGgAAAAASUVORK5CYII=;" vertex="1" parent="1">
          <mxGeometry x="-4956" y="-1510" width="63" height="47" as="geometry" />
        </mxCell>
        <mxCell id="bUnyjfJmZebXfHfqXDth-6" value="" style="fontColor=#0066CC;verticalAlign=top;verticalLabelPosition=bottom;labelPosition=center;align=center;html=1;outlineConnect=0;fillColor=#CCCCCC;strokeColor=#6881B3;gradientColor=none;gradientDirection=north;strokeWidth=2;shape=mxgraph.networks.server;" vertex="1" parent="1">
          <mxGeometry x="-4794" y="-1220" width="60" height="74" as="geometry" />
        </mxCell>
        <mxCell id="bUnyjfJmZebXfHfqXDth-16" value="" style="shape=image;aspect=fixed;image=data:image/PNG,iVBORw0KGgoAAAANSUhEUgAAAD8AAAAvCAYAAABUiRJEAAAAAXNSR0IArs4c6QAAAARnQU1BAACxjwv8YQUAAAAJcEhZcwAADsMAAA7DAcdvqGQAAAJ/SURBVGhD7ZnPS1RRFMf9R1q6alniqkUULlqkq1wUQQRhSS0SyWBsIKKFkUQQKgqhqauIBCmK7IfQbMJFPyA3IVhBQ+i8+eHo0/Q0Z7pP3tx3X3PfzDmPGe79wHfhvTrvfN677/4YW8BgrLypWHlTsfKmYuVNxcqbSkPJHzi/VpG7TzdEDw9WvlGw8qbKp5a3A+GEVR6Lx6fnj6oNg4S1c8EuLw9lT97fdmooV/59fxvGylfh2ZILP9d2xU/RaHr5k7cc6Eg68CuzJ1r0YZdHMX88ebkdkduqyS//+LN/o04P52DTjXYDWOW5kUfQ4Ey0OYJMHp+UvxAsjGLYqz7Do/9hoaK9vT8jevRoavkzpaEu973/ug3zH1yYfL1V/nt8NcJoavlrk5VPPiw4KeKqINPU8jPvtgJ9qhy57sD338HlkEwei6wnUT7Dz4mbWaWwP68+qrfJDSOvm+el4fvozb/3+XBfRinrBfuH54qiwiBk8q0X15UFxJnuO1m4NJqHxHShfHPSzv/XfTL5Y4OOsqA4s5IOn9lVkMmfu59XFhRXrowXRCX6kMkPTOktO1xZ+rYjKtGHTF5evuJMYrq2oy+Z/Ep6V1kYdw5dzcCqYg3XgUweOXsvuN3kztiLTXH16JDKzy7q7bio0jOSF1euDVJ5RN7mcqXrdlZcsXbI5fEAoSqWOhSQyyO9Y3xr/tGEI65SPyzyCH6roiq+nlx4UN87LsMmjzxOuVUPHzo5eHkdJl7WPquHwSqP4OFC5wSmyvEbDgw9KcKX1ei7Nx3Y5T1yxT1Y+OSWZXBF6Ehmoa10Q1p7Kk+DnaVZHI+hbz/z/qsKiU2+EbHypmKwPMBfCr1CLxFqkGgAAAAASUVORK5CYII=;" vertex="1" parent="1">
          <mxGeometry x="-4797" y="-1510" width="63" height="47" as="geometry" />
        </mxCell>
        <mxCell id="bUnyjfJmZebXfHfqXDth-17" value="" style="shape=image;aspect=fixed;image=data:image/PNG,iVBORw0KGgoAAAANSUhEUgAAAD8AAAAvCAYAAABUiRJEAAAAAXNSR0IArs4c6QAAAARnQU1BAACxjwv8YQUAAAAJcEhZcwAADsMAAA7DAcdvqGQAAAJ/SURBVGhD7ZnPS1RRFMf9R1q6alniqkUULlqkq1wUQQRhSS0SyWBsIKKFkUQQKgqhqauIBCmK7IfQbMJFPyA3IVhBQ+i8+eHo0/Q0Z7pP3tx3X3PfzDmPGe79wHfhvTrvfN677/4YW8BgrLypWHlTsfKmYuVNxcqbSkPJHzi/VpG7TzdEDw9WvlGw8qbKp5a3A+GEVR6Lx6fnj6oNg4S1c8EuLw9lT97fdmooV/59fxvGylfh2ZILP9d2xU/RaHr5k7cc6Eg68CuzJ1r0YZdHMX88ebkdkduqyS//+LN/o04P52DTjXYDWOW5kUfQ4Ey0OYJMHp+UvxAsjGLYqz7Do/9hoaK9vT8jevRoavkzpaEu973/ug3zH1yYfL1V/nt8NcJoavlrk5VPPiw4KeKqINPU8jPvtgJ9qhy57sD338HlkEwei6wnUT7Dz4mbWaWwP68+qrfJDSOvm+el4fvozb/3+XBfRinrBfuH54qiwiBk8q0X15UFxJnuO1m4NJqHxHShfHPSzv/XfTL5Y4OOsqA4s5IOn9lVkMmfu59XFhRXrowXRCX6kMkPTOktO1xZ+rYjKtGHTF5evuJMYrq2oy+Z/Ep6V1kYdw5dzcCqYg3XgUweOXsvuN3kztiLTXH16JDKzy7q7bio0jOSF1euDVJ5RN7mcqXrdlZcsXbI5fEAoSqWOhSQyyO9Y3xr/tGEI65SPyzyCH6roiq+nlx4UN87LsMmjzxOuVUPHzo5eHkdJl7WPquHwSqP4OFC5wSmyvEbDgw9KcKX1ei7Nx3Y5T1yxT1Y+OSWZXBF6Ehmoa10Q1p7Kk+DnaVZHI+hbz/z/qsKiU2+EbHypmKwPMBfCr1CLxFqkGgAAAAASUVORK5CYII=;" vertex="1" parent="1">
          <mxGeometry x="-4653" y="-1510" width="63" height="47" as="geometry" />
        </mxCell>
        <mxCell id="bUnyjfJmZebXfHfqXDth-19" value="" style="fontColor=#0066CC;verticalAlign=top;verticalLabelPosition=bottom;labelPosition=center;align=center;html=1;outlineConnect=0;fillColor=#CCCCCC;strokeColor=#6881B3;gradientColor=none;gradientDirection=north;strokeWidth=2;shape=mxgraph.networks.storage;" vertex="1" parent="1">
          <mxGeometry x="-5175" y="-1606" width="50" height="70" as="geometry" />
        </mxCell>
        <mxCell id="bUnyjfJmZebXfHfqXDth-20" value="GlusterFS" style="text;html=1;align=center;verticalAlign=middle;resizable=0;points=[];autosize=1;strokeColor=none;fillColor=none;" vertex="1" parent="1">
          <mxGeometry x="-5190" y="-1532" width="80" height="30" as="geometry" />
        </mxCell>
        <mxCell id="bUnyjfJmZebXfHfqXDth-35" value="" style="shape=image;aspect=fixed;image=data:image/PNG,iVBORw0KGgoAAAANSUhEUgAAAD4AAAA4CAYAAAClmEtZAAAAAXNSR0IArs4c6QAAAARnQU1BAACxjwv8YQUAAAAJcEhZcwAADsMAAA7DAcdvqGQAAAeESURBVGhD5ZkJUFR1HMdzWWAvFhZWYGHZZTlEqbDSUTGVFLxIJU0zBRSPkhKvVKQ8MBUds8MOsNKcIRMTdbLLs6mcrun0qpkOJzXtsNJBFNBs5tv/Le76dt/v7Xv7YHWmZeYz3/f//n+///He//3f28dN7A9BCmkGA6QZDJBmMECawQBpXhemZZhQfouZrLsOkGbAeaGXBQ3jOzt5KdtCxgQY0gwoi7I6uiftoq6flYwNIKQZMHrH6gSTdjEm2UjmBAjSDBhv5SaRk+b4cEgymRMgSLPdSTeG4dEsMxoK2SQl2DfYjoUsNteid+YWpUbi5d4J+PRuh7M+L6HVbyOk2W4MsxlweGQKGiZkoKGY4af+Oi5d4D+fHU/25SekKYkpPARzsqJR2z8BH42w45fCNPxalIYD7HjTgARUdjNjXd94nJ+UwejUrvr1KAc5Jj8hTUl+HJ+C81PSPWjwKnvTXvVHx97AiZ+YyCY+LR2NjLbogVE27BpudbO3wIrfJ6f6zPtqrJ0ck5+QpiTfjLfj/ENpbhp5x77Kx0oc2JAXhxyrlmzXRfc4DeZ3M+Hg1X6823vkDhOZ5wekKcnOggQ0zmBXZgYblAw9PtWB0q6RZFtSDHXocbDYJmh3RGqbdnfSlGRJ72g0zkqRxeGSJMTpQsh2/MG7z+MP2hGjVdwuaUpyp1WDxkdScGEuGwRfGfzy5xOtbRmcgMEpOo/21w+NJeNkQJqyOPqgFRfmO9DIaNVkDz1RZkOSUU3mtoX8NB3OzLG7++mVqCHjJCBNWRRnGXChgnXO8ehV5ZWHpPrewPhEhKvQ16ZxImeF3NNZ7+5r+5g4MkYC0pTN+yXxuLDQLmD7WHlLcEi6FhsKzDhTbvPI/36GFfX3xaKoqwFadQcy9+URZnd8jE5FxviANGXzw+xEXFxiF9DDGk7Gu7BFqvF5qYXM9ebnuVaU3GEQtBGtVeH3iiRnTGFXv3d40pTFzXGhuPi4jcE65+mRWb4/LGTFh+FUhVWQJ6W1Y2IEbc3pY3TWVxdEC+okIE1ZlPYyoGkFGxSDrysGR5HxHJEaFX5akOAR/3elFXumxmLPFAbTY171fH290PNTlYld9ZOPJWI3y+X7vnA4nK+8dKUc1t1rwsVV7MqtZPB0UCfxXfaZgiiP+GnZwiXMMZC18e38eLL9sj6eOavvjsKBh+VPfPr0Mk7pSik6GlQ4Uh6PpiesjEQPNevpjSaSXR1+3OycCDLOhSG8A+omxLjjXXq2KhFJUdd2/lx2kl65X/5SX7v2WU7pSl8M7qLBqWUWND3JluRTDKeyQTH9o0r8/h59m9Ydv/MB4f0qxqEFse72XfnVYzxvJ5tJ/kvS5s11nNKVYpT21aN5bYKTpqvKL59YLv6RYMVwozu2X5rvXZ9PtiPM3b4r/8/VFmhC6cecFLt37+GUrqQoydah6Tl2pX1wvEr8ZaJmXKQz5uRK/1849s1iS96rr0GZ8k8en23bdnBKV3qTaVGjuToezTUWxlUlyueeFb/ia0azK87iDi7pSNb74uH+bKV59TczV9mvs5qadZzSld68UWZC84txsrCK3G/399C4YyJ1/i3TvEy23Hl9cMwbomzilZVLOaUr+dxqVaNlQxxa1jM4dSFSntiHfkfndumzNbHOmMUF9GNMjIE3hwn6mzdU2cRzc/M4pSv56NmAd82PQvPGjmjZGEsomwyv/M5c8ReY8mE6d1xO51AyhmJyjlbQb+UoZRMPCXGuSLqSYssMI1pqWacyyE4Xn9TTxQZ33NNFBtye3PrTNT0+BAvv0cMcIXwPqCuj+/bVjwSkKcqqcXq0vGaW5O0Fvj8zTbpLg8NrTIK8upnCfyMZtR1wbqNnnIsT1dEwaBQ91kjTJxkJIaieasBv66NxaYtZlAfypD8Q2Mwq9MsMdcJNkIqpGq8n23cxM1/+734epCmbLHsIKkZpcak+Bi1b2Ylgeqm+VVuYTuiv7Fnroluq+lp7RPuc7qzw/eorAmn6zbtLInBpRzQuM7x13khFn4ZgZavhxxejRNt16eKxN+CKu+AGeW4rG+ROk5PLnL7Resyxe1kE4kzyv5LclaXG6Vq6vSPVRuxfEYG6cj3S2W1H5cuANBUxrGcoLr/NBinC+R1ReP4hHbokiQ+2dxc1ti3Uk/kcf7GTy51kKtdPSFMRBrY5XX43spVdUdeOifLPrxqxbZEOj0/QYPlEDfauMuB0nVE03lXO76H48eUNaSqi/21q/LOXDZIRCB3dr90mzUGaiijMC8U/+9lVYwj0PRHfpT7qf9hkQK9MxfeyGKSpiEn5bOIfsMG2M+PYCaX6ayOkqYgRfdlSP2AQ5Vi9nvSl6JbRLpuZN6SpiAy7Clc+MeDKxwyefrdFh5E51/6VlGxRYUD3EEwtCMXiyWGoKg0j8zg99ZayHyIyIE3FHH9ThzN7dTi0WYvapeEY2FPevVmcr0bjhzpc+UzvwaLJAVnmHKR5Q8hIVuGr17S48oUO/36px9F6LfRaOrYdIM0bSkZyB8wuUqOTXdnHRJmQZjBAmsEAaQYDpBkMkGYwQJr/c27Cf46GTKXDtZApAAAAAElFTkSuQmCC;" vertex="1" parent="1">
          <mxGeometry x="-4720" y="-1220" width="40" height="36.12" as="geometry" />
        </mxCell>
        <mxCell id="bUnyjfJmZebXfHfqXDth-36" value="" style="shape=image;aspect=fixed;image=data:image/PNG,iVBORw0KGgoAAAANSUhEUgAAAIYAAAB6CAYAAAB6KSvzAAAAAXNSR0IArs4c6QAAAARnQU1BAACxjwv8YQUAAAAJcEhZcwAADsMAAA7DAcdvqGQAAA1zSURBVHhe7Z13b9RMF8Xfz4IA0XsNIDqIkoAA0TsC0UXvEIgAIUoCAgSIKproCIXem2ihhhYIiNCr+Arz6Fivkdk96/XuFM8u/uMnRDzO3LFP7PGde+/8r1KlSiIiIpZIGBGUSBj/p3r16qJ+/foiJydHtG/fXnTv3l306dPH+Rf/b968uahXr56oWrUqPT/b+KeEUbNmTTF48GAxZ84csWHDBnH8+HFRUlIivn79Kn7//h2YiooKcfPmTXHw4EGxevVqMXXqVEdErM9MJauFUblyZdG7d29RUFAgLly4QG+ySr58+SKOHDkiZs2aJTp37kxtyhSyUhhDhgwRu3fvFq9evaI30BQPHjwQ69atE7m5udROm8kaYbRs2VLk5+eLGzdu0JsUNsXFxWLy5MnO64zZbxsZLwy823fu3Ck+f/5Mb4htPHv2zJmXtG3blo7HFjJWGKNHj3Ymj+ziZwLfvn0T27ZtE7169aLjC5uME8aUKVPEtWvX6MVWyYoVK8SYMWPoMdUcO3ZM9O/fn443LDJGGHl5eeLo0aP0wqpmxIgRTp8nT56kx3WxceNG0aRJk7ixh4H1wsBkbdWqVeLHjx/0Yqpm/PjxTr9weLHjuiktLRXTp0+Puw6msVoYeLzevn2bXkAdbN68+U/fnTp1om1MgacjvrS818Mk1gpj/vz54ufPn/Si6QBfNd4b0aVLF9rOJI8fPxbDhg3767qYwjph1K5dW2zfvp1eKJ3AIea1o27durRdGCxZsuQv20xglTC6du1q5IuDAW9prD3wObC2YbB37944+3RijTDgqCorK6MXRTfwljKb9uzZQ9sH4devX/TnMpw7d47aqQMrhAFRmPrqYOzYsYPaNXv2bNo+Ge/evaM/VwFWg5mtqgldGBAFuwAmWbhwIbWtYcOG4u3bt/ScRDx9+tRZjmfHVPHmzRtqr0pCFUa3bt3owE3jF0uxZcsWeg7jzp07zpfN9+/f6XHVMHtVEZowOnToQAcbBrVq1aI2glSeaAgCGjRoED2mAzydmM0qCEUYNoni06dP1EYvQYJ89u3b57SdNm0aPa6Ls2fPxtmrAuPCgCigdDZIlWDiePfuXXrMC76EmJ1e5s6dS8/1grUctMXiGzuuk0OHDsXZLItRYWCBKMjNUsG4ceOc4N5kS/P379+ntnpp0aKFs0zOzgcI53PbYvWXtdGNaj+HUWHs37+fDkoHmDSizx49evi61q9evRpnJwN/lex84C68AazvsDYmUOkhNSaMpUuX0sHo4syZM3/6xuosawMOHz78l52JmDRpEj0fr0WsxLrt2rRpQ9uZQtXaihFhDB8+nA5CJwcOHPjTP5buE63SQjReWxNRp04dUV5eHnc+orC87apVqxbXxiRYeFOxKqtdGEjUQYwBG4RONm3a9JcdhYWFtN2ECRP+aucHW9zDkyS23eXLl+PamQRL9rE2pYp2YSAqiRmvG3wdeO1I5F/Awp23nR/syYcnSWw7RKvHtjPNxIkT4+xKBa3CQKArM9oEAwcOjLOHvQpq1KgR184P7++Af4O1QVqjt48wgBdWJlVBqzAQ5MqMNkHjxo3j7IETytsm0Y314/Tp03/Od798GEg28vYVBsuXL6e2BUGbMPDuZsaaAL4SZhNSDrzt4ARj7fxYu3ZtoPPDcHTF8v79eychm9mXDG3CQNIvM9YESFhmNnXs2PGvdukk/SCC3D3fb/GtadOmoadIgq1bt1L7kqFFGPA6MiNN0bdvX2oX3rlum0uXLtE2yWjXrt2f34FledbGxYanBmJZW7duTe3zQ4swTOdjeLl16xa1yQUZ6WgX+9USFNdPgTgNdtwLhGNiXSgZK1eupPb5oVwYYbqEQbIb/uTJE/Ho0SPRoEEDejwI+DIJOnENsgCnm+fPnzvBzcy+RCgXBhZzmHGmwNoIs8sFrnKkJrBjQUHAst8XSSxXrlyhtpoEAmW2JUKpMMKOs4Dbm9nlBS5sv8CcICDVIJVXUezXUBgkCnhOhFJhhD3Zgtub2eVlxowZ9OepgH5SfeqE7SYHLEUiEUqFgdgGZpAp/D4fXVB+if08FRA8zNZI/MA5zGaTxCZV+aFMGKZKBiQiSMCNKuC8S3V522SQcCJi0zD9UCYMv0AWE6xfv57apQOsw/Ts2ZMe80N3WkEQsMDHbItFiTDg5WNGmASrp8w2HSDhOR1XM8obMNtNgi8qZlssSoQxatQoaoQp4HpmdukCfwiNGjWix/ywIYMeYY6IhWX2eVEijKKiImqEKbCKy+zSBaoDV6lShR5Lhg3rJ0OHDqW2eVEijPPnz1MDTBFGmYB0saGgXJBwRiXCCLuUIlIdmV02smzZMjoGkyCmhNnmRVoYCI1jnZsC+R7MLltZsGABHYdJPn78SG3zIi0M5FSwzk2BqGhml62YTmFMBCbQzD4XaWGE/WjUlbupi7Fjx9JxmAbF95l9LtLCgJuVdWyKXbt2UbtsBR5TNg7ToK45s89FWhiIhGIdmyLdgJuwsKFQDEj2ZSItjLC/y00XLZPFGzMaJsgjZva5SAkDjh7WqUmwnM1ssxU8wtk4TIPgIWafi5QwbFgjMe0OlwVxHGwcpkn2NSclDBt8/yDVeMYwCTuYyQU5J8w+FylhDBgwgHZqGne3gEzAhkguF78dIaWEEbZzywWJ08w+27Dh1evFz8klJQxb3pdBgoBtIFHxlbDAVIDZCaSEYbpKjh9hVelPhRMnTlDbw8IvCk1KGLb4/QEuOrPRFmzxeHrxS12UEoaOEkoykeY2PzVknhaoRcp+Lgu2AGG2AilhIOuLdSgLEpfwPsaOQ4hRDLqhja1PjVS8nfiMxJixZeiiRYucXBAdaY7YtpzZ6iIljFatWtFOZYlN/8Nm+whHg3//1KlTvtX9bVw7SVQYDuPAWhPGO3PmTOedz7LkUB2HnS/Dixcv4vrxIiUMb1kB1fh9YwPUusAcB08VLL1712wQnMzOCQNvKUkIBJ/WeILk5OTQ9rHoKtuE+iWsPxcpYYCKigrasSxTp06l/fmBysOojTFnzhznacbamASTO1cI6XpnUQSGXR9ZklX2kxaGrso56dTHyjaaNWvm7E3Cro8s69ato326SAtDZ3ZVJrm6deCt96UazGlYny7SwsAG9qxjFSRbGs5mEGStczswVu7Si7QwMBdgHati8eLFtN9sR2ajviAkm4NJC0N3qBo+6VAQjfWdrZjYJYn160VaGCaKqmda+J4M8GNgqwx2HVQRpGKhtDCA7oGATEpDlAEeTzZ+laxZs4b27UWJMHTOnr1kwgqqDHCBs3GrZuTIkbR/L0qEYSqJRtVeHDZiMq0giNdViTBM7uqjYi8O28C84uHDh3S8qrl37x61IRYlwgBBtqBUBfrKNtg4dZDM4+miTBjp7oMeYZbc3Fx6/2JRJox09kGPMEtxcTG9dwxlwgCIK2AGRdhBskRmL0qFYUvCbkQ8z549S2krLKXCAIiwYoapJEgF4EzCRHYaFjtZ34lQLgwTW15FwkgNlKNKdTcn5cIAiWIcVREJIzViNw0OghZh6M5Qi4SRGtjmlPXrhxZhoPLsy5cvqZEqiIQRnHSL42oRBigoKKCGqiASRnDSrbGuTRgI/9cVKBwJIxjpzC1ctAkD6NpmMxJGchD5ls6+si5ahQEOHz5MDZchEkZyUImA9RUU7cLQkd8KYWQTqoUBdwFCLtn9CIp2YQAb9gP7V0ACOPa+ZfchFYwIA6CCLxtIhFpk95R1MSYM5G5ev36dDiZCDdu3b6fXPh2MCQPAAxf23ibZCmpq+BVCSRWjwgAmC5QFDWPThe41I5eysjInpZHZkC7GhQGQdsgGqJpUNqDVgYk668hvxZcN61+GUIQBdLqBXRAbwvo2hc6kZBcdogChCQOYEAfKNLG+dYNscmaPSnSJAoQqDDBv3jw6aFXg97N+daM7W133BoGhCwPo3BceE0DTRejxl8xsUQWqGrJ+VWKFMIBOcZiuNa4rgejp06dGRAGsEQaAOHT5OfC7WZ+q0TVvunv3rjFRAKuEAeAE0+Uh1S0OXaLANlWoSMj61IV1wgCYE+haW0kl6SYVdIlCdvk8XawUhouuVVk4vlSVU8BEU8ecorS01KnVzvo0gdXCAHi16NjOoby83Cn4ku57u1+/fto+SZHqGbRysC6sF4bLjBkznDQ7diFlQPwCosxQygnlmVnfLnBaufXM2e+S5eLFi2Lw4MG0b9NkjDAAtmpC7XCdrmb87tevX4uSkhLnFYFtMnRn8SPVIj8/n445LDJKGC7t27cXhYWFoW8GLAucbwisQR4OG2eYZKQwXBo0aOAUNNOxbYNO8CpCji8bky1ktDC8wEdx6NAheiNsAK8jTCp1LnypJGuE4YKvDPgUZLbQUgnmKShDhYpDzF5byTpheMFfJ0RisvgZtq46fvy4M3fw277SdrJaGF5QTQYOo6KiIufzFBO/Dx8+0JsbFPhCUBUZ/gwIsHfv3rTvTOSfEUYiMIHNy8tzkn9Hjx7txKTOmjXLCT/EzcZnJPb2wM+xpRZ8GZ07d06pbFEm8s8LI4ITCSOCEgkjghIJI4ISCSOCEgkjglBJ/AfDXy67hfh7HAAAAABJRU5ErkJggg==;" vertex="1" parent="1">
          <mxGeometry x="-4720" y="-1182" width="40" height="36.42" as="geometry" />
        </mxCell>
        <mxCell id="bUnyjfJmZebXfHfqXDth-37" value="" style="shape=image;aspect=fixed;image=data:image/PNG,iVBORw0KGgoAAAANSUhEUgAAAF8AAABbCAYAAAAV3VnjAAAAAXNSR0IArs4c6QAAAARnQU1BAACxjwv8YQUAAAAJcEhZcwAADsMAAA7DAcdvqGQAAANHSURBVHhe7Z3LS1RhGIf7O9oFQdBGsKLoAhW2MLoQUbQJdCG0CmpREgS1EYtyESi1qxZtXFS4KSyKCrtSsylB5+KlUdTRchzH28x89ekHA/Ge5pzvjPw+Pb8Hnu37vT4M42HmzMwGRWAwPhDGB8L4QBgfCOMDYXwgjA+E8YEwPpCqxi/OzKr8p5jK93yJjIvJQfPXB6cq8Sdv31OpnUdU38baSBrfvEelz55Xi6khU8QfoeIvDqXVYN0ZcaEo2r9pl5ru7DJ1KmMdv5jNqdTu4+ISUTf34q2p9H+s42dudIgH01qV3HFYlZYKppQ3dvELRZXYul88mK6Ye/nOxPLGKv5Cb1w8kJaduN5manljFX/uc0w8kJYdabpkanljFT//8Zt4IC2bbrhgannD+Ksk4wNlfKCMD5TxgTI+UMYHyvhAnY+vXxXNdb9RxeyMmYxl/kefGmtuEXcNarrxopnqDSx+oqbOmej/ol+XkXYOotOP/KmOB2aae+i3Q6Wdg+j0I3/29XszzU0GDpwS9/ar0/H1DJcZOtog7u1Xp592GN8y/tLPUZW5dTeUeobLTD96LO7t1+yTZ2aSN1bxSXVgfCCMD4TxgVjF1/djJmoOhTL/4auZ5ibDxxrFvf06smqXmn/jS5dXQVwL8aW9/cr4IWB8IIwPhPGBMD4QxgfC+EAYHwjjA2F8IIwPhPGBMD4QxgfidPyJa22hdD2+tHNQK2EVn1QHxgfC+EAYH4hV/PnefjV8simUeobLjF9pFff2a6a13Uzyxip+Ve7VdPxqZ33fKMv4uPgzXd1mmpuE/doyp+OPXW4x09xDf1eatHMQnf5whDb79LmZ6A6FyV+hP5WidT6+Vl9VSPe3o0xurxf3DOqaiL9edfo5f73L+EAZHyjjA2V8oIwPlPGBMj7QVYs/F/suHkjLjp5rNrW8sYpfyEyJB9KyEy13TC1vrOJrBvaeEA+lK86+6jGlvLGO//thp3gorV1+VVR/zX0lrOOrUmn5n4p0eJSNb9nn+0ds7OMbxq/eFJeIooMHT6uF+IApU5nQ8TX6J4v0O/bSQlEwua1eTbXfNzX8U5X4xA7GB8L4QBgfCOMDYXwgjA+E8YEwPgyl/gAw07NxUw8LywAAAABJRU5ErkJggg==;" vertex="1" parent="1">
          <mxGeometry x="-4710" y="-1772" width="31.32" height="30" as="geometry" />
        </mxCell>
        <mxCell id="bUnyjfJmZebXfHfqXDth-38" value="" style="shape=image;aspect=fixed;image=data:image/PNG,iVBORw0KGgoAAAANSUhEUgAAAiUAAAIVCAYAAAAOF49GAAAAAXNSR0IArs4c6QAAAARnQU1BAACxjwv8YQUAAAAJcEhZcwAADsMAAA7DAcdvqGQAAP+lSURBVHhe7N0HeBXVFvB9Rb3X3nvvggVEERQsFBGRagEpIoKoYENRFDuK9CpFpPdO6L33JhA6SLH3er16vd7v+953fWvtmTVnzT5rTklOQiDb5/k/CTE55ySZM/PL3nvmHPH//D//D7hcLpfL5XId7BxKXC6Xy+VyFYgcSlwul8vlchWIHEpcLpfL5XIViBxKXC6Xy+VyFYgcSlwul8vlchWIHEpcLpfL5XIViBxKXC6Xy+VyFYgcSlwul8vlchWIHEpcLpfL5XIViBxKXC6Xy+VyFYgcSlwul8vlchWIHEpcLpfL5XIViBxKXC6Xy+VyFYgcSlwul8vlchWIHEpcLpfL5XIViBxKXC6Xy+VyFYgcSlwul8vlchWIHEpcLpfL5XIViBxKXC6Xy+VyFYgcSlwul8uV49q2bQu//fab+v9crnRzKHG5XC5Xjtq0aRNcf/310KtXL/X/u1zp5lDicrlcrhz16KOPGpSUKlUKvvnmG/VzXK50cihxuVwuV9otWrTIgIR744031M9zudLJocTlcrlcafX3339D7dq1QygpXrw47N69W/18lyvVHEpcLpfLlVZTpkwJgYRr0aKF+vkuV6o5lLhcLpcr5f7880+oVKmSihJq+fLl6te5XKnkUOJyuVyulBsyZIiKEa5WrVrw119/qV/rciXLocTlcrlcKfXzzz9DuXLlQgjp0aNH6N/UmDFj1K93uZLlUOJyuVyulLIB0qBBA/jPf/4TB5WyZcvCTz/9pN6Gy5UohxKXy+VyJY2uQ3LzzTeH8DF79mzz/9q1axf6ONW+ffu423C5kuVQ4nK5XK6kvfXWWyF00GJXXjuSnZ0d+n9UiRIl4JNPPom7HZcrUQ4lLpfL5UrY3r17zXVIJDoGDRoU+pwaNWqE/j/1+OOPhz7H5UqWQ4nL5XK5Evbcc8+FsEGXlbfXjAwcODD0ORxP8bhcqeRQ4nK5XK7ItKkZemVg+/NozckNN9wQ97kVK1aEf/3rX3Gf73JpOZS4XC6XK7InnngiDho0nZPq51Ldu3dXP9/lsnMocblcLpfamjVr4oDx1FNPqZ9LzZw5M+7zqRtvvBH279+vfo3LJXMocblcLpfaI488EgeMRJeR//e//w1lypSJ+xqqadOm6te4XDKHEpfL5XLFtXTp0jhY0Bk2//vf/9TP5+xTh2XTp09Xv8bl4hxKXC6XyxWK4PHggw/GoWLcuHHq58vWr18f93XcnXfe6a706kqYQ4nL5XK5Qs2bNy8OFHTpeJqe0T7frlq1anFfz9FIivY1LhflUOJyuVyuoL///huqV68eh4l0zqAZPHhw3NfLPv74Y/XrXC6HEpergLdlyxb14y5XXpSVlRWHCLpk/FdffaV+vtYPP/xgzrixb4erVauWeSE/7WtdhTuHEperAEZz+suWLYMmTZqYnfgvv/yifp7LlckIClWqVIlDRKtWrdTPT9QLL7wQdzuyvn37ql/nKtw5lLhcBSh6gbOpU6fC/fffH9qB79u3T/18lyuTjRkzJrTdcZs2bVI/P1ErV65Ub4ujkRT3gn0uO4cSl6sARJfhHjZsmLkkt7YD37Bhg/p1LlemokWs5cuXj9v26tevr35+smi075577om7PVmDBg3MGhbt612FM4cSl+sg9vnnn0OXLl3MmQ3aTptzL2rmyuuiFqfOmjVL/fxUinqRPtmIESPUr3UVzhxKXK58jv6CpKHtp59+Wt1Ja9GwunZbLlcmomuH3HbbbXHbHY3c0ZSi9jWp9P333ydc8Erdcsst8OWXX6pf7yp8OZS4XPkUTdEQLuiqmNrOOVG9e/dWb9PlykSdO3dWt7uPPvpI/fx0at26tXrbsmbNmiW9UqyrcORQ4nLlcbSYr2PHjupfolEVL1489G/tpeJdrkz0xRdfQMmSJUPbG3XzzTdn5Oqria7wKhs/frz69a7ClUOJy5UH/fHHH+YsGu0FzRJVunRpmD9/Ptx6662hjz/33HPq/bhcuS1qJOOdd95RPz8n1a5dW70PGW37bhrH5VDicmWwPXv2QPv27ZMuXNWiq2jyqb82SugsBfu+XK7ctnXr1tB2Jsvk6bpRpxrb0XV53DRO4c6hxOXKZXRhswkTJhg4aDvaVGrZsqVZc8K3SYv/5P+vWrVq6D5drkzUtGnT0HbGPfHEE+rn5zTatsuUKaPel92oUaPU23AVjhxKXK4c9N///te8tPtLL70EN910k7pzTaUbbrgBBg0aFPfXof15NLQt/7/LldsWLVoUt51xtG1rX5ObOnTooN6XHYH8s88+U2/DdfjnUOJypdGuXbvMdUXuuusudYeaTnfccYc5NVi7H+3zaZ2K9rkuV7r9+eef6uXkKZpGzIsplE8//VS9Py1ai0Xw127HdXjnUOJyJYkW39FoxoMPPqjuQHMSTfVEvcAZHTC0r3GLAF2Zik711bYxKi+vidOiRQv1PrUycTqy69DLocTlUvruu+9g5MiR0LBhQ3WHmZtoIWyiV0j9+eef1a/bvHmz+vkuVzp9/fXXcWuWOFqg/fvvv6tfl4loWki7Xy266Nr27dvV23EdvjmUuFx+dE2GiRMnwuOPP27Wemg7ytxEB4JULhcfhRJaA6B9vsuVTi+//LK6fVFdu3ZVvyZT0bTQfffdp963Vq1atdy0ZSHLocRVqKMRkXHjxpmzDUqUKKHuGDMRXcU11VMso1BCZ/hon+9ypRq9sKO2bVF0wb6oKcVMlurpwVynTp3U23EdnjmUuApd33zzjXkRsMaNG+fJiIgdXZxKnu6brCiU9O/fX/18lyuV6NV4H3jgAXXbolq1aqV+Xaaj6aF0r+MTtSDcdfjlUOIqFNFFyWixar169dSdXl5UqlQpmDx5svp4EhWFElqLon2+y5VKY8eOVbcrbtOmTerX5UU9evRQH0NU5cuXhx9++EG9LdfhlUOJ67CM/iqkoWqaI6dTHLUdXV5G0zW7d+9WH1uyolCSX3/Jug6/aL1UuXLl1O2Kyu8rBtNoZbJXD7ajV9XWbst1eOVQ4jpsomHhBQsWwOuvv26uAaLt2PKjNm3apDVdY0dnR2i3S1ff1D7f5UpWu3bt1G2KS2UBdqZ75ZVX1MeSqLw8XdlVMHIocR3S0Sucjh492lz/IDdXVs1EdHZNVlaW+jjT6fPPP1dvn0ZftM93uRK1bdu2uFedlt19993w119/qV+bl+3YsUN9PImi5zi9vpR2e67DI4cS1yEVXeVx7dq1ZlqmZs2a6o7rYEQLCPfu3as+5nSLQgldRVb7fJcrKprGfPjhh9XtiRsyZIj6tflRs2bN1MeUqPvvv9+dJnwY51DiKvD9+9//hmnTpsGLL74It912m7qjOpjRKYt0FVbtseekKJTQKcva57tcUSU7/ZZejfq3335TvzY/WrFihfq4ktW2bVv19lyHfg4lrgIbXVa9W7duaZ8+mF/RyMWyZcvUx56bolBC/frrr+rXuFx23377bVLE0+s4aV+bnz300EPqY0vWnDlz1NtzHdo5lLgKXGvWrIHnnnsu4Tz4wa558+bmwmva489tdGlt7T4pelEz7WtcLju6Po62DXF09kt+XCwtWbNmzVIfX7JolMe9mvDhl0OJq0BEUzR0iXeaL9Z2QAWlkiVLwvDhw/PkVVS57Oxs9b4p9/o3rlRatWqVuv3I6OwX7WvzO1onFvWKxcmqW7duwteRch16OZS4Dmo0VUFDyAV1ikZGw8z5sfKfRoq0+6foBc20r3G5OFrfVK1aNXX7kdHZL9rXH4zSvfS8rHPnzuptug7NHEpcB6XVq1fDs88+my+Xec9tNI3Uq1evfPuLLNErqdKCX+1rXC6uX79+6rYjoxed1L72YEUjpbRGS3usqTR//nz1dl2HXg4lrnyLLm5GL35Hr/yp7VgKYvSKpvl5+W2K4KE9FoqmjrSvcbkoWnOUyvV68mKBdm4bPHiw+lhTiRb0uvVWh0cOJa4871CaopG99957BlLa95SXETy0x0PRiI32NS4X9eSTT6rbjYz+KMjLNVE5ja6CnOhS+Mmi6VV3/ZJDP4cSV55FUzTPPPPMITFFI6tcufJBfVXSnj17qo+LctdncEVFl4rXthm7TFx1OK/q27ev+phT7Z133lFv13Xo5FDiymh8Fs2hNEUjo1fizc3r1mQigof22Ci6gJz2Na7CHV2/hl5JV9tmZPQ5BflsFXoxSjrVV3vsqTZ16lT1tl2HRg4lroxE1zuglyM/1KZoODpbYd26der3lt+98MIL6mOkCtoCRVfBiDCtbS92gwYNUr++IEUXTNQee6qVKlUKdu3apd62q+DnUOLKVR9//LH5670gX+gsUfS46XV0CtJcdJMmTdTHStFr7Ghf4yq80bVrUpkiLVOmDPzyyy/qbRSkfvjhB/Piltr3kGr33nuvGXXRbt9VsHMocaUdvcjX3LlzoX79+uoO4VCJDvB0oTLtezyYJZr6qlSpkvo1rsIZTcXUrl1b3VbsCsIl5VMtt6MlFL1yeEFc0OtKnEOJK+VovQhd5Ij+CtF2AodKpUuXhmHDhh2Ul2tPpUTXa6D5du1rXIWz/v37q9uJHV1S/ptvvlFvoyCWidESiq7Zot2+q+DmUOJKGu0gevfuDbfffrv6xD+UatmyJXz99dfq91kQor98tcct077OVfjav3+/edkDbRuxe+ONN9TbKMjRPkf7XtKJprUK4jVZXNE5lLgio7+saAHdzTffrD7hD6XotTWWLFmifp8FKXplZO3xy9xcuYumJR577DF1+9D65JNP1NspyGXiTByKFt+7F+47dHIoccVFB0Y635+GfLUn+aEU/SVJZwXR1JP2vRa0aOGw9n3IvvjiC/VrXYUnOu1e2za0aG2FdhuHQn369FG/p3SjdTcH+1R/V2o5lLiC6KX4aWTkcMAIRVM1h9pfSKm8jHtBeiE1V/737bffmsuqa9uG1vr169XbORSi0ZLcXOVVRqfau4WvBT+HEpf5C4IuX56JhWUFoQcffBDWrl2rfq8FvaFDh6rfk4xeRVj7WlfhiF7IUtsutBo0aKDexqHUwIED1e8tJ9HCYO0+XAUnh5JCHJ3aO3ny5JSuBHkodOedd8L48ePN96V9v4dCnTp1Ur832cKFC9WvdR3+pXopee5wePXc3L6CsIwWvi5atEi9H1fByKGkkEZTAHXr1lWfuIdatMOilfp0qW3tez2UogvRad+jbMqUKerXug7vfvzxR7jjjjvUbUKLXuH6UAa6jC5FoH2POYkWz+7du1e9H9fBz6GkkEVXLu3evfshewVW2aOPPgozZ84s0K/lkW403K59rzJ6FWHta12Hd61bt1a3h6ho1FC7nUMxeo7TGXTa95mT6GUl3FlsBTOHkkLU7t27oWbNmuqT9FCJ1r28++67h+1rW9x9993q9y2jV1LVvtZ1+EZTDtq2EBWNHh5OWKfohfa07zWnNWvWDP773/+q9+U6eDmUFJImTJgAN910k/rkPBRq2LCh+R5+++039fs7HKIdZCpnPnXu3Fn9etfhGU1LVqxYUd0WojoUXngv3Wgqihaxa99vTqOzDbX7ch28HEoO8+hAl8riyYJYhQoVgK4xsm/fPvV7O9xK5cJpVNu2bdWvdx2evfnmm+p2EBWtmThc8b5y5Ur1e85Nh9M01+GQQ8lhHA3fPvfcc+oTsaBG0zOtWrWC5cuXHzaL9FKNTvXVfiZ2tLZA+3rX4Rc9D7RtIFEEee22DpeefPJJ9fvOaTQ6eaheQuBwzKHkMI1GSJ5//nn1SVjQomklwhOd7nioXHk1L0r1Kp3PPPOM+vWuw6ucTNvQc+n7779Xb+9wic4c1L733EQXaPv000/V+3Plbw4lh2l0ho325Cso0c6TLn89bdo0d/lnP7qAnfazsmvcuLH69a7Dq3SnbShaBK7d1uHWa6+9pn7/ual69erujJwCkEPJYVhOhnzzI7q42euvv24u6PT777+rj70w9/LLL6s/N7uHHnpI/XrX4VNOnsN0mv/nn3+u3t7hFr3Sd6lSpdSfQ25q2rTpYXfW0qGWQ8lhFq3DIPFrT7iDEa2WpzlueqG5wrZGJN1SvZhd1apV1a93HR7RX+s5ucpyYVtrlKkX67N7++231ftz5U8OJYdZW7duVZ9o+RVdZ4OGnemF5X744Qf1Mbr0Un2ZdjpgaV/vOjxq06aN+ntP1s6dO9XbO1yj9WfprrlJtSFDhqj36cr7HEoOs/IbJbVq1TJ/WdClz91CsZxHr9Cs/Xy16Awl7TZch37pXiSNo/VZ2u0d7s2YMUP9eeQ2eo2cBQsWqPfpytscSg6z6KW58+qsG7rMM912v379YMmSJW5RWAZbt26d+jOPSrsN16EdvbZNTl8cc8OGDeptHu7R/i6Vl2bISTfffDNkZ2er9+vKuxxKDsNo7QZdkpleGyaVK4TK6IlIox/08uh05VC6sBAdMA+HF7sryKV6OjDnQHj4Rdfn0X7XyaKrHWu3V1giOGg/l0xEl+svLIuHC0oOJYd59AJ827dvh6VLl5oXr6NX26QmT55smjdvnvkri66aejhfwr2gRwDUdopRffXVV+rtuA7NaA2W9ntOJfdS/Dk7fTrV3KnC+ZtDictVAGrevLm6Q4zqwIED6u24Dr2++eYbKFu2rPp7ThaNatIUhna7hSlaVJ/Tn2EqPfbYY+5U4XzKocTlKgCl8urAMhr90m7HdeiVLkhltNBTu83CGI0Aaz+jTPXqq686AOZDDiUu10GOrmir7QQTtX79evW2XIdWtGZL+/2mEi08/+uvv9TbLYzRWro6deqoP6tM1bNnT/W+XZnLocTlOsjlZKEevVqqdluuQ6fPPvvMnN6t/X5Tyb26bXybNm1Sf1aZbOzYsep9uzKTQ4nLdZCbNGmSuvNLFF2qX7st16ERvWAmnTWj/W5TiS4a5tY46L3zzjvqzyxT0TVM3OLivMuhxOU6yHXs2FHd+SWKXshQuy3XoVH//v3V32uqDRs2TL1dl3eZfjqVV/u5ZSq6dAKNymj378pdDiUu10GOXgRM2/Eliq5rot2Wq+BHV10uUaKE+ntNJXqZffeClonLzSnWqXb77bebKTjt/l05z6HE5TrI0UFG2+klyv2lfGhGr9eS2xfMpFEW7bZd4Z566in155fJatasaRaqa/fvylkOJS7XQYwugqbt7JL14YcfqrfnKti1a9dO/X2mGr1oo7uQV2rRlVhLlSql/hwz2XPPPedOFc5gDiUu10Espy/A1qtXL/X2XAU3uqqy9rtMpx49eqi37dIbPHiw+nPMdL1791bv35V+DiUu10GMXtxQ28klq3379urtuQpmdMXRnL7YHkd/9dPtaLfv0qOznOrVq6f+PDOdOyMuMzmUuFwHMRr61XZwyXrrrbfU23MVzJ5++mn195hODqI565NPPkn7hUlzEl1zZteuXepjcKWeQ4nLdRCj601oO7hktWnTRr09V8ErE5c/p4OqexHGnEdrsLSfa6ajq+z+9NNP6mNwpZZDict1kPr222/VHVsqvfDCC+ptugpW9Fc6XdNC+x2mkxsZy110Of68vgQ99/jjj5tpI+1xuJLnUOJyHaRyusiVeuaZZ9TbdBWc/vzzT3jggQfU3186FS9e3L0qdAaiqZX8mMah6Cwr7TG4kudQ4nIdpPr06aPu0FKJ/hrTbtNVcOrcubP6u0u3l156Sb19V/oNGDBA/RnnRTRtpz0GV+IcSlyug1RuXrK+cePG6m26CkbLly9Xf285ac+ePep9uNKPplUaNWqk/pwzHY3KrFmzRn0crugcSlyug1ROruTK1a1bV71N18Hvu+++y/Xpv9zzzz+v3ocr59Gl4UuXLq3+vDNd2bJl4dNPP1Ufh0vPocTlOgjt27dP3Yml2v3336/eruvgRlf2zOTlzbdt26bejyt35eSVuXMavazAL7/8oj4OV3wOJS7XQWjy5MnqDizV6NRD7XZdB7dMXkHULWbO23J6jaCc9OSTT7ozclLMocTlOgi9/fbb6s4r1e6++271dl0Hr+zs7Iye3bFx40b1flyZiUYvaMRR+9nnRe+//776OFzhHEpcroNQ7dq11R1XqtFctXa7roPTb7/9ZkavtN9VTnriiSfU+3FlNrogXabW/6TSqFGj1MfhiuVQ4nLlc3TFR22HlU70arHabed3//3r3/DXHz/Df/79I/z527emP375Cv74+XOvX77w+vUb/H/fmf764xf468/f4O///qXe5qEYnbar/Z5y2oYNG9T7cWW+7du3m0vEa7+HTHfDDTfA4sWL1cfh8nIocbnyuQULFqg7rHQqU6aMetuZ6O+//kBEfA2//7AHfvpsLXy2aTxsX9gF1k9uBStHNYHFA+6H+b3vhlldy8DU9sVh4ttXwbjXL4Exr54Po1qfYxrW8mSv50+GoS1PMQ1vdRaMfPlc7BwY/eolMPaNK2HSu8VhaqdyMLPXvTCvfx1YOuIJWDf1Ldi+bAB8tm0O/Pb9PgTPz/C/vwvufHymF026073zP3oFZ7pInfb7yHQEIIKQ9jhcDiUuV76XqYtqabedTn/9+yeExyfww76lsHtpT1g38RlYMrAmzO5WGia/cyWMefkMGPbcsX7/jGvos+GG+A1+xu/pf8Igq4Et/gEDuOaxPnrqH9Cfe/If8CH1hNfAZ0+BEa0vhYnvlYbZ/erAmqw3YdfqUfDjl9vgrz//pX5v+RVdRj7Tf2W7a1scnMaNG6f+PvIies2rb775Rn0chT2HEpcrn8vUa3Botx3Vn//6Dn77Zit8mT0Bsqe/AssGVodZnW6EiW+cDyNaHhvZ8Ofj05CiAWUw5eNEAmWgjxMDFAGTEE4QJRIn/Z44xtS3mVefx736tzgFRr5+Hcz44H5YM/Vd+HTrPDOyov0MMt0ff/yR8YWS9evXV+/LlT/l5irL6fbggw/Cv/51cFFdEHMocbnyMVrxT/PK2k4q3ehFxrT7oKmOP37+DH48sAx2LuwAK4c+ALM7l4Txbc6CUS8cGzRSCyHCaUih0gWKwYkPk1Rw8hHjRMJE4IRhInHSu6nXB1ifZsfB8DbXIlQehI/n9IAfv9phrh+i/axy03vvvaf+XnITTSNo9+XKv9q2bav+bvKiFi1auFOFrRxKXK58jA462s4pJ/38szciQAfcP379En76dDnsXPA+rBhcHWa8XxTGvHQijH7xuLgkTKJKFSqpAkUbOWGgaDgxMBE4CWDi46SvNWrSW8DE4KTJMdCrydHQ67GjoSc2sOWFMKV7DVg7vSN8//nWuN9LumViXZCdu0pvwYiQQFfS1X5HeVH79u3Vx1FYcyhxufKxbt26qTumnPT1/g3wxaZRsHZ0Q5jbrSSMe/VUGNPquMg0oGilipQooGjrUBgm9pqT0MhJCwUniBI5pRMbMQnDpC+PmPg4IZSEYNLYq4ffgBcug5kfNoKdaybAf/5IbwidTiOlU7K130lumj9/vnp/rvzvP//5DzRp0kT9PeVF7lThWA4lLlc+Vq9ePXWnlJNGv3GFio+EvSSy/t/oiEa9iDChfKCEkIIYSQ4UBScMEx8nDBOJE4YJ40SDicRJMJWjwIRGSyRMulOPYo0QLU1PhLHtysOqqR3g1x+/UH9vHE2ZNWzYUP195KYHHnggT6aYXDmPplofeugh9feV6dypwrEcSlyufIoWtWXytMP+T58EYxEXmSgKK5FISREoUaMnQ7FUcCLP0glgwjhJAhNaXxKDCeZP5RBMApRg3RAmXalH6O0/YPibZQxQfvvp67jfYSZHumRulKRg9v3330OtWrXU31mmc6cKezmUuFz5FP0lpO2MctpHz5wM414+PsWOU9OAwmlQUZGSBCgMExsnBJO4kRPEiD2lE4IJFgWTfs0QJ/50joEJry/xcdLrsTBMzIiJhAmhBOvCIVBGvl0O1s7qCX/8/gssWbJE/T3kNjdKUrCjU3czebXeRNGpwl9/HY/hwpRDicuVT3Xs2FHdEeW0Ps1PhfEIDlPrNOOvE4XAghCh0kGKxEkAlCQ4CcHEwkkAE8aJDRNESdx0TgKYeKMlMZjw+hIbJgFKGh4NnRseBZ0aHAXvNTwVbrmphPp7yG1ulKTgR+uIKlSooP7+Mh0hlV62QHschSGHEpcrn8rt693YffDUqTABgZFyr+ipaPFLCSk2UKzFsnL0ZASChEqIE0SJwQlihHFiYNLci2FicGLDxKAkBhN5Vk5SmCBKQjBBlFCdGhwNFcpcof4OcpsbJTl0OnDgQL69Tg699lHUKf+Hew4lLlc+9O2336o7n9z0QfNTYSKiIrJXk6chhUuGlDigSJwoZ/IwTsx6E4GTYT5ODEyw0KiJDRNaBCthoo2YCJjIha8GJsH6kmPC0zgCJry+hGFSr+J56s8/E7lRkkOrnTt3wu23367+LjPdW2+9pT6Gwz2HEpcrH5o2bZq648lpd5a5Boa/eDLC4gTTJK5NiiFIZKlAJQoocTiRQPFxIoESwMTHiTZqImHCOOE1Jt5Ujg4TgxOCicCJhEmwvoRhghgJFr76MJELX1+odYr6889EdDVYN0py6JWfMOnfv7/6GA7nHEpcrnzo1Vcy9yqy5W+9Boa9cDJMRoSYEBm5KQoriaASAoq/HkXiJABKBE5CMBE4YZgEOPFRQgVrTHyYhHAiFr9S4cWvHkxCOPFh0tOGCaHEh8m79Y6FUjcWU38HmSgrK0vdVlwFv/yEyYwZM9THcLjmUOJy5WH0onff7ZgMd9ymL5K8ISLtc4vfcD3UqnAF9H/mVMhCQGS9lrs0oHAaVJICRSyWTQUnoekcPzlqMlSBCS2CNTixYBKMmPgwoakchok3lRMeMdFgIhe90khJpVsvV38Pmei+++4z18Ggi3Rp242r4EcwyY81JjfeeCOsXbtWfQyHYw4lLlce9Nefv8D3u6bC+pEPwsQ3z4fbbg7/xa1BRIs//84yReGJmhdD36dPhymvn5CrNKDIEiIlAVAYJ/I05BBOfJhInDBMJE7ipnOepWIoSQUmZn1JFEx8lFCx9SXHeItefZQ0vuec0O8r002cOBF+/fVX+P3339Xtx3VoRItf8+OsHLqCML0itfYYDrccSlyuDPb3f/+En/YtgE0TGsG0thf6Z72cAH1anAZ3lC4KN9yA2LDDnU5U9DWP3ncptH74Ahjc8jRExYmmqW+kH39tcBvmbXKwpA2UNHEyShs1YZjwqIkNE38qJ4CJmcYRMPFREsDER4kNE3NGDoLEhkntuy5SDw6ZqGrVqvDDDz+YkRK6oJ69roT+7cqb/v7774y3b9++fLmOSeXKlc01U7THUJCj1xJKJ4cSlysD/e9/f8OvX6yBbTOehVntrzQHZcLIRD96nxamPlz5MrjlpmvNVIwGlOK48ylXqhjUrnglNK99MbSqewF0fPxsmPDqySo0qGlv6k2nt/T/U4iAwiVCShRQGCYBTuj7TxEnhBIuhJMomAic8DoTwskAf8TE4MSGCWIkWF8iYCIvrGamcXyYPFj+QvXAkIk6vvU0fP/dd/Djjz+a0RLaEed2R34wo1NX8yKa2sp0f/75Z55EIybVqlVTf9+ZrE6dOma7+eOPP3Lcv//973yNRgPTyaHE5cplf/y8H/YtbQ8LetwE432ASIzw+3R2zODnT4F3Gp0Dzz90ATSudgnUq3I5PHzP5dDovsvgiZqXwIt1LoSXH74AWtc7Hzo3OxtGtz4lITzsCCJqb4ms/xe6DQUq6QAlhBMBkxBOFJjwiEkAEx4xwSRMGCcaTMw0jg0TfyqHR0soDyUJYNL4GGhW9Sz1oJDbbr3panil1j+g4xNFYfX8UWa0hA7sDiXxaajIRBoqMhFdYI3OqNJ+75ns6aefNiNsGjhSSYNDfqQBRMuhxOXKYX/98Qt8s2UUrB5cBSa2OSWMkdYxiHDewftE/LyT4KPnToPuT54JHZqcDe8/dg60b3IOdGl2FvRpcQYMe+FUyHr9JHUkhGExI1lvWymfE4IKRbfvZyMlHaCEcGKNmgQ4QZBInAQXXZM4QZBQwxkmPkoiYULTOAImHz2lw8SbwomHiVxf0vbh49UDQm5rVOlMeBVRQrWpeQz0efkO+PrT7Q4lShooMpEGikxFr5XToEED9Xefydq3b6+CI1kaFvIrDSBaDiUuV5rR3PSvn6+GrVnNYNq7FxqMMEgIHwYmIYycaMp6LZxc28FJgFAxKJwUasZbJ8FM2TtWbycuEVpspASPJwWgqDix1pqYIkZNQjh5IRom5swcHyZmjYkPk2DhawKYxNaWeNmnCRNMemAVylypHhBymjdK8s8QSl6vfTS8/dA/YfrAF+Dfv//mUCLSQJHbNEhkup9//hmeffZZdRvIZCNGjFDhkSwNDPmRBhAthxKXK43+/O0r+HRVN1jUu7SOEf99hoiNERsifKA3+Qd/Gx+yEESwWQiQ3BSJlURIEY+Zv5+kOEGUxOEEUWLjJAomZhonXZgE0zg+TGh9CaJEhYkyWvJcrdPh5gxep+SRSmcFKGlT20PJ2/cXgbeo2kWgQ+PzYeOSsYccSigNFblNQ0Vu0xCRF9HBla7Iqm0HmeqGG24wVwTW4JEoDQx5nQ2PRDmUuFwpRAtZf9q/CDaOqwdT3jwzwIi5oqrAyCQFI7EDd/iAzgUIQWSo+LDgYBKwmI3NaZu42UoSJzJ5PzZSJFD48fM0U1KcmJ+VDxMLJwwTvqaJgQnjBGFCyTUmIZwYmBwbm8ZhmPgoYZgE1zAhmPgoCWDSVMAEQUK1b3gcNK16Dtx60zXqQSHVbrvpaqhf4RxoXfN4BAmhxIPJW/cfFULJm9gbtYrAwDfuhu+/2q8e/AtqGipym4aK3KYBIi/r1auXuk1kqlKlSsHmzZtVfESloSGv0/ARlUOJy5Wk//zrG/h0VVdY0POmGEZ8hAQYefVEE2NkioURszbET46EEEQYIzZAZtkRGggTfjYy5r7rNSdZ+LlRYLGBQmlAsUdPGCYJcWJ+TvgzkzixRk3GvkRZOOERkxRgQmtMJEwYJVR/HyZx60t8mGiLXt+oexK0qH4m3H/XRVDmpqLqgUGr7M1XQc07LoTmVU81GGld6zh4pTbmo+TtB46Cdx4oYlBiYOKjhHodYfJ2nZNgxfS+KgAKWhooMpGGitymwSGvmzBxgrkAmradZKJKlSrB559/rgLETgNDfqThIyqHEpcrIlo78stnK2DzxEYw5a2zA5AwRrw8jAQg8TMHZjpA+wfqEEQwHhGZYQ72FkIECCQYOBUaornvRUT/zyr0tXTbfnxf8rFQIaAgSgxQeFonFZxYMNFwEgcTRAlFKImDCaOEYfJM/IhJeLQkAib+aAmjJAQTBMLTCJNnapwBj1c9Cx6qcCFUv/0SqHLbZVD5tsuhStlL8d8XQ53y50OTe86C56ufDC/VPBFernUCvFwTq3U8YoQ6DtrU/ie88+BR0PbBIh5KfJjYKHm9plf/V8vDd1/uVTFQUNJAkYk0VGQiDQ552R9//gErVq6A2267TUVFJqpbt65Zy6JBxE5DQ16n4SMqhxKXS+m/f/4KX20cBMs+vN1gRILEQ0kMIzRlYzCiTNdMff0kmPaGl4TIdHNgxwM9JQ76ATy4AA0nIyKs3kvcvHZ+9L5VFFg0pGhAUUdPfJgkwwn/DCVOJExoKkeDiTkjJwIm3iXpFZiI9SXe2hIPJoSS0PqSYG1JDCaxS9AfA+83OA5erHUaPFv9dHi2xunwXM3T4HmqxqnQsuYp8AL2Yq2T4cWaJ0OrWifBS7VOxAgkJ0BrBEmb+4+Dtx88Bt57CEFCIUraCpRQjBKawmGYvFYDP/bgCbBsWh8VBAUlDRW5TQNFbtPQkB8RTPbs3mMunKehIhO9+OKLBgAaRDgbC/mVho+oHEpcLqt//7gHds19CWa2uzSMEfP+iSGQhNaOCJBIjGgjJHxQZ5Twgd+E4DAIMXgQyMhh8xEm89+PNY+zwJIQKfi4NKDwmT5y5IRhInHCMDE4EWtMEsEkwAmiJBlMQqMlDBMxWhIPEw8lEiYGJTZM/NGSHggTql39Y+HVB06ClrVORZAwSk41KDEwQZS8iChphShpXft4eP2BYxEh+HV1j4L36mCMkocESnyYRKGkDfZq9SNh8Ds14Nefv1dRcLDTUJHbNFRkIg0NeRmBhPrzjz/NFVkbN26soiITffDBBypGZBoa8joNH1E5lLhcfjRd89P+hbBxbB2Y1OYUgxEbJBIj2voRDSMqRHyMeCA52TSHIpAYICgQIVxgCxKF2NBa2F7/eCKoJAKKxIk8DTmY0hE40UZN5OJXDSeRMMHiYCLWl6QKEzON44+WUKHREoaJP1oSgsmjxwSvIty54THQscEx0KH+P+D9ev+Adhi9bV/vGOwo0/sPYwgS6j0KQfKuGC0JTeH4MCGUMExes2Dy3iPnw+5Ni1UYHMw0VOQ2DRSZSINDXsYoYRTQhc86dOigoiIT0asKS4TYaWjI6zR8ROVQ4nJh//3P7/D1psGwtG9Z/GvdwwgdJGkNRGiqhkEShxE8AONBN7aYlQ7OMYxEQYQxok3NSJAQHDRUEDYSlcrny/8fQkoyoCBKGCj8fRmcmO/bg4mGE/Mzw5+dWWMSMWpi1pcoMOGzcoLThQkmCBIqfDl6DybBa+T4MOH1JR5KYjCRoyVx0zgWSrr7MOn6iFcXrHMDr05Yx/pHQ4d6R8dg4qPEjJb4KDEw8VHCC17NWTgYo4SSKGmDKCGYvFKtCMwc8jr8Bw94GhDyOw0UmUgDRW7T0JAfSZRwU6dONWfPaLDITXSbW7Zsibs/TkNDXqfhIyqHEleh789fv4R9i9+GWe9fEQJJKqMjsZERiRHMX2sxi2KIcOZA7k/RiCRCOBsjC9ufkstOhkUdYtlAoeKAQjixgaLgxJwVRChBfHmjJjGcMEwCnODPzpv20mESLHxlmJg1JseHz8hhmLT0YGJGS2yYiNESAxMfJbHREg8mwdoSAZMPGCY+SgxMFJRQnRvGYNKRQpQwTHi0RE7heCg5Ct7h0RKBkjd9kARTOJiHEm+05JVq2H1HQq8Xy8EvP36jQiE/00CR2zRQZCoNDXkdT9/YQKDTee+55x4VF7mJX7zPvj9KQ0Nep+EjKocSV6Hu9++2wfZpT5mza0LTNQYisQMlHzgNSPyRETq4xjCCB2CKDsYIkZkGI14xiPgHcf+APg8P7hIglFn/gS14/5QgDReLOoRbnEb213rpSAmA4j8uCRQ5eiKndQxOQjChlFGTDMPELHr1UcIw8Ra9hqdxDEosmJgzcSyYeKMl3jQOo4QWvRJKDEwaWSjxYUIjJaHREoGSdlEowQKU2OtKBEpotOQVClHSGnunwfmwf+c6FQv5mQaL3KRhIlNpaMjLgukbZbSEoleMbtmypYqL3NSkSRP1NXI0NOR1Gj6icihxFcpo/cjPBxbDx2MegoltTg6BxBsdsTHiLdKkJEjMyAjnY4QvbMYY4ZEEHl3wMOI1v52XXBMSQ4ENkVMRFVYdYy2hOlnxx0WLOyJO/Jb40fvpACURTgKY0M8hwaiJ+TlihDwNJ+asJwUmYxSYmNGSCJgYlDBMaG2JGC1hmPAUjpzGCa0tESgJRksaHROgpItASSeBEgMTQgnDhFDCC17NqcEeTOx1JcFoCYKEiqGkiIeSah5KXsZerXEsrJozRMVCfqXBIrdpoMhEGhzyMgaJNlIiGzlyJNx0000qMHJa165d4+5HQ0Nep+EjKocSV6Hrf3//F77fOQlWDawUm67xQTIhmK6JB4mNkQAkeKD1MOKlYUSDiBkRwRYSREIYIRR4QIiNcHgI0ZBhEhBZmiD5eeGvR5xQPlBiSIkHSkKcMEwoH2f2qIlca8IjJhpMvPUlHk4MTMT6kjGtLJiYRa/xMAmNlmA8WmJP43z4ZAwmZrSEUYJ90OQfsQWvhJJgwWtstMSsK/FhEqwr4dESRgkWoATzFrsKlPijJaGzcHyUaFM4hBIDk6pHQqt7j4TxHzyNB8E/VDTkdRoqcpsGitymoSE/iholscvOzoaaNWuqwMhpixYtCm5fA0N+pOEjKocSV6Hq77/+gK83DYJFvW4JgcQ7+DFI4tePqKMjhBEBEnMAFhjhaRo6WBuQIES8vIN6CCJxCPFgwCMZsTxEaOCwW9Y51lI78XkaZiRQGEghoPiPPwonEiYaTgKYEEoiYEIw1GAyNgIm3tk48TAJzsQxoyUIE0KJWPRqYEIokdM4iJFgtARRwjAJRkswDyUeTAglPFpCKFFHS+p6MUpiZ+H4V3fl0RKBEoZJGCVFPJTwaAmi5CUKYfLBS+Xh159/UOGQl2moyG0aKjKRhoa8LpWREu6XX34xZ+fQa9toyEi322+/HT799NPg9jU05EcaQLQcSlyHVbQzo3nUH3/8Eb799lv44osv4MCBA7B3717YtXMnbNuyDjZtWA4fr54H65ZOhrWLxsKqOYNg2dTOsGh0K5j3UV2Y2a0sTH37bG8xK4HExwj9Za+CBA+0ZroGIcLNpSRI8GBNyYWrC/31IrGDvlcIIYiDpRxiQkKDW246La5l9LaLUvA1CBBOosT6GONEHT0x34eFEzGlw9M5kTDBn2W6MDGjJTZMfJTYMAlGSxgmhBKexvFhwiiRa0voSq/hKRwxWoIRSrwFr8poCaGER0uiUIIYUVFCoyWMEh8m5gwcilCCEUpe1VBCIyZVjoT3mxaD7/L5tXNsUGQiDRSZSENDXpbq9I3dypUrM7YItmnTpgYGdLs2FvIjDR9ROZS4DtloXQg96X/66Sf46quvYN++fbBnzx7YvXu3adeuXbATIbJjxw7T9u3bYdu2bbB161ZzyhwNldLq902bNsHGjRvh448/hg0bNpjWr18PyxdmwZwx78KUXvfDhLcuMQdPwghHB1dt/YjBCMYYoYO1maphiIjFq4v84kZGCAMIA4oxYiDRJVEKQPxWdMXorSj4//5t030wSBg8Nk4YKBpOzNk6/vdKODHXWsGfgwYTsyCYYOJDj2FCKEkGk3EME0RJABNeW+IvepUwkdcuCUZLxKJXdbTER0mw4JVHS3yUhBe8WmtLBEpiZ+HEYMJn4RBKDEzM6+B4MDGLXREjFI+UMEhslPBoCaGEYULTOASTN+qcA/t35M8CWA0UmUgDRSay0ZAfpTp9Y0d/XNGoSfHixVVspNPo0aNVMORHGj6icihxHVIRRGjD/f77780ICEGERkGoTz75xJQJmBBK1q1bB2vXroU1a9bA6tWrYerEYdD7vcbwXtNLoGczPEi28dePWCCJwwgmMRKCCI2McHTg9wFAMQyWKQBZ0dVrZTet00IZkGD2v22oMFLk/ZoETJLhhEdMbJjYOAkutiZwosGE15cYmCBIKDNaosAkWPQqYBKMltjrSxAmZm2JNVpi1pYQTGhdiQKTXphBiT1a8ogHEzlaEj41OAFKzEiJP1riL3aVKIm7iFo1L7nY1aCEQOKj5EXs5RonwJbVs1RIZDoNFblNA0Vu08CQH+VkpERG+yh6fRsNG6l2yy23wP79+1U05HU2PBLlUOI6JKIdCv3VQK+GSRihJxdHMLFxQjBhnEiYMEo0mGijJQQTRsmqVavMkOqKFStg7LBe8GaLSvBCrROgb/MTzAhAaJomCiPmIC4gItaHBBjAePTChshKTiKk+6mwyg4/vgoBYkcoWdXdi5ESgooGlAQ4sad1FlgwMTghmGCEEhUmiBI5apIMJnIaJ4CJGC1hmPBoCaFELnplmDBKKEKJPVpinx5MEUrsKRwDEwUlcrTEQ8nR3mJXgolYV/JugJKjUkKJWVfio4RODY5DCUYoeeEerMrRsGHxBBUSmUxDRW6zQZGpNDTkeQiS3KCEogP2mDFj4M4771TRkUovvPCCiob8yMZHVA4lrgIbj4rQRYBooZaMYKLhxIaJNmKS09ESiZLly5fDsmXLYHrWWHj/5fuhebUToPdTJwJdBI0OxFEYMSMjcrEqHfQZIJSFEA0iIWj4wKBWJ0h+XlSJgRKDicQJjeyEYYLfM+EEYRIaNZEwIZRgBDkNJnxWTmwax4PJJAGT8TZMzNqS2GhJcFE1M1riwcQeLRkkR0sYJZgZLXkiBhM5WmJQ4o+WmLNweLSEFrwiTOwFr6EpHB8lZrTEQgmPlhBKqNAZOJSKEgxBwutKXkaMMEwYJS2pykVgxcxBKiYykQaKTKSBIhOpaMjrMoASjv4469GjR46vBkv7Nw0NeZ2Nj6gcSlwFLsbI119/bUZGqM8++yxUFE7kqImECaEkGUxSmcIhmEiULF26FBYvXgzTssbAO89Xhaer4cGw1UkGJBpG+GDOazckRFb4EAkQgoUAYqXhg1rTI9Zqre6nB63Cf5v8rw0BxcYJvq/hhKedJE54KkfCxEzlaDBBlEiYBNcx0WASGi2JwYRHS0YzTAglPkwYJTxawjAhlDBMzNoSHyWx0ZJ/BqcH21M48vTgpCjxF7x6KPFHS6JQIkZLkp+BI1BijZYQSigPJUfC83cfCfPHd1dRkds0UOQ2DROZSAVDHscLXTVg5CbaD3bs2DFtnLRu3VpFQ15mwyNRDiWuAhVtwDQyQmfNyBgnNlIkTlKBSaqjJXIKx0YJjZZIlCxZssRcC2DhwoUwdngfeKHBtfBuwxPwAKxjhA/oEiOx0RAPHFH4WCNDTHBre8YKPi4+Fvq4CVFiRTjx0OJlcIIQ0XASggllwwRBllOY0NVxtWuY0OsNRcJEri3BgtESfxrHhklswas/WmIteKUIJfbaErrCazBa4qOE8k4NpikchAmChCKUxJ8aHJvCIZQwTAgllI2SYLTER4kZLfFRQqMlBBJGCZ8WLFFiRksQJdRzCJNZI9qpsMhNGioykYaKTKTBIS9jlGRqpMSO/njr1asX3HXXXSpC7G677bY4NOR1Gj6icihxFYhoJ0SLV7/88svINKQkgok2laPBJNUpHHtdiUQJjZYQShYsWADz5s2F7m2bwfO1ToZJr50cjCTw6Agd0A1IECEUT5twPFoRwghiYS3X8/TU6+W1rtdpQWGonO4BhUZOBFBioyoejMxjEzgxMBE4kTAJcEKjRApOeAFsjmDSxruwXfg04RO8aRxCCcNETOMwSoJpHBop8WFij5bErS1p5o2WGJTQSAmPljzmL3i1RksMSnhdSYLRkiiUxK0rsVFCoyUSJQImjBJKQ8nzBJNKR8KCCT1VXOQ0GxOZSMNEJtLQkNflNUq43377DebMmQPNmzdPeGXYEiVKqHDIyzR8ROVQ4jqo0VTNr7/+ak7pTZYGFHvURINJOqMl6a4rkSih0RJCyfz58xEm82DcyP7Q8uHLYMiLJwUjJGa6xscIHdzNSARDhN767wcjGggLzsNFuPVJCj73A/w3Jr82hhQPMAYo+JZh4o2mxHASwMnHiYSJmdbxYRIaNTFTOQpM/BETWoNjw4SncWyYZPkwmfbOeTCrcwmY2/NOWPBhNVjQvybM/7CGac4H98D0zrfC5HeLwtiXTzUw4QWvcrQkfHpwbLQkeE0cgZJgtARBYqZwaLQEUWJgQijhxa4+Sni0JOrUYEaJPAsnhBIshBKECMUjJa9pKCGQ+PHZN3EoudvrmUMAJhooMpGGhrwuv1Aio3Unc+fOhffeew8aNWoEZcuWNSC59dZboV+/fioc8jINH1E5lLgOWvSEpQucEThoCDJZNlAyAZOoKRxGCWWvK7EXu0ahhHYKM6ZPgTefrgB9mp8opmu8A3uAEL/YtIwHgtCIB2VwcQbiIr4NKUQooTb4b+OREruvAEOME3xcZtSEcYKP3+AE32ecELgYJmbEpKMHE2+NSTRMeMREvsowoWR2u/Ng6YAq8PHUl2H78kGwf/tS+PrLA2Z6j+JtgrcFOXLG28Curetg0/LxsGLK+zCnf30Y/3axACVyweugFh5M5Av1BQtexWhJgBIxWsIjJXGjJQiSACaIkeAsnLrxKKEIJJw9UiJRIkdKaF0Jo0Req0Si5AULJc8iSp6peCQsnPiBCoycpMEit2moyG02GPIjBkl+oiRRGhryOg0fUTmUuPI9Hh1hbPBBJlk2TuSoSRRMUh0tSWddSToooeHUWbNmQec3HoHuzU4yIJEQMVMzCSCyrtcZpvUyQkbv+D6OKOpzCSdcDCh0f/jWv/9UcCJHTXIDk9nvngLLB1SAbfPawec7l8BPP/5g/uKj6JVUaXqP+u677wxm5XaRCCf2NrA9ex2sntMfZn5YH0a+fH4wWkIwCdaV8GiJQIl5PRx/tIRRQpl1JQpK7NESHikhlLzvw8RM4fgo4ZESDyUYgiRY7CpRgoVQQlkoodGSFyJQQmtLnkWUPFOxCKyZN1pFRrppqMhtGioykQaHvIxHSjQgHIw0NORlGjwS5VDiytdoB0YHGIkNOsDI6KDDBx6ZPAjJA1Giv5SjYBI1hRO1rsRe7BqFElpXoqFk5syZ0KfTC9AVYUIHcg8jeKDHkiEkGO2wYEFt5PrE2uQnP8YFUMH3Kf43xaMnhB7zOMzjicHEIEXgRIOJidacEEywhDAx60tOgVWDKsLu5R/A91/vM6/7Ifv555/NFXspxgkDReIkGUx4O4jD6Y7tsGbBSATKozDsxXNhAI2WIEiC0RJzarAPE3+xa/gsHB8lcetK4qdwApTQuhIeLVFQ4k3feKMlEiVRpwUTSswpwRZKgpESfwonHiXY3cdA9qrcXWBNA0Um0kCRiTQ45GUHY/omKg0NeZ0Gj0Q5lLjyLXqC0oFEQoQBQvFfwjL5/zWcpAKTRKMl6awriUIJnxacDCUzZsyAt5+9G3o8caKHETEyIiGiIUTiQcOGqW+sTXb4/22sfOxn3vdvm+4rDif+1E4UTGjEh3BiYIJvGSb2Aliz8NWHydJuF8PWWS/Bt59uMqNmdhpOGCiJRk54m0i2LWjbwdYtm2FJVncY0/aW2GiJREnEFI6NEopRIs/CIZQEi1390RJtsat3Bo6FEl7sKlGCmdOCNZT4Uzg2SggkBiX+FM4zFfD/33si7N22RgVHKmmgyEQaKDKRjYb8qKCghNLgkNdp+IjKocSVL9GL5GkY4QML/wVsx/+fDz42Tuy/kO2DkT1aYh+MeLTEXleSDCX2acGpoKTbGw9BrydPgilvnhIc4HlkhNIgEoADk7DY1O/M1PqQ3uLnI0w2K1BhnBjM0Pv+/cZwQm9jOOHHLXESBZNlCkxW9S0On6zoBT//+I2KEa1UcKLBREI1VZjwVN7K+WNgQsfK0P/JYz2UYMFZOFjoLJzGHkwIJd19lHiLXT2YMErsM3AkSmi0hFFiRksMSo7yTgsmkNgowSRKWt/nwYRPCTYo8UHCKGnJKEGQSJQ8jb1Y/XT48sBOFR3J0kCRiTRQ5DYNDHkeYaQQj5RQGj6icihx5Wm8foRBEgURXjugxZ8jcZIIJqmMltgo0daVaGfg5AQlM2dMhwld7gU67TY2FeId6INpGh8CBiMMBQ5xwW3GsmWIjsiszyGgbOYQIRIpwX2J92M4iWXjxBsxSQ6T1f2Lw4H1g3Fb+NmcumhnQ0TLxok9rWPjRNsmEsFEA+qK+WNhdNvbfZRYoyX+FE5POVpCIPEjlPBpwfYUTqooMetKxEgJFTdSgiCRKJHXKkkVJdQb9a+EX3/6XoVHojRQZCINFZlIhUMeVpCmbygNDXmdho+oHEpceRaBhA4ajBEGiQ0RPrhEpeFEHnxS+euYkiixD0Q8hZNplMyekQXLPiwXjCrEYQSjERIzQsEwMDiIISTIB0UIHn5bkmQ+r7+f/zENKHTf5q3/fmzk5MwQTOhMoFRgsqr35bBvZQ/49ZefVIxEpaGE03ASBRNtOkfCRNsetDVGC7N6w+CXLo+fwqGREh4t8Re7GpQ84mWuV6KgJLauxIOJnL6JQ4k/hWNGSni0JEWU0GgJX9XVRomBiUBJ8/JHQJdn78KD5x8qPhKloSK3aaDIRBoc8jKHEocSVwHo77//NgcKBgkdLBgkNkR4SD4q/jw+8NDH6OBEBy+aFpIbNB/Q6HPoc+nARAejRAehvELJvBljYGXfG2MY8VtPSYxg3mJVhAhiZBO2mfIxIvEhcbG1/1mw9aNY25S24Odp0deb9/H2AqAInAQjKJSPk9CoCT5+xomczglg0v0M2DnrWfjlhy/M70hLIiQqiRE7DSe5hQmPntnbgzkba90amPLhk9D3ieMNSihCiT2Fw9M3PIUjURJ6cT4LJaHFrgFKvCmcKJQYmPgooTSUBCMlWDKUNL/rCBjaoakKj6g0UGQiDRSZSINDXlbYUSL3z6nkUOLKeBpIGCMMEgaHPLAkig5i9ASP2hnaOx37SUgHOHosNHoiUSLXEtgo4dOCc4KS+TNGwqo+xUIgkRhhkAQYwQxGGCIWRgxAZAgOE75vADLAykeJlsHIRz5KZIwTyoaJ/1hDoyYKTOiia5uG3gbf7V8Zh5Bk2SCxSxUmjNdEMJGjaNq0nj2lJ7eHpXPGwKCXro5N4fijJWYKJxFKqAiURJ8W7I2WmMWujBIsZZT4UzgEErqiq1nsyijxz8AxKCnvowR78s4jYPborqHnWrLkczFTyed0JpNgyI8cSnR8ROVQ4spoiUAShRHtYMPRk5puU6btCLWdjnwS0sbOBz96LHRQ0lAih+xzipKFM4bCqt5XRoKER0c+FhihRamMEUJB9oeEB4EQxofp7KDtsgHxbTNvzwqSOCG8GJxgWwVOCEEGR4gRg5N+PkxoWikBTNZ9cBbsW9oWfvvVQ2Ru0lDCadtJFExo+0sHJjZW7W2CR8/WrF4B47vWsVDiTeF0EzChs3AkSoLpG4xRYmBij5QIlMSdFhyBkperisWuPkgMSvxREg0lTwuUtPBh8tRdWPmjYfuGRSF4RCWfh5lMPqczFe8b8j0EiZu+SS2HElfGsteQaCCxIaIddOigRDsQuj3KRkkymPCOQD4JaWPngx0fxOgx0oEoah1BTlCyaPpAWN37UoORACQ2RrBgqsbHiMnHSDYCxIAE4eB1tokQsgORETQwokHKx7AYVgRQ8O1WytxPNE6SwWTTkJLw/f7lcTuYVJIY0bK3D/4d2qUKE153JBdDRy181aZxCCa8Tcwc0RZ6NzsphpLG8Sih0RJCCUUoCRa7SpTwuhIsKUrk9E3o7JswSoJrlaSAEgJJCCV3HgEvVD8bfvjm8xBAtORzMJPx8znThbCQH/kgKQgosbGQn2nPfS2HEldGIjzQwSBVkPDBxT4A0ZOYMSLLC5TQY6LHRwen3KCEL562ZHo/WN3rwgAkPDpCB25zVg0lMBKAxGAEIUCJkRGCiETEdoIFAYPQ4bcT22VFHws1WHw+fj0VB5QAJlQMJzZMzHSODxPvbKEzYdf0R+C3n7+J27nkJHt7kPE2I5Mo4d8rlw5MotaXJJrG4W1iwbQh0LfFuWZdSXdrXQmjxIyW2KcFI0ao9+oIlPiLXYNrlRiUHOWtKeF1JT5KDEwUlNDUDaPEXNUVMUIlmr7RUELTOO2fKosH0+QLX+XzMFNJSGSyAAv5VEGavrGhkF9pz/WoHEpcGYkOCMlAQp/DBxM6yMgNkZ4whA15m+nCxN7xyCchH9j4wGX/NU0HKToApYoS+4quS6d/AGt6nhcaITFn2dgg8adrAozgWw8jHgQ8jCAUKB8MPNKxc+BZATR2ITSi2m0VYAXfp+hzzO2EgGLjRMBE4oRgwqMmfc+Gz9Z0C/0eKbkz0rI/Pyr+nckkSDgGCRcFE9o2GSZ8ppa98NWexuGF0BKs9mgJXb9mybwp0P/5y8xoibxWSVcESRRKgnUlPkrkacE2StRrldDUjY8SmsLxUFIENJTEjZQgRjSUGJD4KGGYjOnZMgQQLYmJTCWfz5nMRkO+VECmbijtOZmXac/tRDmUuHIdbUi0o08FJHxwoa/hjZZ2FHQ7/+//+/+a7NuPgom9Q7R3PPwEpPviAxoftGyU0GOngxT9VcwoSXT2jUTJshm9QyAxKPFBQtcf8aZsBEh8lDBIGCMGIj5GdiBAKAMRbNcginCBbwdTCI4h2NBz1PbQW/r/FH0uh/82KMECnPhAYZyYhbKUwImBiUEJfQ9nQPbAS+G73bOC32Fu4x2SFm8zFH0u/V7p98u/a3kg4+1A/v7p906/c/pdM0yi1pfY0zg0WsLTOIlGS2i7WLpwFnzUqlhspIQikCgokaMlHkqODo2UyDNw0kWJnL6R1ykhkBiUYAySVFDyxB1HwKYVM0IIsbN/B5mIf7+ZLoBCPuVGStxIiSsfoycdgYRHSZKBhDY63lDpSUI7NMaIHd9HFEoYJvaOjHcG8gmhoYRBIof26SBFBx8NJdpl5pdP6xqAZE0ESMx0RyRGBEgQAtsRIJQ3KuLlgeSsABl77BAgnwSda/7N0cfkvxkmFMOEcRJeexINk23DS8DPX24Mfr6ZjndO9D79Hun3Sr9ruR3Y2dsFZR8wadugbY62A/rd84hJommcqEWv2mgJbRdLFsyED1tebUZL+HolBiVYaKREQ0kdHyQWSsxoCYIkOC1YQUls+iYxSswpwZSNEh8mze8Kw4RQQtH6kp+++yr4mdrxzziTSUhkMt4/5FcFCSWU/XzLj/g5nUoOJa4cRzsjOpgzSOjgngpI6IlBT1Y6cGgYkfF9RR2A7B0i73T4CUj3yX9l81/M9iiJRAkdpOjgRAeeKJTQehJCyYoZvWB1j7NhTY94kASn/BqQeGex0NSHnK6h9SO82JQxYkZHJEYQD1QMI4gLLIYQ0TDZuV6IlFje50mcmNuXOLFhYlASg8nOseXg1+/3xu10+OedTvZt8O3Q75B+t3Jb07YDbXvg5AGTtxF5QOL7p+2Ttl2GSaJpnFRGS2jbWDx/Bnz4/FWxdSWMkgYeSigVJf5IiYYSs9BVoITXldhrSl5ilGDm7JsMoeTJO46AHi/ea36O9s+Wf76ZjhGR6XgbyK8YJXLbP5jZz7n8SKIjWQ4lrhxFBwM6oPMoiZy2SQUk9PWEjv/v//v/4koGE/vgY+/IzI7Af/LR/WqjJIQSBgkdlOj7kEP6dECSKKGDjkTJyln9YHXP8/xLxwuQ+CgxIKEskJgFrf7oCB3sQyDxMWJA4kPEw0h4tGMvoiNoeKx9MvP/zg2SSNnrA4Vvz8ZJFEz2TLob/vXz18HvMZPR74x+n3Ibi4q3A5m9TdhFbR8UbR+0bdC2wDCR0zipjJbw9sGjaAtmT4bezc+PoaSBQIkyfUMRSt6NRIm/2DUHKOErutooMVM4iBFGCYEkEiUYTePMGds98mebySQiMhn97g9GhX2khJLwSJRDiStH0cGdQZJo2iYKJBpGZDZK+GBDOxZ+YtkbM2U/+ehjfNChko2SyLMy6C9jGyV00Fk5ZyCsYpDwtUgESGiUxAaJmbaRIyQCIxIkwajIYASDjxEe4YgECDfiHNiPb+32jTjXFAKKj5M4mDBOrOmcvVOrwb9++Tb0801U3E5Z+RyKDkC0PdjbV6IkRmSJYCIPdvIx8TZCaOWRNNoeCCapjJYwXOUUDp+ZNWfKMOjR5OTQSImZwlFQwiMlEiWUihKewrFQQnko8Ra72iMlocvM5wAlNFrSouJx8MW+7ZE/30wmMZGp5DaZXxX26Ru5f04lhxJX2tGGRqMKdCDnaRs6wGvTNrSR0efTk4GeoHTA0BAiI4jQQYZ2drQj4Q2bRzzo9imJC3ocEhf82Oj/M0joayRKeJTERgkvfKS/luXwvDnozBuGILkwAAm9/ss6bD2lgITOVImBRBkdwcxCVoQAL0ZlkAQYGYaw4BAeJsTGAYTGgZHR7SekBNG/PZwwUAgnBBMVJwIm+6bcC//+109xOzfO3gmnEh10tG0rWTZEOAkSTjtwyoMTPXa5bUm40vZB20HUaIm8bomEq5zeo0XQU4d3hC6N/uGjxFtXEix0xQxKMHNa8ENHhxe6JkIJgkRFCYIkCiXBSEkaKLGncGi0pEOL283PUv5c8yL+XWUyezvMjwoSSmh7PxgxOFLJocSVVrQTogM4oUQbJWEwEB54lISeDPTkpK+V+Pg//+f/BDFG+GDCOyXzpMavp9tJBSU8BSNP9yRg0OgHPW75NXKUhL5OjpLQ19BfxBIlqxdNgFUfXAarGCQ0SoIZlHxwOoLkdP9MG+96HpEg8YsHSQwjBATGCI+OEEIMLgQ8PqVG+Yn3D4jo4wFSzNswTvb6ONFgsn9KZfj91+9COzb+feYk+p0SIuRIGKdtb1o5BYk82NFjoe+Dd5i8bUm80nZC2wXBRLtuiTxLS647kguh6cJ6o7o1SY4SBIlBCa8rsVASXKvEHinBgukbKsFICaHEwIRQ4sOEQMKlipJm2LxxPdWfbSZjSGQye3vMrwxMrOfQwcoGQ17H2Eg1hxJXWtHBnEdJ6IAeNUrCIKGNkp4ItJPRQMIY4dvngwzt7HgnQl9PtxWFEjniwSghXNjXoKCRD4o+xqBilNiQoYMP/wVsULJsBqzqfZUBiTdKckYMJJgEycdxIDnTAwlmg4TPgAlN1xBEBEYYIhpGPiN0+PCg9z+jt/w+/z+RwQlFt5kEJnsnloHff/4y2JnZO1ot+yAgo9+rDREtub1FlQgmfLBMdNDkx8s7Tg0ltH3Rtk3bCG03cgqHR0sSLXhllNCF9T58+ZZ4lPD0jRwpUVBiTgnOIUoIJCGUIEYClAiQ8CLXVFBCPV35JPjm870Jf8a5TduGMpHcXvMlGiEp5CMllIRHohxKXClHGwwdvOnAzwd1AkHUKAltiPREoCcmHWwkSvgAJP9N95EqSrRpGB7xkCihEQ+JEj7Vk/7ypX/z9yNHSegv4tCZNysXwKq+18GqbvQquB5IPJSc4V21VY6SEEho6oZBYkKQ9A+DxKDEB8luGyM+SKJGRT4bfV5kn8vGeDFQJFQkTvZyBBOMHsu+sdfDb9/vCn5/Udk7fC06wNDvln/nqSa3PZkNEi4KJlEHO3r8vKNOtn0xTFJZ8GpP4dDF9WZNnwDdmpyRI5TERkqOMiih+JTgEEoQJAFKECTBKcG0noRQQkmUiJESg5IImAQowRglVLcXq0T+jDOR3IYymb0N50eFeU0JxeBIJYcSV0rRjocP+DxKQhCgvyRpxy1HSWjHThsXbYz0hKQDho0Pekv/tkdM+OBC98c7EHoi0e1pBw2ehpEoYWAkQgmvEaC/fGl4nkdJ6P/zQcagZO1KWPXRrebl+GOjJDxtE1vYaq7a2ic2bROc+osgoTNtaNqG15IwSGi6Jg4khJHh8Rj5bBThQuDDBwf1xZjzQ3kf8wo+z4eKQY0PkwAnhB8Bk32jr4Rfv1pvfu5yx8rZO/lE0e+RkZGT7O1QIsROoiQRTPix0ffCO+mo7Yu2bdrGePuibShqwas2hUMo4dGSsR+9FZwSrKHk3UQoMWtKfJQQSHyUEEhyihI+HTinKGl2+xGwbvGkuJ9vppLbUaayt+V8C0Hi1pSklkOJK6Vo50wHbjro086ZR0kSTd3Qk4B2LnxwoQMFvaV/E0L+7//9v6ZkKOGNmm5XG17nv2RtlPDaEEaJfTaFXCNAb+n/0UEmQAkeZFYNqQorESQreZTER0lscevpscvI8yhJ3zN9lHggkYtbk42QGJAgDmj9SAgjGKHii9EID+zLsaJxEQVQ8YHiw4SKGzVhmIy8AH7eNzN+p4rZO3iZfUCh6HdJv1ctRkcqye2QkhDhJEZ4+5HZj40eM39fcvsilNA2JlHC6KVtjLYv2k54tCRqCkeehSNfsLHfK3ckRgmCJEAJgaQAo4R6+f6L4V+//RL3881E9jaWieT2nK8VEJRQEgv5FYMjlRxKXEmjDZkO8jzVIVFCO23aeRMUKNqp086dNkT6Ojpg8IGB3qfbowMNQYRAQv9pKOGdEj2heaPmAwajRP4Vyyihx8ijHowSHiXhMynkKZ5yKN4+wKwa1RBWdiWQaKMkscWtBiVxIPGvReKPksSBRCxq3UsJkFCfUggRyoPE+SaJka+wrxEfX2Ffj/fz37eBQjjxkJIYJt9v7Bq3Q7V37Jx9EJHR79mGiBajQ+JCIkLen3xMvIOVH5OPibc5jj/Oyduk26HtS6KEtjF7pERuY7T9pDKFQyjhKRxCybTJY6FzoxMDlFCEEu86JdiDHkzotGAVJbX89SQ+SoKzb7AwSorEFroySuRCVzrzhvJBklOU0GjJxP6vxf18MxH/jjKZ3F7yq4I0dUNJLORHEhyp5FDiShgdKHj0gVFiT90wSmhnTjt12rBoY6QnAO0IaAdDBxtGCR2MGCU8UiIPTnwQoa/lJ1HUAcP+K5YeI0/dEEqi1pPw1A0vWrTPpliT9Sqs6IIg6Xo6ouQMRMkZsIbqcYY3bcNTN73PBHpdG3pNG+91bc4yIyRbPjwbQXI2gsRr+6BzECTnIkjORZCcB3uGngefDPMbfh7soxAFZoTEx4i3RsTDyBcMEQSGCeHBfT0h1jf0Fv8/4yQOKBZMgukcRMk3Sx6P26HKHTonDxx29Luj36WND0r+jm18UPb92I+Fitq52js22l607dC+H75Nvo0o+PJoHG1jFG1fBFp7u2GU2FM4/ErSCxcuhP7tm8VGSlJEiXdKcBglBBL74mkaSggkjBJ5SnBOUCIXuxqUYE9V+Cd8uX9n6HeZieTvKVPZ21N+ZM68KcRn31DyuZkshxJXwmgHTTtgRgn9pUg7Z9pJM0rk1I1ECT0haUdAOxiJEj5oEUa0URI6WPEOhJ5EdHt0kJEHC0IJHywIJfbUDT1mberGvuaEPJOC/+JdN7cvLO9yhg8SDyWrfZDQ4lZeSxKgxLymzTmQjW358BzECPbRuYiRc2H7wHNhx6BzYSe2CzGye/D5sHvI+YiS8xEk2PDzESMXwL6R56sg0TBC8PC6QO1bP/M5ExWc0G0KnBBMvppeHv74/afQzlTuzPn3qEW/L4p+dxIkGkI47XYo+z4p+ZgS7WDljo22F462SY7+H32dvG2+HW07ixopoe2Mtis5hWOm/PwpnKh1JYSSOXNmQ6emF4RQwtM3AUrk9I0PEp6+SYSS4OJpSVBiQJIhlNBoSe8296u/z5wmf/+ZTm5P+RGPlLg1JanlUOKKjA4edICnaCdMB/1kKKGdOm1YtCHSE5J2ArSToduSKOGDF79PH5d/PdPX8ZOIbi/qL1jtYBE1dSPXk/DUjb1gccOyibC82/mwoouHkZWIkVU9zoTV2JqeZ8FabH2vM2E9YmRDn7PgYwoxshkxkv3huQYjWz86D0FyHmwf5LUTIbJryAWIkQsQIxfCnmEXIkYuhL0jLoT9Iy+C/aOwkRfEQIJpIPmGQOLH8PhuIjbpQviWm+gXwCQCJwImX4y/An7/fluwE5U7cP792TEuOAaJ/btMJe327cfAj41KtKOVOzcNJrQNcfRx+nq6Tf5a/lx7O+OREolf2s5oe5KgTbauhFCyYMEC6N+tjRktsc++UVEiR0oUlNDUjY2SFxOhhEGC8XqS3KLkcWzX5hXq7zKn2dtAppLbUr7l1pSknEOJKzIajaAdr40SggCjhD4nVZTQgYphQvEBjOK/pnlnRF9LTyC6LftAkZOpG7mehKdu5HoSc1BZuwSWf3ANLO+MIOl6JqzqhnU/C1ZjhJG1Pc9GkJwNGz7Aep+NIDkbNvY7F0FyPmzufx5s6X8+ggQbcAFsG3gBguQC2DH4AkSJB5LdQy6E3YgSAxKMQXKAIpSM5BESDLFAaGCUeKBAaBBIECLU937fTcK3ky/0Qphw3wqgGJxEwOSX3SODnafcefPvTmaDgqPfH/8OE6V9LWXfDyUfBz8+LmonK3dutN1wjBIbJrRNUbzd8ufS/+NtjVHCI3ISvwRf2oYkSrR1JYQSXldCKJk3dy60ffSSlFDCpwPHoUSuKUGUtPZBEqAEQWJQQiFG8hIlVIcWd6i/x5wkf/eZzN6O8iOevinMIyWUfG4myqHEpUYHCjqwM0poR5wuSuhJQDsC2snQ7dFBiQ9eMnnA4h0HP4HotvggwShJ9NcrPVYeJUlr6mbTRlgxoDws63warOhypkHJ6u4eStb08FCyzoySnIUgoRAkiJJN/S+EbMTIlv4XIEiwARfC1oEXwvbBXjsRIruGXoQYwYZdDHuGXwx7R2AjL0aQXAIHRl8Cn1KjLjQjJGaUhEYvCCVjz0NAUP7oiI8Rb3TEx4jVDwgTSiLlWwkTWnMiYPL9ihbBzlPuvPn3JmNAyPh3l5O027PvUz4efpxc1M5W7uBSRQlDlz4mtzf6GANYGymhbY22K21diXa9EkbJ/PnzoWeHl7z1JAIlbROhpKZACYGEUUIgiUCJuXCahRI+8yZAiYRJLlBCoyUblmTF/Q5zmvzdZyp7G8qPCvuaEvl8TCWHEpca7YTpwJ4uSmiHThsWbYz0BKAnJe0MaCdDB52ogxPvhMyT2H/i0O3QAYUPEMlGSeSBImqUJGrqZvW4J2Bpp1MNSFZ0PcsbIUGMrO55NqzB1vY6G9bRKAliZANi5OO+58CmDwkkGGJky0ceRrYOvAgxchHsGHIRguQi2IXtGXYJdimC5FLEiNf+0ZeZDoy5DD4be3mAkkQgYYz8wADJugB+VLvQFOAkAibfzCgNf/zrx2DnKXfe8uDAvzuZ9nvMafZt2/ctHxc/Vt5OtB2t3MExSpLBhLHL27Xc3uyREhsltK0RbiVKtHUljBKawiGUzJ41E1o/eK6HEgSJRAldo8SghM68SYASGiVhlPAi11RREpwOnAQlIZgIkNgood585Hp1+8lJ8veeyeQ2lG+56ZuUcyhxxUU7BNrR5mSkhHb4dACgDZGeAPSE5J0B3a59AOKDEO8s+ElDGycfSOwDR6JREnq8cpREnnXDoyT2WTfrZneDJQgSWtxKIFnZjVFytkEJgYRab6ZtzkGUnAMb+10AmwdehiC5CLIHXIQYuRi2DroYtg26BFFyCezAdg65BHYjRqg9wy+DT0ZchiC5DPaNQoyMRohwY6/Atx5KGCRfjlNAghFIGCM/TYn189SLTD/i+yaGicDJtyGYXAj/+nJZsNPk3xH/njj7d6WhgtJGwKLSvt6+H/kY5GOj+DHz9qLtbHkHly5KaNtifNA2ZiOYPs4A5lE52tZo20q22FWegUMomTt3LnR8s3kwSpIMJa+niJJWNkpoTQmjhM68yUOU0GjJ2oUTQr+/nGb/3jOR3Hbyq4K00JWSz5P8iJ+LqeZQ4oqLdsCpooR22BpKaOOiDZKeBPTE5J1C1I7HPHn9Jwx9rQYS+6/WqFGSRAtc5dQNgeTjlTNgaZfzYGnn02E5gmRF17MRJWcjSrAe58CanucgSLzWf4AgQZR8jCjZ9NGlsHnApbBlwCXYpYgSbNBlsG3wZbBjqNcubPfwyxEkV8CeEVfA3lFXIEiw0VfAgTFXwqfYZ+Ou8hp9QWyUxIDEQwkhggqmaibTFI2Hkp+nIESwn+itjxIZ4ySAiRgx+XnD68FOk38H9u/HhoINCQ0c6WTfnn1/8rHIx8iPm7cZbWcrd3IaTGyUULx9yW2LikKwHCmh7cxe7CpRYi92ZZRMzZoEz993vDklmFDCF1ALpm8UlATXKEmCEnPhNB8lBJL8QslbjYrHbUs5Sf7OM5ncfvKlAgQSSj5P8jP5nEyUQ4krFO0M6ICeDkpoZ847dtrJS5RQ9ETgJ2jUDoKfLPR1USCRf8mmO0qiLXDdvGkDLO97EyzteBos63JWDCUIEjNKEqDkXFhPfXAubOh7LmzsfzFkD7rCQwlhZKCHkW2DL0eMeO0cdjnswnaPuBJBchV8Muoq2Dv6KgTJVQiSq+HA2KvhU+yzcVfDF+PxrTJKEqBkYgwk3giJB5FfEB6yX6d5/YJpMAkWws4uB3/+/nPc70MeEGwg2IDQkMHZ25T2OZx9u/b9ysckHytvN7zt2DtcuZNLByU8KsIo4W2L/k3bnY0SCWCCbqpn4BBK5s2bB7Nnz4ZWTSolPCWYUEIXT0uEkvCL8UWjhECS1yh5vNwRsH7x5NDvLifJ33cmk9tOflRQFrlS/PzI7+TzMVkOJa5QtENOhhLaQdsoSTRaQvGTIvRktZ4o9Pk2SOTBgv9ilQcHelwMknRGSQglK0c1hCUdT4VlnQkkZ8PybmfDim7nmBGSVYiRVT3PhTWIkbUfnIcgwXqfBxto2mbA1dgVkD3wctgy6HLYikDZNoS6EkFyJYLkSgTJlbAbMyAZcTXsHYWNvhpRgiBhlCBIPkOQfDHh6tAoyVeEEjoF2B8lkSMkNkh+ne71m//WJGGCnxvAxEzjXAS/f7U8+B3InbU8IEgYSDRosNC2o6i0r6fkfcj7lo9JPlZtO5LbEm9PvE3ZKNFgwlM4EiW8fdG2xdu/PTJHzxXa3mgbS3YGjjwtmFAyZ84c+Kh3Z3j+3qMClNCF06JRclR6KBGnA9Ml5gOU+CDJE5Rg7z5+S+h3l5Pk7ztTye0mvypIC13l8yO/4+djshxKXEF0EKADuoYS2glLlBAMNJRoMKHkxmk/OfhzNJDwgUKCRB4w+C9ZBkmqoyRrZ/eARR1OhaWdz0SMnGMwsrLbubCy+7mwugdiBEGyttd5pnUIkg1Un/Ng08CrIHuQh5ItAzEEydbBV/oguQp2DLsKUXIV7B6Ojbwa9mCfjLoGQXIN7B+Djb0GDowriiApCp9N8Ppi/DXeKcA0SoKZU4AZJf4oCU/ZBFM1NCoiQPKvGV70vgEK/X8JE/xauo1f1r0Y7CzlzloeDCQKJBY0TGjbUSrZtyPvh5KPQT42+ZhDO35lp8vbFW9b6aCE4StRQtsWvU/bnhwpYZTQtkYo0c7AkSgJTgv2UTJr1ixofM8FcSgx1yjxURKbvhEoIZAwShAkAUpoPclBRgmNlmxZMy/0u0s3+bvOVHKbya8YJYV5tEQ+F5PlUOIKIlzQzpVRQjtciRLaQUuUJBstofhgoG18nDxY2CCh27VBwqMkDBL5F2sqoyQb1y6ExV0ugKUdT4dlXc6B5V0RJVgcSnp6KKFREkLJxg8vhc2Dr4XNA6+GbMTJ1kHY4KsQJFfD9qFXI0i8dg6/GnaPwEZegyi5BlFSFFFSFPZTY4oiSoohSorB5xOoa+GLCR5KePqGURJM3VijJAQSGgkhdPxGEMF+n3kJ/D7rEvjXTA8nPGJiYMKjJTOKwx+/fWt2lHJHLQ8EEgMSCTYitO2HL56mpX2+fZvy/uTjkI9PPu7Qjl/Z6drbGCe3NQ0ltL1FoYS2L9reJEokgulMrkQoCV2rRKDklafrwKs1BEp8kBiUIEgYJa/ViEcJrydJhhJeT5IvKMF6vlw99LtLN/m7zmRyu8mP3EiJQ4krB9FBgf/ikyihnbFECY+WJEIJw4SSMNGyDxC0Y58+fTr069cPOnbsCO3bt4e+ffvClClTDCwYJHywYJDwwYFikESNkiwfUBEWtT8FlnU+B5YRSLp7EUhWIUhWi2kbM3VD0zZ9LoDNg65DlBTFt4gSbOtgDEGybeg1sH3YNYiRoqZd2O4RRWHPqGIIkmvhk9HXwr4x18L+sdciSK6DA+Ovg88mXAefT7wOvpx0HXwx/ioDEoqmbszVW+2pmywaKfGAQaMfBiQID4MRKx4xoekdOYXzr71jgh2l3EnzQUBCQALBxoO97WgIicr+Wvu25f3Kx6MdrEI7/ogdL+/oEm1zFG+3jGANJbyN0fZF/5Yo4W3OLJ6OQIl9rRKJko/6dIFH76BXCE6GEm9NCU3d2CgJX2IeUYIYCVCCEJGLXPMDJU3LHZmr18SR22imkttMfuVQ4lDiykG0k6adqoYS/stQoiTZaIkNk6jo/9MOvWfPntCoUSOoXbu2efvYY48FNW7c2HysVq1a0KRJE+jTp48Z/ZAHC3uUhEFCnyevS7Ji0hsGJIs7nmlGSZZ1Oyc2fZMAJZs+uga2DLnBHyW5BlFyDaIEG3INoqQooqQYgqQY7BrhtXtkMdgz+jrYO/p62Dvmetg/Dht7PYIEm3ADouQGRMkNiJIbECVXmqu45gYlf8z2ovfN6IlAiRldWVo7tKPknbQ8CEgESBxINMhtRkNHqsnbkbdPpYoSeZCJ2vHyji6nKKHtnfFrA4T+zR/jkRJCr0QJnYGTCkoI4jXLnArvPOChhNeTUASSOJQgRgKU8CgJ5YOEUUIgOVgooSmckd2eCf3u0kn+njOVfA7kV4ySgjB9I58b+ZlER7IcSlwmQkcilPBoSSKUaDDh5AGAo9t/66234MEHHzTwoB599FE1Qomsbt260LVrV/OYbZDQxwglPG3D1yVZt3wmLOpwFnYaLKFRki7nIkrOhRWIEWpl9/MQJechSs5DlBBIzoe1vc+HDX0vgezBJbypG8RI9uBisAXbNgQbWgxBci3sGH4d7BxxHewaeR2CBBt1HaIEQTL6BkTJDQiSG+DAOGw8RihBkHw+qTh8ObkEfD7u8kiUeJeQ5zUl8SgJpm5E9DGavglGSqZeAv/+7uNgJyl30nwAkADICUj4RfgSZX+NvD15P/L+5ePSDlahnb+y4+UdnYYSCRPeTiVKeO2SPVXD6GWYyI/RdqahRLuqq0TJjBkz4JlH7jYLXuUi19CL8dWIR4l53ZsUUEIgORgoaXH3ifDLT98Hv7tUk7/jTCe3mfzIocShxJVmtBPgnSztXGknyzCxUZJstETCRMMJN3HiRKhTpw488sgjcTVs2FCtQYMGcRFk6GwGPjAwSOxpm23btsKSvrfDwvdPMSAJoQQhQq3scT6s6nk+rO51PqwhkHxwgWnToBIIkRsRJMUQJsXw/Wthy5BrESRe24ddZ1Cya8T1XiOvR5TcAHvGFEeQlIC9Y0vAvnElECUl4NMJ2ESEyCTqRkTJjfD52EsSooRhQigxMEFoBGtKBEx4hIQ+ziihUZJf178U2knyzlkeBOTBPy9Awsmvk7cp7ysvUEKlgxLappOhhLYxfr5kAiWd2r4EDcrlDCUGJBIl9wiU+OtJDEoIJGmiJABJDlDSFFs4qW9oW0sl+TvOdHKbyY8YJG6ha2o5lLjMDliiRBstSYSSKJhInHD0/959910DEoZF/fr11erVqxfXww8/HBeNmowcOTJ0sLAXty6d+I4ByaIOZ8JSxAi1vNt5sLw7gwRDkNgoWf/hlZA9tBRkDyqOGLkesodcD1uGXg9bsW3UsOth+/AbYMeIGxAkxREkxWHPKGx0cfgEMULtHXsj7KfG3QgHxt+IKLkRPsO+mFzS9NmYi80L8Zl1JfZCVx4twUKjJVgIJn70b3mdkp9mXAv//uWLYAcpd87yIGCDhJJQkNuLhIWNjv/zf/5PXPbnyK+XtyvvLxFKKO0Ao+145c4uVZTQNpoMJfRcYfjKKUPa3hglfAG1VFEyYugAqFK8SOxqrhivJwmhxF9PYlByn0CJWE+SE5Tk9gX5NJRQ7zYtFfrdpZrcVjOV3F7ytUIMEko+D5PlUOIyO1rawSZCSbLREgkTDScUfe7zzz+vwiIqAocWoUb20EMPmcWxEiTBtM2qBbCg43mIklNhCYGk63mwrAuCpNv5iJLzzQiJGSXpcQGs7nkBrOnljZCs630RbBp8k0HJ5oE3IEpuQJAUN23Ftg/DhhdHkJSAHSNLwK5RN5p2j74R9oy5EUFyowHJvnElESTY+JJwYGJJ+HTSTfAZ9kWW16ejzg9eHdhDibhOiX95eYIJo8SGiZ35f/4oyW/beoR2jnIHzTt/eeDPKUg0jMjk51KpokTCRDtgye9N2/nKnV1eoYS2N/53blBC60qq3nIatLrPR4l/fRIDEjod2EIJL3JNhhI+8yYSJTxKkkcoodGS/bs2hn5/qSS31Uwlt5d8yx8lKQgwkVDIz+TzMFkOJYU82lBpp0o7VB4tYZQwTDSUJIKJxAkDhT7WsmVLAwgNFRTBIlG09kTrgQceMN1///3Qu3dva9pmG8zvVxXmtzsFFnU8B1FynocSTKJklYKSjwdcB5uHlUGMlITNNIUzBBtaArYMLwFbse0UgWTEjbBzJFUSUVISdo8piSjBxpaEveNuQpTcDAfG3wz7J9yMIKFKwWeTS8HnGI2UfDry3BhKxBSOPC2YYCJHSyRM7IJTh2fdBH/4V27leOcsd/45QYkEhoYQLfk1fDsSJvI+DyWU0HbGI3S5mb6ZNm0aNHmgDDx2V5FIlESdDhxCCYKE4lGS4HRgxMjBQsnI7s+Gfn+pxL/jTCa3l3ytgKCEkljIr+TzMFkOJYU82vHaKElntETCRMMJA6Vdu3YGDolQYUfIsKOzcxJVo0YNA5Ng2mbmQJj/3smwsP0ZsLjz+bCk6/mIkvNhGYGk2wWwHCGyAluFGFmFGFnd60JEyYWwrs+lCJJbsdKwaTCB5EbT1mElTduGYyNKIkpKwg7EyE7EyM5RN8Hu0TchSG6CT8ZiCJK9iJF940uZDkzw+syg5Bb4Iqu0WVdCKPl01HnWFI4/WjL+ApOBiZjGkTix+wmjs3V+2zXI7ITkzpF3znLnb4OEkkDgbUVCQgJDwuP//t//G0r+PyoRSqh0USIPNNqOV+7sMokSRgijhBCcCZS0ea4B3H+LjhJzjRICCaOERkkYJQQSgZIXDjZKBEioZ+89HX8fv4d+h8mSv+NMJZ8L+VVhX1Min4Op5FBSyCOE8BC0hpJ0YKLhhJo0aZLBQiqosKPTgLVq1qwZF90Hde+995qh8OzNm2B+1+thfruTYXGn82BxlzBKlnW7EFFyIaLkQkQJhhhZ3esiWPPBRbBxUEnYMuJ22Dz0Ztg0pCSCBBuKHzMouQm2jrgJQeK1AzFC7Rp9M6LkZtgzthSiBBtXClFyC4KkNOybUBr2YwcmloZPJ5eGzwgk1ITr4cAIREmC0RKaxmGY2DihBbAywogBy5zb4I9//8vshOQOknfOcuefCCVyW0kXJJz8HPm1hxNK6FRgeg7ZpwSnep0SRknnd1+GStd5KIm/vHwMJTRKkgpKzJVcM4gSCRKDEgGSRCihNi6fHvodJkv+jjOVfC7kVwXlzBtOgiE/ks/BVHIoKcTRk5T+wmOUpDNaEjWVY+OEbo+gkA4q7KpXr65WrVq1uAgkFStWNAto5458BebRKEmHM2Fx5wtgSRevpV0xGiUhlHT3ULJSoGRdvyth8/DbIXt4WdiEKCGYZGNbhnltHY6NuBm2j7wZdmA7R5cy7cJ2j7nFtGfsLYiSW2AvQsSAZGIZBInXp5PLIEpuRZTcCp+NLwr7fZTwaIlcW2LDhNeZhM7MoSyc/LZ3fLAT4p2j3Dnzjp8P+BIlDIN0UCIRwv/Jj+UVSkI7f2XHK3d2qaKERvZSQQk9Z+i5Q6MjhBHCSaKLpyW6oiujZEC/HnBn0SPh5WqZRYm5kqtASQCSfETJoHaNQ7/DRMltNZPJ7SW/KkgokVjIz+TzMFkOJYU42vnSjjQZStKBCcc4efXVV1VQUBoqqPvuuy+uqlWrhiJ83HXXXVC6dGkoXrw4XH311XDppZfCRRddZCpWrBjMe/88RMkpZtpmcZcLESNeZoTEYOQi08qeXqsQJKt7XQwbh5RGlNyJILnFgMRDSSkESSkESSnYNgIbeQui5BbYMQobfQuipDTsGlMaQVIGQVIGQYKNxyaUgX0Tb0WU3GY6MOk2RElZRElZ+HxKWTgw9ipEyTkhmPBoiQoTa9TE4IRGT0Tfz6uEO6D4F0GUO2fe+aeKEgZEYUEJjfAxSmg7j0IJL6YmjBBMkl1mPuq1bxglEyeMgzuLFYEnKxZRXvNGoAQxErzmDYMEY5DIRa4SJWaU5CCh5Jkqp+LvJLUpHLmtZjK5veRXhJLCDhP5PEyWQ0khjqDB8+GpjJbYMGGcEEwkThgodPbB3XffHQkLxkUqValSBe644w4oWbKkAcjFF18cAETrphLXwLx3T4YFHc6GRZ0vMChZ4qNkKaOkO2Kkx8UIkosRJBcbkKzrXxQ2jywPm4eVg81DSuFbhAmWPbw0bKFGlIatI25BmCBGRpZGlGAIkp2IkV2Ikd1jb4M9425DkHjtnXAboqSsaf8kRAhFKEGQEEr2jb4U9g0/x0zhaNM4EiaMk68RIl8TTPCt1q/7poZ2QrxzlDtn3vnnBiUMjcMVJYRqRglt88lQsnnzZlMylMhXCZ49e3YIJfRyClVvOR0eKRdGifeaN+mh5HkfJWbqJh9QEoCEUlBCpTqFI7fVTCe3mfzIocShxJVCtLOnnWmqKEkGE4kTBkqrVq1UYFCEDLt77rknVOXKleG2226D66+/PjQKkkpP1jgX5r13KoLkQtPiLhchSi6CZd28liNIDEoQJAYl2OoPLoZNiJHsURVh49BbYfPQ0giSMgiSMoiRWxEjXtuokdioWxEkt8JObBdihPJQUta0dzw2ATMgKec1uRwcyLodPsU+m3I77Bt5oUEJRaMlKkyicEIhTmTfzrrL7AR4ByR3jnLHzDv/3KCE0lBix58jUSJvj+9D3i8/FipdlGg7QwaJRAmDJBFKaDtmlNC2nwwl9CrBGzZsSIqS+fPnByiZOXNmCCUPVrgMHiiVHCU8dROgREzd5AglCkhCKLFBkgOUDHzv0dDvMSq5rWYyub3kV4wS3j4PZvK5kV9JcKSSQ0khjXbKNNycW5hoOKHo9mh6hXGhRaMoWjQiQlMyl112mQqOZF16ycUw9pVTYUGHc2BRJwSJQQmNklxkMjDpfjGs6IH1vARRcgmi5BJY/9H1CJJKkD3yLtg0tIyJzsDJHo6NKIswKQtbR5aF7dQobExZRElZ2Ilvd44tiygpB7vHlUOQ3A6fjMcm3I4owSYhPrD92IHJd8CnVBaF/2/YOSYPJWGYhNaY+DChvkScUAwU2S97xpsdAe+E5M5R7px5558qSqhEKKFSBQmVKkrk49MOWvy90TY6ZswY87IFzZo1M2dv0Tol2v4YvDRlSFcGpmvl9OrVy+CAFrUySujifslQQvdDz4tkKKFRQkLJqlWrzJk3Gkrmzp0boIQWZjNKGtUoCVWLFzEgsc+8oXK0nkSixAfJwUBJy2pnh7a/RPHvOJPJ50N+VdhRQmn4iMqhpJBGO9xkKEkFJhpOKHpl30qVKoWiBah2FSpUCCpTpgxcc801KjTS6aEK58Lcd0+DRZ0vMtEoyWLEyJKuF8PSbhcjSC4xLe9xiUDJpbBxeHnIHn03bBpeDjYNu82UjRFGTCPLIUrKwbZR5WD76HIIknIIkli7x90Bu7A94+9AkHjtnXgHgsRv8p2IkrvgQNZdCBJ8O+lW+MRHiYEJxjCxF7/GjZwofTW1NPz793+ZnYDcEfHOUe6ceccvD/q5RQlnY4STX2eDhJL3mwgl/D0QKIYMGQJNmzY1C6L5CsFR2VcMpovz0Snpb775poEDX3GYFrkmQwk9R+j5Qs8deh5pKKHTgRkldOZNMpRMnToVsrKy4ImH74S7isZQ8ppAiRklSYaSyjGUBKMkBQQl1Cdb1wS/y0TJ7TVTSSzkVw4lDiWuFKKdKy/OSzZaosEkEU6oxx9/HMqXL59SN998M1x++eUqMHLSgOdOhfkdzoOFnS+GxdiSLhiBpKuHkWXdLzUt73EpouRSWNnrUlj/UUnYPPoe2DyyImKkbBCdgZM9ohyC5HbYOuoO0/bRfmPugB1j74Cd2C5sN2LEhBjZM+FORMmdsG+iH4JkP0EkqzxWAQ5MqQD7x5eCPUPOSQ4TUwwnMomSn7b1D3YCckfEO0e5c+YdvzzoMwQkTOQ2w5BIBSZ28vPl7fBtayChbJBQBAZ6VWmCCMFCezmCZPEVgznCCeGGoCDPvCGUELJp+06EElrgumnTpoQo4TNvkqHkuSbV4I6iRxqIxE3dEEgwAom5kitixKCEQIJ5UzdF1KkbFSUMkgiUBCDJIEqyBr4d+n1GJbfXTCbBkB8VJJRQEgv5lYaPqBxKCmk85GyjJBWYJMMJ/f/bb78d7rzzTjWanqFKlSoFV1xxhQqLnHZ3mfNh7runwsJONEpyMSwikPgZlHSjEZLLYIXfyp5Yr8sRI3cjSu6FTcPvQIyUM6cEbx5xO4IEG3kHosRr66g7YRu2YzQ2Bht7J6LEa9e4OxEkd5n2YJ9MLG/aO6k87KMQJPsJJNinUyrC3rHFYTeiJAQTWl8SwMTDiVkEizChCCcaUD6fUAz+9esPwU5A7oR45yh3zHLnnwgllNxuJCgkNDSIUPJzKPn18nbl/cnHIVFCj3vs2LHm+jU2KlLNfrkCO5r2efrppw0wCCW0PopRQts6PQcSoYQXuSZCCS9yJZTwIleJklZPPgB3XHMkvFo9jBIaJUkFJS0LOEref/K20PYXldxeM5XEQn7lUOJQ4koSPTlpqJl2pFGjJYlgEoUTBgr9JUgLVAkmsnLlyplomuaqq65SUZHbOjU9HeZ3ONeMkizqcgksRohQS7ClCBIzSkIjJAwTRMnaATdD9phqkD2qMmwchihBmGwecacpe+SdiBHqLsQINtpr+5i7ECV3wc5xXrv8PJCUhz0EkkkVECSx9iFG9mVVhANTKpk+GXUN7Bp8DuymbJxgjBO5CNa89YHiIcXru3Vvmyc07wTkTkjuIHnnLHf+mUBJKsmvpfg25X3Jx8CPiyIYtGjRwoxoaC9RkEraSxdERfAZOHCgmbqxUULPB3pu0HOEnjcaSuxFrqlcOI3WkxBKWj9d16CErlWiocSARE7dIEbipm4wAknKi1xTQIkEiUGJj5E4lCA8okBCPX57Efjlp+9D26AWb6uZTD4X8itGSUE4+0ZCIb+y0ZEsh5JCGC3qI5QkgwnteCVMGCc2TGycDBgwwKDE7tZbb4Vrr7026em8Oe2WGy6EWe+eCgsQJAFKfJgwSpYalFwGy3tejiC5HFb2vAI2jawC2WOrw6YR5REkiBGKQDLiLrPodcuo8qato8vDtjEVYNvYCoiSCrAD3+4Y57VrvNdubM9EqiLsmVQRYVIJQVIJ9k+uBPuw/YgR6sDUu2H3sEsMSiJhghgxOPEXwdJbM2rCOPHf7h95Afz2/R7zhOYdgdwRyR0k75zlzl8e/DWUUHL7sXGhAcTO/hp5e/J+NJTQaANdDZiwQCjJRPLlDKIimLRq1cps84RtGyX0POERR15Pks7pwBpKJk+eDC+38FDSqiqiBDESoARBEqCEQCJQEnsRvoKPEiqVU4MlJjKVfC7kV4UdJZyNj6gcSgphNF9Of9VpKEkEk6hRExsobdu2NQChERGOri+S07NpUq1NvTNgXnsaJbkkaHGXSxEll8KSbl7Lul9mUEIRStZ+VApBUhM2j66KIEGUEEwwulZJ9sgKpi2jKiBIvAxKxlREmFRElFSEndS4irBrQqWg3dieSXebPsH2Tq5s2p/lN9Vr5+BzYeegs2HXoHiY2KMmjBNuf/D+ufDlgkbBE1ruBHhHJHeQcgfNO38NJZTEgr0N2cigkkGEk7cj70PeNz8eOlDTWTMaGuRrIqUav3xBOjVu3Ng8V2jbpu2engf0nKDniY2SnJx5Y6PktZaPGpS8cK8HEkqdulFQQlM3hJIQSCRKfJDEoUQBSQglNkgslAQgoRAdyVAyoe8rIYBoyW01U8nnQn7FKJE4OFjJ/UN+JtGRLIeSQhgtRKUdaKowkVM59qiJBhR6NeBbbrnFROtG6OqqGiIyWdErL4apb54CCwxGLoVFCBFqcdfLECN+CJKlBiSXwzIEyfKeV8ImxEj2uNqwcXglREkFBEkFBIkfYoSuWbJltNfWMZUQJJVgOzX2btOOcXfDzvF3I0a8dvt5IKmMbyvDJ4SSrHtgX1YV2D/Fi9aXbB94lkGJhImGkz1DwzgxIyiiH/fODp7QckfAOyK5g5Q7aHkA0GAiwUDZ25EGjkTZX2/fvo2S4cOHG5BoUMhJ9ksdpBOdrUOjIIwSek7Qc0RO3SRb5JrKmTeEktZPP2xQ0vIwRkmH5reHtj8tua1mKvlcyK94lKQwj5RIdCTLoaQQRqCQKEkHJhpObKTQdSJuuukmuPHGGzN6Vk2iHr/vbJjz/jmwoBNihFDSJTFKaPpmDY2SjHsAssfUQJAgSkZgIyshSDC6XsnoSoiRWISSrWM8jGwfV9m0A9s5HptwD+ya6LUb24N9Mpmq4oUg2YsxTD4ZX9aghNqBKKHiRk18nNhA4WgkZf+EkvCvf/0WPKHljkDujOROknfQ8gCgoYSy4aBtTxpAZNrX2Lcr75MeA72II11kTwOCzH79pFTj11VKJ4IJPWeiUJKTRa42Suj7bvXkgwYlz1cWUzcSJYgRXk9CGZBg3tSNt8g1hBLEiIoSBkkESgKQ5AFKnqxwrDl9XW6DMgmJTCefC/mVGymJx0dUDiWFMNqZ0g7UHi1JBJNEOLGRQiihq7BecsklKiAy3SUXXwQjXjoV5iNIFnS+DBZ2uQxRgiFIPJRcDkuxZd3xLYEEW2FGSapD9oQHzZqSjSPuxreVESTYqLvN9Uq4LWMqI0Yqw7axXtvH3WPaMb4KgsRrFzXRa/ckr08og5J7ESRVTfumeO0efRNs+whRQgmcRI6caEDBvl77vrlKqXxS845A7ozkDlLuoOWBIDcwSSf79uR90X3TQZwueKbBQMavoZRO2mstpRK/VAJN5dDzgp4P9JanbiRKtPUkyRa5SpQ8+1g1uN1GSQqjJPb1SQoySqgdG5eGtj+Z3EYzmXwe5EcFaeqGk1jIr+T+KVkOJYUw2onSMHM6MEmEExspdL0HDQ95VY3bz4U5751tQBJCCUYoWeyjxMCkxxWwvNcVsJpGScbXgexx9yNIKhuQmEbdgyi5BzFyD2wZXRlBcg+CpApsHVsFQYKNo+5FkHjtnFA1aBc1CcExuSrs8fuEQoxQBiaEkqn3wc7hxWBr/7MMTAxOfJioOBFAYaR4758Lv3y7KxIlFO+I5I5S7qTlgSAKJZQNCUrbthKl3Ya8D7pfWrdBIyQaDDgGQm7TXosplehFJun5IFEip254PUmyy8tri1wnTpwIzRvebVDyHKOkehglZpQkTZQYkGABSNJEiQSJQYmPkTiUIDZSAQm1cFIfdTtxFe4cSgphtPOUKEkEk0Q4kUCRUKHLeGt4yKu6P3EazO94CYLkcljQ5XJEideirpcbkCzufgUswZZihJJlPa+ATaOrwZYJDyNCqsHGkVXwrddmLHv0vV5j7kWUYGPvRZTcazDCbR9XFVGCGJmIwJhYDXZxk6ohSrz2UFnVECPYFNHUarB9yOUGJRSNlgSjJgPCOFGB4iNl/9Sqweu5JENJXsGE0rYxTvt8yr5tuj96jHTlVQ0CUcnXU8qPaASHXiJh8ODBoakbiZKcrCeRKGnyYFlvpOQeZeomAiXB9UlskEiU+CCJQ4kNknxCydCOzdRtxlW4cygpZNHOn4aYU4VJIpzYQOHost0aHvKiW2+8GGa9eybM73wFguQKxMgViBGvxZxByZWwtIfX6n43wpaJ9SF7Qh0Eyb2IkapmwSudgeN1H6LkPsTIfbB1XKxt4++D7aIdE6rBDoTIToQIRSAxKGGYZFVHlHjtnYJNrQ77ptbAtzVgy0fnwhYECcU4CUZNGCcKUCRSvt70YYCSKJiki5KcwiSd7Nvk++rRo4c56GsY0KLPTTd+scd0s1+3iW6LwMEokVM3hBIaJcnJehJCSd17isHtVx8JLav4oySIEgJJ8KrADBJeTxKMkmQIJYiQEEpskFgoCUBCITZSRcl7zUqr+yhX4c6hpJBFByH6ay4ZTFLBiQ0Urk+fPiog8qI2D58Bc9tfBAtCKLkyaDHVzUPJEh8lH4+oClsRJZvH1oKNBBJs86j7DEY2j0GQmKohSqojRrDx1REkXtupCV47JtaAndSkGoiRcLsn14BPsmrAnik14RO/vVMQJNgnWffC5n5nmrI/PDMEE4mTACkMFNnAc+GX7w8kRUluR0soGxGUho1kabfD90GYvct/Acdk2UDIadqLQaYSv5bTU089FZq6iVpPQqMkqa4nmTBhAlQve34YJSmMkkSiBDFSENeTUM0rHm+2AW0/5Sq8OZQUsujARDtODSaME4JJ1KiJxIkNFI52shogMt3VV14Kk147DeZ3uhJB4rXQdBWC5CrEiF/3qxAjXst73wBbJjWELRPqwSZEyMbR1cxUzmZqTHUTXUhty9gapq3jvLaNj7V9Qg0DEoOSSTW9JteEXZNrIUZi7cnCptRCkODbqbXhE7/d4+9CkJwB2QwTgZMooPAUDyPlk6k1gpfgzwRKksGEskEhSxUhnH3bzZo1UwGQLPmCj+mkvThksuSLR1L0uk2jR48OUKJN3aRzfRIaJSGUVLj+WIMSuk6JHCUJUIIgCVBCIPFRQiDJi/UkeYUS6qsDO9X9lKvw5lBSyGKUpAMTiZNEQOHo6/LjVOCG95wDs987D+YhSuZ3liihURLECMOEUOLDZP2wyrBl8iOwedwDsHGUBxI6C8dgZEwNBImXQcm4Wqat42vBtgm1ECPYxFg7JtVCkIgQIruyEB2iPdTU+xER1AOmHaPKwKa+Z8BmCnESjJowTj5EnGASJzZSvtrQJw4lBxsmqaTdJh28aZREg0CibCSkkv1ikLmNLuJGzx05dRN1KnDUehK+PgmhZOTwoQYkVKsEKOFXBTYgwXI8dZMCSiRIDEp8jMShBJGRDkiojcunqfspV+HNoaSQRQcl2nEySmyYME4IJhpObKDYSOFoeFyDRCb78OlTECSXI0iuQpBgiBBqoelqWNTtakTJ1bCku9eyXtfClkmNECWNYOPomoiRGqbNiJHNdFVXLHusBxGDEVNt07YJXtupibVhBzXJa+dk6n7YRWXdD7unPBBqD4UY2UtNewC2DisOG/ucaTI4MTDxcGJg4uNEAiWbkUJvsZ++3pkRlCSDSRROKA0dUWlfT9HtP/roo+oBP68jCCWLXkCSXq+JrlBMlS5d2kQXBuS39LIKOZm6sdeT0ChJr27vG5CUw1rfl2Q9SWiUJI2pG4kSBST5sZ6Emze+p7qfchXeHEoKWXRQoh0nw0SOmESNmkic2ECJgsorr7yiQiJT3VHqMpjxzpn+KMnVsLCLn8DI4u7XePW4BpZgawdXRJA8BtkT6sHGMbVgE4UIobUlm8fWNld2pbaMu99r/P2wlZpwP2ybeD9iRDTpfgSJF4FkJ2JkZ9YDiBKv3VMeRIxQDyFIHoJPuGkPQfaAy+FjHyUmhAnhZFOfME40pFA7xpSFX3/9NUDJwYRJTuPbpe2PXqwxVSTY2a9AnWr8StUUvS7TzTffDMWLFzdXH7766qvNSyKkep0dWueSztSNdiowo6Rtm6eDkRJaT5JolCSVqRsVJWmMkuQ1Skb3eE7dT7kKbw4lhSw6ENCOMxWYaDixgSKTSKGhaG0HnqleffgMmPP+xTC/09X+SEkMJZRBSTcfJdhSREn2xEdgS1ZThMiDiJLa+NaLQGJQMvZ+c92SLeMfwB5EkGATHoRt1ERs0oOIEa8d1ORYO7MeRIxQD8FuCjFimloHUeI3rQ6ipA6C5GzY0PsM2IjF4QRhYkKcGKiYkRQPJvz2wOJXDUokTFJBSW5hwmnISDX7tuj0cQmEdLJfhTqVypYtawBCF/ejV6rO1AX+xo8fH4ySpDN1I9eT0G20fLy2GSUpX6xI2lM3GkoK8noSqufL1dT9lKvw5lBSyKIFiIQSCRNtOicKJzZQEkVz+NoOPLdddcWlMLHNqTDPgOQa04Ku18BCRAi1iPIxsqR7UdOq/rfB1imPw9ZJjyJEHjAwoTaPox4w0SXnCSNbECEcoWQrgWTiQ7CdmuQ3+SHESB3TziyvXVNkdREl2NS6iJGHg3ZNrgHrPzgDNlCEEg5R4gEFsSIKkOIDhfpm16w4lORktCQVmCTCCaXBQ6Z9DUcvDElTIBINNFWSkwgbUdF93HDDDXDllVfm2StUN2vWzDyncjN1M27cOGhU8xaDkqrFfZQIkLzMIMGSTt1IlPggiUOJD5JEKJEgMSjxMRKHEgRGuiChXm9QTN1PuQpvDiWFMB5m1mCSDCcaUqLq27evugPPbfUqXwQz2p4N8xAj1PwuHkoYJgYlWICSHkVhIwJk69QnYNP4hwOQbBr7EGLEb/xDkI1twbZOqANbJtZBwHhtw/e30dvJdREjdREiflmxdvoRRgxIECO7pz6M1YPd0+rBnule9MrC63udYWBicILvG6BgMaB42UChNvc7F3756dsAJVGjJfkJk3Tj2xwyZEgAB5pCyUm81sOO1npcd911ef7K1BzdF2FEjpKke9YNoaRKqTMMSh4sldooSdrrSXyQSJRIkOTnehLquapnqPsoV+HNoaQQRqigv+gohkkqOIkCSlT0+XTaprYTz029nzoF5ra/FOZ3Lmpa0MWva1FEidcixMgifLsY3y7vfSNsm9Yctk5phhCpA5vG1UGIUHURI3URI15bJsTaOtFvktd2bvLDph1ZCAxqSj3Y6beLQ4hQhBGv+rDHb8vwWzyUcIQTggmnAGWDH6Fkx/jK8Msvv6goSTRaki5MonBCadBIJft26OqtGihSrUyZMnHRupArrrhC3W7yuv79+wejJNoF0xKddUNTN4MHfmhAQjUs64EkQAliJEAJgwRr6YPkUJy64f766z/qfspVOHMoKYTR2TH0F52ESSo4sYGSSjQ0femll6o78ZxUpuRVMO3NU7wREpq2IZRQCBINJoSSdcOrIkpawOZJjRAkD3uNfxhB8jBkT/CiS86bJnptpSZ5bZtcz7SdQohsz6qPIBFNqY8owabWR4zE2j2tgdd0rz3YxgFFYW3P02EdAoQKAcXPBopBiv9236LX4lCSKkwkSnILE60ofGj98MMPULJkyThU0FRLutEaEVqgmsntLCc98cQT6gJX7YJpNEpiT920f/ulACXNykdP3SQdJZEo8UGSE5RIkOQlSn789gt1P+UqnDmUFMLo9Wl4qJlxYsNEw4kNlFR7+eWX1Z14Tnqm9jkw491zESVFYR4iZH6XYogRrGsxhEgxWMR1LwaLexSDJT2uhS1ZT8BWRMmm8fWxeogR0YR6kD3Ra4vf1kn1g7ZNxrfYtqwGiJEGiBC/KVRDxIhoakPECDYt1m7RnukNYV3vC2Btj9O9BE7sJFAkWL7YMtGgJNXRknRhEoUTSsNFTqLbopGCUqVKmWkWit5PN0JN0aJF82ydSLrRdFIqC1ztqRsaJRk7diw8/3itACUtq6Q6SpLG1I1EiQKSRFM3BiU+RuJQgrDIKUioT3dtVPdTrsKZQ0kh7LPPPjM7T4IJ48QeNdFGTjSkpBJ9Ta1atdQdeTpdfPFFMKzlyTCn/eUIkmIwDyEy32+hjxKGyWJCCbZ6YHnYNv1Z76yb8Q0QIeGyJzZAiGCTYm3Ftom3BBIPJQ1NO6Y8EmtqI8SIaFojxEgj2D1daWp9WN39NFjTg/JhIlrXE0FCIT6CrI999+VO+Pnnnw8aTDgNG1FpX//ee++ZEQ7qpptuSquChhGOHg+NhvAoSSoLXAklNEpCKHmg4lUGJOWLHRmAJBFKGCSH8tQNlb16trqfchXOHEoKYd9//70ZYrZhInESNXqiISVZ9DW0k6azJLSdeardXfZKmPrGyR5IOIkSCRMfJRvHISZmPIcAaWRQsml8Q3y/IWRTE2NtwbbS5ecnPwJbsW1cltd2BAi1Y0qjUASRHdMeRYhYTX8UIRKOXjeHUMIxThICBVvrt+GjovDjjz/CTz/9pKIkNzDJKU5y2sMPP2xwYXfjjTcmjKZpMnUab17Uu3dvM0qSygJXOXUzbOhguP2aowxKqpeMoSQ0dSNPA44aJZEo8UFS0FGyYfEkdT/lKpw5lBTC6KBAKGGYaDiJGj2JgkpU8mvoL0Y600LbmadS6zpnwIy258C8zgiRLteaFlBdsW7XwsLusRb1uBaWfFASts9sCdumPQObJjyCGBFNfASyJz0CW6y2Tm4EW7O8toVCVCBCqB1TG5t2ctOw6V67rHZzMxpD9sg7YVW300zxOIkBRUZA4fe3jK9t1mIQTFIZLUkGEw0nGkw4GxY5iW+LpmwkNkqUKJEwuq5Ifp1Jk5tat26tjpIkWuBKoyTvv9UqmLqpf2vyUZJEC1xVlPggMShRQGKjRILEoMTHSBxKEBW5RcmyGYPV/ZSrcOZQUkgjJNDcdxROooAik+Cw0z6fbod21NWrV1d36Im65JKLYVSrE2F2+8tgvkCJgQmhhGKQ+K0dVg1R8iJkZzVDhDwaa9KjCJJHESHY5HBbsW1ZjWHblFjbgx5DjHjtnNYkrl3TvXbbzfD6eGBJWNnVQ4mGEwkU79+nBxFKdsx+0YxyEUxotCSvYJIMJ5yGDjvt67766isz4kFnymjRNUVkdIXVgjZVE1XDhg2TjpLYC1zHjBkDTzW8x4Ck7FWIhQrKKAkWXJsESzpKgh0KoyTU4qwP1X2Uq3DmUFJIoxfOo7lvgomGk0RAkUXhQ4tvi26b/qJM5y/fKmUvg6zXToK5na+FeQwShAhFIFlIIyXYou7XmRZj2VlPwvZZrRAijyFEGiNEwm3hJjeGrQiRrVmPmbZRU5rAtqmxdoRqCjumUYiR6U1D7aJmUI8jRMKt6XO5QQkncWKAIt+3sEL/75OVfeG7774zMElnGienMKE0VOQ2Wmd07bXXmtEPO7reB0efcyiMjsiqVKmS9igJvdJwlVvONCi5AyOMJB8lUVCCEDnUpm6ouWO6qfsoV+HMoaSQ9sUXX5i5b4KJhpNEQMlJ8rb49ukvxTp16qT0V/CrdU+HqW+dbUDCGZAgRDiJkmX9boPts1vD1mnPIUiaIEKwyeG2YFu5LIwggvHbbVOaIkhieRh5PGjndD8EB0cYCUAysxnswugt/Xtl1zNhRZfTYAWChDI4QWxQBJEALOJjsgNbZpqroBJMkk3j5AQmiXDCachINb4NOlDTSAmhg6N/y6655ppDZnRERuum0h0l6dn1/WDqploJeiG+2CgJo0QbJdFQwqMk2tRNFEhCKLFAYlDiYyQOJQiKTKBk2pB31X2Uq3DmUFJIo4MDDTMTTDScJAJKusnbofj2+T5pB82vgaIdiIpdczkMf+EkmNnuEsTIdV5dveZjC7pdhyDBECPUoh7Xw/rRdQxKsrOeMCjZPPlxhAiW9ThsEW2lpjyOAPHfTg23fWoz2D6tGSJENL0ZYiT2ltpFzeCeCNo9E9/OetJc32Q5gUQmcZJCn+/dBN98842BCU/j5BYmOcVJbqLRARshMrocvL0NHCrR+pd0RkkIJc819U4FpqmbBrcpoySH6QJXbsrAt9R9lKtw5lBSiKO1HwQTDSc2UCgbF6lk34a8fb5Pfgw07E1/XQ4bNsxcor579+7QrVs3GN3mIpjc5gSY24nOuLkeIeK1oNv1iJDYWxOCZHHP4rBt1kuwfdbLCBIfIwYkzYK2+NFVXk2Ij21Tn/Ca9gRCJNaOaU8iQGLtpGbEt4uaGWu3KHt0FViGEKEIJ3FAoRAeNlK8j50KK7ufCV9++QV8/fXXBiY8jZNsfUluYMJpsMhNI0aMMCMhWofadI0dvchfOqMkNHVT7bbzA5Q8g+CwUSJHSdJe4CpRYoNEQYkEiUOJ62DkUFKI++STTwwEKBsnNlAoGxjJsr9e3jbfH2OEomFviv7SpGjnPmtsJ5j06gmQ9fqpMBdBMg8xQjFKQiDxWzmwIuyc+xpsnf48bJ6MCJn8hBkxobZMeTJo61SM32LbsO0IkFAIEG7H9Kdgx4ynECB+M712mZrj+83N293UrHAbBpeBZZ1OjdUZgYItt0OcBGhhlOD7a/pdb6bcaJFoJmCSE5xwGjQSZX89oYQO3jIaHTnYV2TNVFHXJdFGSXjqhkBS6Vp/6kaAJO1REiydUZKDPXVDTR3cVt0/uQpnDiWFODpYEQIYBRInlEQEZ0MjKu1r5W1HQYQxQtHOfWqPqgYl0985D+YiRKj5XW8wLegWa2F3qjgs6lEcPh7/KOyc9wZkT2kOm7OeRIzEIGKa+hRiBKO32DZqWnOv6V7bRTtmxLfTjxAShPjYNetpUQvYPftp0+o+V4dRIkOMBEDp5L0vo4+vHXQHfP755yGY8PoSufA1EUyoVGDC2ZjIVIQSen0aWUG+9kg60ffCoyQEkqjrkvAoiTzrpm7peJRkbJQkAiVylORgTN1QbqGrS+ZQUsijKRyGQSKgyDRwcNrnU/J25f1FYYSaPWMKTHrtDIOSWe0vD1DijZT4IEGMcASTxT1vhB1z2pgIJaapzREiXlu5aS1C0WvjcNunW81ogRBpATtnPg07MHprJzFCCNk16xl8yz0NS7ucBUsQINxSP0IJvw2AQjCxWjeiurkSL8Hkyy+/NDDh9SW5hUkynFAaLnIS3RaNEtA0DXe4gISi05d5lIRAkuiMmxEjhkOlG082IKFaVEwwSqK8zo1ECY+S5HiBKyZBYlDiY8ShxJWfOZQU8uhAJ2EgwUBJTMgSocPOvk15fwyREEbwL03asU8b8gpMeuUEg5K5nQkjN5jmI0bmdytuWtAd61EcFvqtHFQZds1/G7bNbIUgaYEQedpr2tOID6vpz8A20XbZDK8d3MxnEB9KiA8CCLd71rOIENlz5vomSzqeEgvxEQJKRz96nz9mtWFcQ/j0009zBJN0cELZIEmUBg9K+1yOfrc0VUMdimfYJIpOa051lOS9N1oGoyQVixXsUZIQShASmQIJNXdsd3Xf5CqcOZQU8uhVXQkVhAKJBc4GRbpptxkFEcYIRTv2rI63eutJ3jzdwwhnUKLDhKZudi1oiwh5DjHyTNBWapqfjxCvZ81l6GU7ZmL81m7WcwiR5xAg3lt+fxfiQ0YY4TaPqQGLO5xqWtIBUYItRpxQSxAjdgQU+2MbJj0JBw4cCGBC0zhRMNHWmKQLE0oDRSaia9kQRg43kFD0Wj72KAmBxB4lGTVqFDx8b/FglKRemSPzZJTEoMQGiYISCRINJXk1SkItnzFE3Te5CmcOJS7zqsEEA4kFDRM5Td4uZUPExoj5S3PycJj4yolmpGRa2/NhHuKDCiDit7B7iVg0dTP3ddOWqc96IU7oWiXctukYgsNuO4ED34YwgtgI3s56HnbOxvy3u+Jq6TWnJez24/fXDSoHi9sjQggjFL2PGZwQUnyghJBiABNrw6QWsG/fvrRgkup0DqWhxE4DRqrJ29m+fbt6QD8cqlSpUrC4lUdJCCRylIRA0qdXVyh3dZEAJc8hPBKPkoRRYkAiUSJBIlCSk1ESgxIfI/mBkg1LJqv7JVfhzKHEZc6QkFiwgWKXCjxk8nYTQYT+wuQzFqZ82AxRcgJMfPUEmPn+FTCvawlEidd8BMgC0cIeN5pWDLwHdi9qB9tntfYx8rzX9HDbZsTaPpNqGWtWSwRIrJ2J8hES7oWg3X4reheFRYgQikFi/1sixY5Q8vHUl2Dv3r2wf//+SJjYi1+jYJIIJ5QERF5Ej087oB8O0cUAo04B5lGSkSNHwlOPVAlAcm/xDI+SSJT4IEkHJfk5SkJtX79Q3S+5CmcOJS7Tjh07QmCgJCZymn2bNkRsjPBc/KR3rvZQgs3pTAtci4dgssDkj5h0p6mbEvDxxCawe+F7CI8XBEJaes1oiQixIoQEMAm3QzYrvmDUxH8/0cjJ4k5nw0JEBydBwu97nRz+N4KE2zD1ZXMKtwYTucaETxfOBE4oDRW5jW6Xpjm0g/qh3jPPPBM5bcOjJEMGD4Ty1x8foKTx7TlYSyJREgWSiFGSEEoskBiU+BjJL5Qc2PWxuk9yFc4cSlwmevE0GvFgNFA2KNJN3haVCCKMEfNX5uieMMEHyeTXTjUgmYv48KZwSsD8ACWi7iVg+5zXYMe8N731JH7etA3iRIyYyJESM1oSARPKg4mcxgnH60rimu1Fl6tf+H4MJEH0MUwiJPb/CSfhNkx5Cfbs2ZMQJvZ1TBLBJF2cyDRoaGlfy91///3qQf1Qr0OHDpHTNjxK0qpFvQAkdxU9El6qEjFKokzbHG6jJNR3X+1X90muwplDiSuIDnQSDpQNi1Szb4cREgUR+uuS5+Endb/foISa8ubZMLdLcW+kJAomCJKl/e6AXQvfhW2zWkM2rycxa0o4Dyj8NmptCRcsfGWQyBAdqeJk45iasOD9k2FBu5MDiNgwicv8P/r8WGsntIDdu3fnGCap4iRdoOS0t956Sz2oH+oROqKmbWiUZNjQIXB3yVMDlNC1SWiUxIAkv0dJMAmSg4WS//z5h7o/chXOHEpcQf/73/+AXqtGAsLGRSrJr+cSQYQxYubhJ02ACa+dDRNaeyMlM969GFFyg2keFjsDpzjM7+6H768ZWQd2LXgX0fG8QYkHk9jZN6Zp1LOIEmy6eOu3jZvhtd0kgCKKg4oWomTNwHIGJNR8/y3HCFngN78dvpURZvxWj3sCdu7cGQcTWvxKOLFhkmg6x8aJNq0j01CR0/g2aRRBO6gfypUqVSrhtA2B5dWWjwUgKYfRSEgwShIHkoM7ShJCCeIhL1DSstrZ6r7IVXhzKHGFooOTjQgbGImSX8cxQiIhgjtyylzPYcBLML718YgSDFEys/3VMLezh5JEMMme8gxsn/sGbEZ8UNl+YZBwPkjo9GBqeix53ZJwEiqxdsz0k++LlvcqCvPf80CSKIYIwSSc9/9Xjmxg1v0kgkmiUZNkOEk2eqKloYPSPteOHuvhdNE0qkGDBgmnbYYPHwb3lj4nQEnNkjkYJUGIHE6jJO88VlLdD7kKbw4lrrjogCchQWnYkNmfz0mEaBBhjBiQ0JB3u5s9kGATXzke5nS5PgDJXIRI+AJqHkwW9rwZdsx/C7bOfBk2T3k6KHtquOBCaiZECKXAJCc44Yut2RdgW9DhbA8l2Dw//jdhI/Rv/2PhECb48eWDaphTaRkmdBp3qjCxR02ipnVsoEikpAoVLXkbfLt0HzVq1FAP7odq77//fuS0DV1a/9XnY6Mkt12JmKiY+ihJ3LSNjRIfJHkySkIhIPICJT1frqbug1yFN4cSV1w0jUOXn7dBkQo6ZAyQZBDhJo7qixg5ESbS1A02uc2pMEeMkpiREgUmKwbdiyh5GzZPfQ4x0iIUXdVVtmWqzAMKXd2VrviqXvWVm+61zRRDSgghVlsmPwbz3kV4UAgLk/VvAkfw/0QSKvTvxf3ugq1bt8K2bdtCMEln1ETiRI6caKMnEigSKTKJDZn2uXw7fNsUvQq0dnA/FKPLy9N0jTZtQyAZMngQVL75jAAl1UocGQMJxiChGCSH+ygJNbzzU+o+yFV4cyhxqfHZODYsUk0CRCIkDiK4E+fh7vHd68J4xAivJ6FFruZ0YMqMmPj5r3/Drxa8YVxj2D7nTdg0uQVsyvIwsimLXoyvOWRT/Bo4EW0hrGBbfazYr4vD0eviyPe3IVZMAVbCbRhZHeYiQLgAJKLg//n4MNn/Hz+2sMf1sGXLlgAmNGqSDkyS4cQGioYUTmIlKvtr+LYovn36Hg6XKZyHH344AAlP2/A6kuHDh8NLLRqERkmeKh8DSfwoSZLFrRiD5FAeJaHc69647BxKXJHR0DutE7GBkSwJkGQQ4caPGwvjXzvfgISb1vZCM31jT+HIF+ajaNpm66zWiJLmXj5IQjChFJBQ5sX6BEwIHQFO5Iv4cdPs/M/14xf2W9n/tgAd3Bw/++NRmc9vi++3Oxuys7NThkk6OEkEFIkUCZVUkl9H8e3xfVD169dXD/KHWj169AimbeQ6EholGfDRh1Cx+EkBSO4rLkZJxCnALyS5UNrhNkpCZa+ape57XIU3hxJXwujgQiMfGjS0JD5shMRBBP+q5L8sx/V/Bca/fII3UvKKf+ZNu8vNSImHEoIIoyQ2hbP4g9tg+9w3YfPU52Hj5KdMm/w2U1l62VPCbZnqR0hhqIgS4gS/Llbs44u7X2NAEeQDI/yxk7ziPm79G/t43TLYvHlzHExSmc5JhJMooEikUBIqqSa/Xt4u3xdNAWoH+UOpO++8MwCJvY6ERkmeahi7eqsZJakQGyWRi1szPm1TwEdJKHeNEpedQ4kraXQQoREQDRwyiY9ECAkg4kc78nHvlUaUHA8TECY8fTOrQ9H46RsLJisHV4ftc94w0zY2SuwMUiiGiRYBhaDi/zvAih/Bg98mrjnMbXdWHCz0CCXhZr/DnRy0dtFo2LRpk4FJslGTVHCSCCgSKTZU7Gxw2Mnb4dvm+6L7rVy5snqwP1R6++23g+3Ynrbp2a0j3F70mAAk1eVaEgGSHC1uTYYSREgIJRZINJTkJ0iaVzrBrF/T9jmuwptDiSul6MBDMNHgQUl8aAjRIMKNGdoDxiFGxrX2TwU2oyUnwuxO13vRaImIcGKmbvDt+rGNYeusV2HjJA8kSWGC0DBNfjJWlle2/9a8P+VJxIn3MXqbclO9No1vCHMYFggPygCEgOH/O/gYvR8gxGuW9T61Yko72LhxY0KYaKMmNk7ktE4UUCRSOAaFDRY7+Xn2bfBt833R/dL2ox3sD4XKlStntm0NJMOGDYP61W4KQEJv6YybgzVtU9BGSd5pfKO6r3EV7hxKXClHCxbp9N9E8OAkQGyEcLQTp8Z2qoYoOd6MlPA1Sia9djrM7uijRMDEjJr4MKGyp7eC7GkvIkqejGwTwoMLYUQmQcJvERkaTvhj3vtPxLUFWzPsXpgVGvHwMwDB3vbfigw+3o4hJBR+fPHwJrBhwwb4+OOPDU4kTNLFiTZ6IoEikSKhYqeBw07ejrx9vk+6/1q1aqkH/YJex44dg21ZriMhkLz7xouhaZv7bz4yvWkbHyU8SsIgMSjxQWJQ4oPERkkikBiU+BA5GCChhrRvqu5nXIU7hxJXWv3+++/mlX9tdNjZAOEdN0c7cDP3PnwgjHvlNIOS2EjJ8ZD15tkBSOQoCY+UUAs/KA1bZ70Om7KegY8nPoEAiW6TbLLXZv8tv2+XzW+zRPa/KQsl1PJ+pREaYVTM9jPwCHUyzPTjz6VmWs3vXR7Wr18fgkmiURMNJ3JaxwaKhhQbKpREhpb9+ZS8Pb4Pvk+6/8WLF8Pll1+uHvgLagQp2tY1kAwc+BFUKXVWAJLbr0Z0VE5tlCTj0zZYHEgKAEoWZ32o7mNchTuHElfa/fe//zUHRg0eMomQEERGjQoa3bUujH/pBG+RKy90xaa8fX5slETARI6ULB9YFbbNbgMfT3rSQwn28cRmoTZSk7w2RbRZa7JSlp/2MSxbtLDLlQId8dng0D42861YM+ht23Ng3bq1KkzSwYk2eqIBRSKFk7hIlP118jb5fii6X34ch9Lr4RQtWhSGDBkSBxKathk6dCi0eLR6ABKq/q0xkASjJHkxbXOIjJJQn+7aqO5fXIU7hxJXjqMhexseHANEgwjtwM1OfNhAGNfmbH/qxgMJo2Ra20tgVqfrYHbn6xAj4eb6rRvTELbOeBk+nvA4hgjhGCM+SCRAUsXJpkmPh9rsZ96f7CU/zh8z4b9nvXt6CBUMjQAfyv+THyOEcObfb3qtmD8G1q5dizhZl3DUxMaJPa2jjZ5EIYWTsEgl++v5diVE+P7psdBju/fee1UEFLTeeeedYDunbVqCpFvndnD7NUdDWR8kFa890mDEgIRHSRAkLQ1KcjFto6EEEZLuKIkGkrxGSfOKx8N///pL3a+4CncOJa5c9ccff8CAD3shMkaoAJEI4b8muVFd68O4l44X60liKJnR7kqYTSixYMIgoTZNec6cCrxhQlM/wsnjsNF/y++bJlohHCQ6Uo1h4tU01Ga/DWPqBphQQ4DMoMTHJEJCIUSmixaNex3WrFkTB5N0caIBJQoplARFOtm3IxFC8f3TY6GWLFkCN9xwgwqBglKjRo3MSKAGksGDB0OtOy8PjZI0u8sbJSGQhEdJkoPkcFvcyrV/qqy6P3G5HEpcue6bfevhqVqXQ9s2LQxOohDCO2/ToN4wrvXpHkowXuTKKJnZvqg3UiLzYULN61YStsxsDR9Pbg4bxjcxfcwhUIImxt7fiO9rbUongZCoVg2q7EEDEcG4iMbHiTAdi/u4hZHpb3jN6X2veQmA1atXqzhhmCTCSTKgSKRIqNhFgcNO3pa8D7pPvn9+PPTYaAF1QV1fUqVKFXWEhNaR0HROyyfreItbfZDQi+6ZU4AtkPAoCYMkQAlCJJ1pGxsliUCioUQDSX6gZNKHbdR9icvlUOLKdT99uQ36t7wCmt9dBGrffja883IjGDZ0YBgh/o6bG9WuIoyVoyTBaMnx5nTgWR2uhdlUp1hzOmL0tvO15rVgCCU0OsIoSQgTv40TmsQ3MbpNfqm8zy354CZEhQ8Nggnng2M654ODYTIdv8b0RqxpFH6OiWDyzjmwcsUyWLlypcEJw0TDiT1yItecJAIKI8WGCieRoaV9Dd+ejRCGCEWPiQH10UcfwaWXXqrC4GBVvnx5s01HgaRbp/fgjmL/CEByBy9u9adtDEpSBQnGIDEo8UGSzihJMpBEoURDRKbbtm6+ui9xuRxKXLnul292wZBXikOnBkfBO3WOgicrHw2t65wC7Z6vAH26vopAGWqGtrnhvZ43IOEkTLzTgU+BWQgQajZFELFaNbQ2ZE9/CdaPa2LaMP4xJYEUA5VYCXEy4bG4Nvl57yM+zNfg+xO9gs/D9+d1utSDBiODgEL48BESJGASB5HX/bd+U0WLp/aFFStWBDCxR00S4cQGSiKkUBIqMkaGTPs8St4e3wfF98uPgx8XPUZ6vL169Sowr41DV20leESBZODAAVDj9ksCkFCNykaDJL+nbQxKfIgcbJA8VeE4+M8f/1b3JS6XQ4kr1/363T4Y+fZtBiVUz8eOgcHPHAedGx8Hrz6I1T0D3nv2DvigwwvQ+72mMPblUz2M+CAxKPHXk1CTXzsjBhINJp2vhXVjHzXrSdaPeyxoQ1yNESPUY7EQDqnEyLBjmHjv64CZ8fapCA0aKQnDhCNk8HSMGf1AlHgjIRZEECZacz6qB8uXLzelihNtakcDikSKhAongRGV/TWUvE0bIRIiFEOKHvOAAQPMK/BqUMivaPEtASQKJLSOpHmjqqFpG3p9mwAkGE3bEEhaVs4wSHyUJAUJ5WPkYKOky/OV1P2Iy0U5lLhy3b9+/AzGvV8pQEn3xkfDqBeOD/qoxfEGKK/XPQ66PHYcguSEoHEUXc1VnA5M1ygJoUSCxG+Tea2b5jGUjG2Mb70II6EQJtrHPLAkaILXRgr/bd7a0cfF/1s38sE4hMSNgkTmwUSDiOm1E2EKNvWdC2DpkiWwbNmyEEw0nMhpHW30RAJFIoWSUKEkLJJlfy0lAcJpEKHosTKs6GJ8t9xyiwqGvK5BgwYGIolAQhdJK3d1kQAkdE2SZyvFQBIbJYkGSYCSCJAYlPggSXeUpCCBhJo5ooO6H3G5KIcSV677/ecvYXLXmtCxfhGDkm6PCpS8eDyMplodD2P8vGkbHyV8fRIOUTLlrfNgZsdiplmyTsUQJMVgQY+bIHtaK9gwoZkZMVlPITQYJnEA4cY/6jVOhP/+OIOt+KhCgJFpVBw8EBV+9r81hHjhz8Qvy2/+pO7mTJWlS5cmxYk2emKPoEik2FChJFZSzb4NefsaQiREGFT02On7WLhwIRAQNDjkRddccw28/vrrCRe1Ekh69+oOlW48JTRt82i5iGkbRAmDJECJBAnGIElplCQFkBiU+BBJBJL8RMnnn2xR9yMuF+VQ4sp1f/z2Pczs18ighOrayEeJDRLECBVbTxIbIZFNfedCmNkhhpLZFGKEW9KvAmRPf9EAZN3YRogRzgeKDOHBMULicOL/W0OG1oZxjSJb2KNEGB4CJsHH6K0NEKUpFKIkyxQDCTW9VxVzFVSGiY0TOa0TNXqiAUUihZOYSDf7tuT9JIMIP3b6Pvh76tevH5QqVUqFRCa6+OKLoXbt2jBo0KAAJHwWmQ2SgQMHwgOVioambWrcKKZtBEholCQZSA73aRvqtYevVvchLhfnUOLKdf/54zdYNKIldPBR0rlhEYOS0ZQyUkIw4bUkwUiJQAldOM0eJZEwWTGkBmye+hysG/OI11iR+beECmJB+XcIE9rH0s3/+jntLwnjg2NsyPf9CB5mWsb6d1YbBolfmxNgctDJMHfmRFi0aFFKOJGjJ/YIioYUTiJCZmPDBodM3h7fj40QDSKMEfpeKPq+6PtbsGABvPnmm1CiRAkVFjmJMHLfffdBt27dgqsR0+iIBAkt0maQEFqebFAlBJIKRY80r/argSQT60iSjZIUdJBQE/q2VvchLhfnUOLKdf/9609YnfUudKjnoYQa+cJxoZESRslYLkDJ8cHUDa0noaa/e1lopCRAiQ+TNaPqw6bJLQKUrB3d0ERXeI31CKynECom+b7ShhQ+Rv/m7I95/24I09881Zw5E4cREaODp2Tkx8IIORHxIUOMvBprxoBmZlqDSoSTKKAwUhgFEikSKjIJjKi0r5O3K+8vCiKMEfoeGCP0vVH0fdL3O3/+fOjcuTNUq1Ytx2fp3HzzzdCkSRMzAiNfx0aChEZHJEhohOT1l55CkHjrSLgnyxeBlxgkWAASMUqSDkgMSlIEyaEwbUPt3bZG3Ye4XJxDiSsjbZ7fF9ojShgmw1sehyCh4kdKDErEaIl3OrA3SjLhFTzYvn8lzOpQNNTsjn6disKGCfQaN0/EMCILwYRCLCQBSayGCIyG+Pl+9D5/jD8u3+d/+++vHlozjA9R8DHCB781hdeKUJNDIyJ+ryJKTPT+CTCJevMCmDtnphk50HDCQOEDezKgMFJsqFASFalkfz3fbjKE2BBhjND3xBih75O+Z4pgMm/ePJgyZQq0b98emjZtCpUrV4Ybb7wRrrjiigAfdDG266+/3pzaW7duXWjVqhV8+OGH5kJt/AKSNkh4usYGScd2b8Kdxf4ZGiWpV8YDSSvESGhhawRIApQIkBiUSJAIlKQNEsrHSCKUNM3HWtW+EP73v/+p+w+Xi3MocWWkT9ZNDFBCDXn2WB8lHkzGYIwRjlESwKQ1XaeEUHIVzESIUCGYYHQ6MF1efv34JgiSBgiRBsHbdWP85PumGFIID/yWC/2b0SHhIT+Otyej2+f3l/a7MwBICB78b+vj3oiIjxGER3h6xs9HCENkIoVw4yb3f9YclOngrOEkGVA0pNhQ4SQsEqV9rbxtvr90ICIxQt8rY4ResXrOnDkwe/ZsmDVrFsycORNmzJgB06dPN02bNg2mTp1q0JKVlQWTJ0+GSZMmGYzQWT02SOz1IwwSmq4hkHzQsytUvun0EEiqlTjSgIRHSV5EkLzgg4SnbVICiUDJ4bSOhHNTN65UcihxZaSv96w0KGGYDGrxz/A6EgIJRyh5WZwK7I+SmPBAO7PDNWGQdIw1v+ctsBlRsm5MI1g7qn58o8OtE621ECHf1/6dah58GsD8btdbIyQ0ChJDSAwi3tQMT88wSEIosTAySUDERKNK2MQ3LoTZs6abA7TECQOFD+gaUJIhRSZRkUrabcj70BCSCCKMEf4+ozDCIInCyMSJEwOQaKMj2oJWBknfPh94F0gjkGAEEnqxPZqqCUBiRkmONKMkLROBBMsJSJKhJFWQHAyUfHVgp7rvcLlkDiWujPTjF1ugS+MTA5R89BSihEZIBErG+KcB81k39pk3vKZEAwlP3yztV8GgZO2oBvEgoY+ZkRN83yqEE+vfSRujfExpVruLPHyERkTs6ZkYSCRMJguQGISIzOgIhRjhnxFHP7dRPZ8wB2g6UFOMEwaKHD3RgCKRIqHCSUykk3078j7kfWsQYYzw98EQyQRGoqZrtPUjDJL+/T+EOvdcHwIJXY/k6UoIEvFiey8KkDyPEAlQYoEkEwtbUxklCYGEQhwcDJC8/8St6n7D5bJzKHFlpF++2QMftLgoGC3p98Q/QiiJTdtEo4Sa+Cq97s01oWb70fvLB1WHjZOehjUj63shBqg4oNDH/BgNiXFSD/9dz7zl97nQv0f5xX3sYZj6ximQhRihQiMjCA2TxAkDxI/XiwQYQYDEjY5gEiMm+hm+eiZkTRxjDtQUA4VHFSRQEiHFhgolIZGT7NuT96UhxIYIY4QhkipGNJAkwkjU+hG6oiy9Dk+jWreFQEJv6dV/gxfbMyiJgYRRkg5IDEoyCJI4lCAODgZIqCVTP1L3Gy6XnUOJKyP99sOnMPS1W+B9HyW9Hz/GrCORIyUBTMw6Ev+AKg+wdOB99aQ4lFAMk9XD68LHE59EkNQLIhSsYSxw9HEbEloCFxIkGk5CX2PdxsrB1TyAREUo8SHCET5CEMFoRCR4P8DI8TCxtfe6QMEoCf/8MPpZDmxbzRyo6YBNSZykAhSJFE4CQmZDg9M+l7Jv10ZIqhCRGIlaM5KT0ZGo6RoCSf/+/aFpnfIxkPgoaUiva2OB5AVGCcajJM8VMJAcDJQ0r3g8/P7bz+p+w+WycyhxZaTff/kGJnSuCe8/XMTApEfjo8Nn3Pggka93Y4+W0Jk3E9ucHIESb6HrOrpq6/jHfZA87DVKvI2IRjLk+/xvfl/7dzot7lMuAiM8PeONhNgICcLvnd4GC1nx58HrRrw8lPALF1LBzxF/pjQ1NqRfB3PApgM3A4UP6hpQNKRwEiucjYuotK+Vt833aSMkGUTkqEgmMaJN19DoCIHkyYZVoJwFkodKH5kYJP5aEgJJCCWJQCJQEoDER0kIJNihBBJqeOen1H2Gy6XlUOLKSH/++xeYO/ApeL8uogRh0uWRo2KjJD5IApj4B1M620aOkngoOQVmtL8aZlIdwtFIyYaJTwK91k0AEhniIK6RdWONqouA8KJ/r/WT75t/0+fwv/3PNZ9D73P+x7i5Xa5FhPD0jIBICCWUBRPGCH3vAiP8fgwlNCriY4R+htbPlOr33CUwJWuSOXDzQdwePWGgSKREQYWToEg1+zYoeR8SIVEQYYzYoyL2mpFUMJIMJHJ0xAYJo4TOtqlVMgYSgxILJNRzhBIBEoOSDIFEHSXxIaKChEIYHCyQNC13JHx5YIe6z3C5tBxKXBmJLqC2clLbACU0hROgBOMDqclHiYSJOfDigXjya6d6IPGbhRjh5nS+Dj6e1ALWjmkEq0fUjYUooNbg+zYW1AgdfvTvACPW+4wP8+8RdSJbjc1474IAJZN5isYHiITJJIQJg0QuYKUMygRGArAF0zTiZ+f/LOlsJvlz7tS6VjCSwAdzCRQNKVFQoSQk0s2+LRsglIYQGyJyVCRVjORmdISuX/JEg3tiGPFBUr2Edwn5YB2JD5LgbBsGiZi2MSFCGCXpgCST0zZhKORfPV+6T91fuFxROZS4MtaWJYOhHaKkHU3hYHSpeX69G/vS8uPEQTcYDcAD8iRESTBSwvkomd/jZtgwsTnQGTYEARnjwAbDmpHKxzj6f4n+fwqZ+x/+EGS9fnIMIzIfIHYMETv6GVASI7xuxMQY8TM/Wx8kNF02oMVx8EGnV83Bmw7kyYAikWJDhWNMpJN2O/J+5P2nChE5RZNJjMjREbqya+P7b48DSdUbYiDxTv+NB0ncpeQFSAKUHASQHEyUbF07T91XuFxROZS4MtZn2xZ5KPFhMvS548zBMjjjhuMDrIKSya+fGkzXyFGSWR2vhsV97oCPJzVHSDwcAgkXD4aHYo18CL9O/Btbk+D/pRRihFo+4N4QQuitd0aNhRH8/uLOqDHf9/Emb9QI38efDS9k9SASzoCEfq4+RsyCYsy81hD2XqPTYPjgfuYgzgd1nvaIQooNFUoiIifZtyfvi+/fRkgqEImaponCSKqjI31694Z695VMCpJWDBKMMaK+to0AiUFJIQPJ24+WUPcTLleiHEpcGeunr3dB+/rHBjAZ0OJY/Ev+BFOiU4EDlGA0UjKz/VVBs0RLP6xk1pQwBkwRUOB/x2HDBsjwB8ONsP6ttMqP31/4wW0IkRM9iDBMLJAwQjSUeNM1/kJWPzlVQwiRIyRydGRMK75qrh+95hD2Qt3LYdzYUeaAzgd3GygSKRIqlAREbpK3Scn7k49Dg4icnrEhkgwj6YyOEEh6dO8CtctfCeWuRohIkBQXIKFpG4QIjZKYkZJEIPHXkfAICYGEUSJBEkJJpkBCIQoOJkioDUsmq/sJlytRDiWujPXb9wfgg2cuh3Z1jjQo6ffEP1WQSJjwdAU36bXTfIRcHdeKwdVhw4THAxTYSTissf+N2KCCj9n/TjHtfunS93ytEQkRO0IIf5/mfR9iVNwZNZzAiAFJgBGMRkdMMYxQ9GKIHzU/Fp6tXxIP5OPNgZ0P8nzQl0hJBBWZDQw77WsoeduUvF8NITZEEk3RpDsyYmOEpms6tnsbqtxytgcSgZLqN8o1JPi+BRJzLRKBkhBI/CRIqMICkjqljnCvc+PKUQ4lroz1+89fw8i2FeBdQgnWq8kxAUg4OUISjJKIgzWhZAaiJDZKEkPJyqEPmte8WTUMMWC1mjJIeCCECMKJBIqGk9Xma6zEba4eRv+OtcpqetsL4kdGxFtezKphRF5vJAQTHyMGJAgQWTBdg9ErMY9ClBiMtIw1AuvS+Fh4sUkFc1Dngzwf9BkBiaAis2GRKO3r5X3I+7YRokEkalQkVYzIqRobJK+91BzKX3+cAYmctql985Gx0REfJIwSM22DEOEiQWKhxEzd5AIkBiWIjoQoQRAcbJBQJS89Qt1HuFzJcihxZSw6LXjGh00NSt7Duj5ylIcRf2REjpCEUILxwXvy66eFp246UIgSbPXIeuY6JQFCGCL4NsCJDw3CiYSDDQrzb/k55v37I4r+fyuH1jaLXG2QmKkZSv5bfL+c+TnInw9DhCOI4Nv40REfJC/4CZAYlDx/HAzHXn3gn/DSE1XMAZ4P9hpSOAkGSmIinezboeT9pIIQGyJyVERihCCSCCPa6EifPn3gyYb3IkaKxIGkbpkj4eX7ECRVEST30mhJGCQvCJAEF0mLAokfg4RRkpcgOdgoefDmI+Dis46An3/+Sd1PuFyJcihxZaz//vUfWDHpPYMSqv3DRczVW72iQWLyD+CT3zgdQXKlP0rCKME6XgVrRj9iTgcOIJEsggaNegh8aDjh92NZ+EB4ED60ln5U2cMILW6lt34BSvzMSJD5XsNrR7zRkRhMAoz4SYxIkPCiVkbJyJaUN0IynHrOaxj2zH3/gBeaVDQHeT7o20ihJBQoiYicZN+evC+6f4mQdCEiR0XSwUjfvn2hS8f34X5//YgEye1Y49uLQGsfJC8RSHyUBCDxp20MSDADEgRIQpBQPkiohCDBVJBQPkQKMkioEhd7KPnppx/V/YTLlSiHEldG27FqLLz7kIcSGi2hA6Z3WXnKO/gGKHnlRDxgi+jiYm+cER4pETChqZs1oxvCShsNBg5+2v8b7rWa3oqPr6a3/teY9/nfGIGDMJIIJCuH1IYFvW6NYQThYS9kjWHEy/vewyjh6Zo4kFBxIDnOn7KJgYRRQqMjHI2SMEyGPHssPF7pGHimwW0wcsSw4OAvkUIxFDSw5DR5m/K+5GPQEGJDJGpUxF4zkggjNDrySsvHoWLxEwKMMEjKFz0SmlcoAi8jRl5GiBBIqBcJJFgAEntxqw8SRokKktAoyeENkmrFPZA4lLhymkOJK6N9d2ATtCWU+DAZigdEHi2hg+/41ifGQojYMCGUhEZI/OZ0KuZdXn5UvQAFjIaUG+a1mt6Kj8vbk7e7cmit6IZ4zel0bQqjIzGImQzOPIgE2TDxR0gIIuFpG7Gg1Z+q4RGSACRilIROy6boTKjGFY6BJjWugSGD+puDP2OAkkigJCBymn2blLxPGyGpQESOitgY0daMEEaobl07Qf1qJeH2a7xX95UjJFWuJ3TEQMIooVGSACSYAYmPEhskVCRIsObljzAgMSE+DkeQPFb2CLj6/BhK/v77b3Uf4XIlyqHEldHohfm6NzsvgMlHT/3TjJDQNUliF0zzUBI3UuKjJLyexGte1+KIkqaweuTDiIIcooTzcbJqWC38dyyGhnk/+HfNWIP98P0VFL4/re0F6uhIKjBhiHASI1wwXYPFRkbCIDEo8UHCoyQEkmHPeg3FaLSEzsh5tPwxUL/iudCra9sAAowDTsJBKwoZWvZtawCxERIFkWRTNBpGaHSkVYuGUOnGk8Ig8VFS55YjoTVhxBQGiZy2CUBCKSAxUzeJQMIoQXxQGQEJhRgoCCChyheNgeTqi49X9w8uV7IcSlwZ7fefv4Ehr91mUEJ90PQYDyU+TOiAzAdpQkkAE3M67YmQ9frpMPP9K/11JbEW9LjZe82bEXViaMAkKtKK8EFFwIQz+DDV8BocbvJrp8QWsvoICWNETtV4GPFA4iVHRkIgkRjxGxmarkGACIzwdA1jhCBieibWkGeOhf4Ik8cqHgO1Sv8TXm9ZPwQDSqJBZuNCS/s6yr4PBoiGkEQjIommaOxpGuq9t1+F+8tf4WHEAkn5YkXgyfLe+pHWhBEfJAYjPkhCZ9tYoyQaSKj4y8j7IKEQH9ooyeEAkgalj4DLzo6hpGSxs9X9g8uVLIcSV0b7z79/hSkfNIK2D3oo6dro6OAATC+6x5mDtikGEoOSN+jsmzBIDEp6lYF14xrDymEPIEbE6IXfKuvfqUbgiL1fI/Tx+ARMBtWAJR9WCoEkgImAlzcqwijxp2n8QlM1+DY0QkIRShAgvKDVW8x6PGKEskBioSQ2QkIYwZ4+DgY/fayJpnKevvcYqFHqKGha63ro26uzgYHEAmeDIpW022F8RAHEHg1JBhE5KmJjpFOH9+CRmqXhzqJFAoxIkNS6ic6qOQpeQZC8cl8MJGaEhDDig4SnbXhxK72uTdypvz5GeJQkEiRi2iZAiQWRQxUkVMlLYiCh7ipztbp/cLmS5VDiymh///cvWDH5/QAl9Bo4AUroQG0gggdvOpiH4pESDyU2TBb1LgvrESW0GJXhYHAiw48RTlYZXKReePSjul/sY8sRILH3qwfN71E6BhHx1sQgkTDxC60d4eJAQgtaxfoRLm665liEiN+zXrSOh6KREW4wNghBMghBMqjFP2Eg1rrWMVAdYVKr9LHw6jMPIQgGh8AgIZFu8nY4DSDJEMIQiRoVYYz07t0bOiNGmtYtD+Wv+wfcITDCIKlQrAg8fhdipFoMJK0pREkykATrSHyUGJAIlJhpG4QIX48kDiSYXOD6lAWRQxkkVa4Pg4Sq/0Aldf/gciXLocSV8fasnwrvEEp8mNCB1oCEowO4hRIzUtLmRJjyBl3R9QqvDrEW970D1o991KwFkaAggHDax+XHQiE87FYgNLyqBS03b72Px0DifXxWp2IBSjSQxEZKvOToiA0TGinh6RozZeNjRAVJaJTkWBjOKMEMRjjCiD86QgUoaY4o8evQ8B/w4K1HQ7WbjoI6d50N77zSzOBEAiKnSXhIfEQhRI6G2CMiUaMihJH3330DHnugHJQvdrTBCMejJHdcXQTqlqE1I0fBqwFIvKkbOUpiYBIBEomSZyyUSJB4KIkACaME4XEoX61V1rDMEXD5OfEoefHZxuq+weVKlkOJK+P9/M0n8N7D//BggiihAySPGAQwQYTIaRtGCU3fBCgRMFnc705YT9cooRESiYkhSZKfGxVCw4Tvx2ASwwkjxMuDyTJ8f1rbi3SUIEDCV2qNrSEJTdv4GAlGSARKQjDxMTISEUIFUzbP8ZSNDxIfJUPlCInECDbQbwCCZMBTXr0f/6c5ZZhgch9Wr9KF8FbrxxEJA+IgwWnI0GJ4RAFEQ0gqEPnggw/gtVZPQZ3Kxcw0zZ0CIwFIsJo3FYHnKx8FbRAjr1ZDjFABSDAJEn+khDBCMUYiR0kwDSRcCCMcwoNAYqPkUAQJddOl8SChunZ4U903uFzJcihxZTxa7Nqn5bXwzgNHGpj0e/KfHkj8ha1ycStHIKEmv0GvEhzDCLe0f0VYO+YRhAZNoyAWsJX+Wxl9TGZ/XH5uKESGjpD7vAbGWkYNuA8mv3ZaDCU+tgxC+G0II9hLlA8SHyIaSGLXIEGE+CMkZnQEi1s/YtaQiGkbhAglR0gYJgObxyKU0JlRJvz99MfeqfsPeKDM0QYm95U8Cu4vexq0erIW9OreMQ4XWhIcMsaHBEgqCLEhQrV7pw00q1cRqtx0CmLkSC+BEQZJ1RJFoEUlxEh1P8SIQQmBhM+2uTeGkrizbSyQ8DoSXksSOv3XwkgLxAcVBxJ/HYmNkkMVJPdcp4OEmjBmqLpvcLmS5VDiynh//v4LjOv8ALxNKMF6ND4muCZJCCSIECoACZb1+qlxUzezsWUfVYJ1iBJvvYfABBZGyH2mlVbBxxEY1AoRw8O8L/ARQ0hVrwF++L5Z5MogodERijASBRIseA0gCRIfIvS+vCganWljEiAJRkjEKAlfh0SuIaH1IyYCiT9CYkZJGCRPHRuApD+FIPnwCa/eTf8Jz99Hi2CPhqoIE6+joWHVa+DV5xsiUDqFkGFDw07CQ+JDAkRDCEOkV6+e8HablvBEvUpwX5mz4K5iR8JdjBE/CZLqNxaBZxAjr9VAiFDVESOYGSGhgtN//de14REShAiBxKCEpm14pMQCSYASBgmmgSRulIRAwvkooQ5VkNQtdQRcKs62uYTDj9HHt2Z/rO4bXK5kOZS4Mt5///oTFo15I0BJh3pHBSCJm7aRKHmNpm9OhZntLw+a5bdsQGVYN7qBGclgYKwYgsDAAnCItI/Jj0uUSJhQNBKyHOFBxUByr2npR17ze5YJgyQOJvJsGwslEiY+SgKQYAFI/DSQ0AiJhxHMP93XhBChghESf7rGZEZICCR+/gjJhwIlVL9m/4Rujf8JLe7x1ppUvfEouFdUp8JF8Myj98BbrZ+CnogUDRwyiQ8JEA0h3bt1gTdfeQaebVITHq5SDCoV/yeUJ4hwFkiou4oWgYdKe9M0ryNEqDY1igQg4RESOUrigQSrgjFG/Agk5mybCJAE60gIJBV0kNjrSAKQ+CgxoyQIDupQA0njskfAtRd4AGGE0OnAl53jdeV5R8Eff/yh7htcrmQ5lLjypG0rxhiUULTglQ7KIZgIjMiyXj8lhBFqdofLEQ73Ikrq49uq8Q0Waf8/jZb7BRgxIOFiMJnd6foAIsEpzgwSzIOIdeovrR/xozNsoqdtaITEP/X3eSo2MmKf8mtO+zUoOS42OkIYsUBCoyPeCIlX/yep8CgJYYTq+/g/gro9+g9oWfUYqH2LB5IqVIlY92A1bzsNGlQtCk/VvwtaNX8IXnuhKbR97Xno8O7r0KXje6bu3TpD5w7vYm3h/bZt4O1Xn4NXn38MWj7xIDR7+C4EyLVQrcyZUOHao7AiUJ5LAJL7ShSBx+5EbFQ/Ct6ohRipSSApAq/5IAmmbHyUBOtICCWEEezFe6h4kATTNhZGYmfbHGEKUIL4kCAJYGKDBONpGxslhwJIqDJXhBFCC12pK871uuf2ouo+weVKJYcSV57045e74O2HjoK3fJjQAVauIZFTNzRtQ6MkZqTk9ZNjKEGMcMsHVvFRcm8cJLyPYYOt+OPYcruByWOEhKtimvbepTGQCIyEp24QIgIlDBIbI6NpMat/CrA804ZHSBgmwRoSjEESQokPkjiU0KJWf2FrMG2jjJIYkPgo6UM19eqN9XrsH/DmA8dAkwpHm/UmDBJTcaqIqTJ3QxG4m7o+XCXquiJQ0YogwsVAUiQGEsxA5MYi8OjtNMpxFLyJEKECkNT0QYII4Qgl5gJpDBKzjiSMEgMSxAi/+m9oYWsCkBiU+KMkNka0i6QZkFAKSg4VkNA6EgkQ6krqvCPgKr9Xnndn3rhynkOJK0/6/Zfv4INnihqUULR2QaJETt8YlDBMXj8JQXJFLH9dyQpEQmykhLFRFVaGcOL/v0Q4QdxoMTa4pR9h5u093vuy/vdA1htnGYwwTAKUWDAJQMLTNaIQShgjEiRYMGXDKEGE0KJWedqvWUfCGEGEcMEoCS1qFQtbGSQ8StJPjpJgfR7HfIz0buL1AdaLQpx0a/QPeO3+Y+CJSkebERRGCUFExigxEBEgkSiRGLFBQt2Dt0Gn8z5VkaZiELn3Y7VjIKEII6EREn+UJP5MG3vaxkeJDxJe2BqMkmCJQPI0g8RGCcKDQGKjJASSKJTggb+gguSBmzx82Ai5mjrf6xps/KgB6j7B5UolhxJXnvSff/8GE7rWDVDSvfExZtomfi3JSabJr3nRSEkwbSMilKwdVc+8TblBVcIhPriEMEGIUB5I7oElH1XGt15L6N8f3m2+F56yCY2UYHQ5/bEEEoMSb/1I6OJoBBH/bWwdiTj1NwFIzMiIDRINJf76kSACCWPEHxmJAwlhxIAkhpIPKIQIRSDpSTX+B/R41Ks71rHBP6BN7aOheeWjodGdR8EDpY+Ce0sc5aGEYeJjJDRKIjBCiKl5cxGod9tR0OSuo+C5e46C12oeDe88gCFE3vYjlLzpo+QNHyOcXEfCIKGFrXHrSHyUmKmbyoSSIipIgqkbGyM+SCj7eiQSJBIlcSDxURKausEDf0EFSf3SR0CxC3yECIBQRSn8fxR9zt49O9R9gsuVSg4lrjzp77//C8smdcCDiIeS9x8+KjxKYmEkhhIaKfGnb/wIJXTGzJpRD8NyHxgMCQZH8G8Rf2z5wHvw6/zofW6An//+MsoHiQYTU//KsKBXWQ8kfhIkZoSEIMIgkYtaCSIcwYRRYha0hkESjJQgRuRakmDKRqBkEIco4dERXtRqFrZSEiX+CAlP2YRQYkDinYVjQOKPjoRAghFGuj96jFejY6DrI1hDry5Ug2OgU/1joH29o6Fd3aPhPezdOkfD2w8dDW25B/Fj+PY9/LiJ3qePYfT/DEgwCRIaJXmjVhETj5DYoyQGJQSSqFESxEhslKQItLyb8kBiMCJAQj1dMR4jPG0jR0p4UauNEg0k9lk3BRkkj952BJS4JBoh114Y686S56r7A5cr1RxKXHnWvuwF8CahxIfJuNa0juQkkwGJhhJsVvvLPIx0iEVnzqwZTSi518CEcRKEsOAYGyv8AnwMqIzwqBy8jQvREbzFgtERhIjX3abZXYqroyTyTBsDkwAlMZjIERJ+TRtTS1rcKjDCoyQ+SPjU3+C1bHyQBCMk/igJg8Q+0yZY2CpHSHyUBCMkPkp6N0GQmOwRkmNMNOrFGOlGEUj8CCSdESRUJx8mHesfberw8NHQ3u99jLBi8kFCGGGQmAgkGGPkLYTImz5IzCgJryERIImbtvFRQiAxKAnWkfgJlMiFrZSZuiGQMEoQHzZIDEoYJBZKzCiJhZEAJByhBA/8VEEEyWNlj4BbLo8BxEbIddRFR8D1fq+/4NaTuHKXQ4krz/rtp6/g3XonBDAZigdZHiFhlBBCQtFIyfuXhKZuvLNvqsKaUXX9URAfH34SJDKJEwmTSJRgSxEdFE3R8NtwlWBGuytCIImHiV9ocesJsakbP2/aJpYBCWNEgMSgRI6SiLNtDEbkCAkWjJDw2TYGJB5KzAiJHB1RRkjMKAkixAZJD4QIRyjpSiMkPErij5R05nyQdKqHKKmHIKEYJAIjBiQCJYwRM0Lij5IYkJgpmxhKDEgwAxIKIcILW3mUhEFiUBJa2CpAQlM3FILkuTiQ+CjxR0lsjJgkSARKGCQ2SkIgofDAz2koONiVvcoCCMYAoW642Ku437wZE9R9gcuVag4lrjyLLqI2oE1ZeLP2Eaa+eEAMQIIA4ZERxsgUv1ntLkaMXObVwYtGQ9aOfMgHR+W4lif4GENkhf/W9NHdiBCM3oqWUgImWlPfPte7PkkcSLjYqcA8bRMGiX+2TbCwlUZJ+BTgGEoYJPIUYO1Vf80IiT86wgUgoVESClHy/7N33/FVVdkCx51mL4AdLCi990BCSEK11xm7o+OoY+8Fld57772EmgCBNNLoTQRU7Iq9MipF0Xn613prrb3XPvucu29y0yhy/vh9zr0XVMb3Juc7a++zb8Qekgf0UzY6s4dENrYakGiUBCckAhJEiCzb2CAZQiFKfCDRKBlogwQzUxIBiV6y4QgkwWUbPSV5WZZsrAmJvWzj3NiKEUYMSLr8GZ7ojEWABEOMUBEoQYDIPpIgSmyQ2CiJAMlRPiVJqe+fgghCBCBUM+rSE6A51rrW32D/vh+dPwvCwmItRElYpfW/Xw9B5tRHoYdGyfC7/6qftPFQQk/bEEikFT3OgKwBNQxGcnWEkq3z/s7Q2DC9iwpR4YqwEXwfxAc3pbOvdY5oMrKGmuSV/tJZ5tA0AxLqOZXrEWBGiYaJ7/Hfp6x9JBZIfCh54mRvcysmG1tlSiKbW9WSjXr8V560ofixX9+U5EQGiZxFMl5CkPCTNnpCwjFIaB+JBRKEiEQosacjPpBggwklCBGKQUJpkFC0p8RbsvkLouQv/o2tGiSMEo0R5x4SCyX2xtZoKBGMGJBgspdEYUQlUxIfSjRGgij5DxUACeXEyFG+l6RTAwSICyGID0EI1aKm12P3XOn8ORAWVppClIRVWr///ju8vnYeo4Tq/fc/4Q1dHv91gESX2f9CgxKJJiSMkhkeSjYKTuS1AyPm9VSEh27d1E46ggdeHa2lJndCkOB1El51BeMSESOnG4wYlFh7SXww0SCRk1tl2Ua+bI9gEm0fCaWWbKJ8yZ6VLNmoZRsLJAQRndlDwks21pREMCJpkKgJidrYyptbESTBfSS8qdWekMiyjYWSQZSekJg9JBRvbP0LogQxoutjocSA5AZVj+vp+PjIfST2qa2yXCMbW2UfCSVLNk9rjAhIzOZWQYkBSQAliA7XAWmUAYljShIVJEcpSro19iNEAGIjhL6Ij2p1mVfmsrnOnwNhYaUpRElYpfbD1x9Bz5v+bGBC0wI5k2Q5H5bmn5JQq/qdD9mDakKO1XpExNZ5N+vlmM6+NuqCn0vr7ddBnNgQmdzR1xpqklfRxI6wenhzWPrC6Vw0mMgGV9+UxAcSbw+JjRIzKRGQSLxk44HEXraRza0ulNhP2QhKGCQWSnwTEkzOIvEmJDp62kZAolEyPIASAskQipdsaEJCGPkbDOSCSzYKIzZIeiNIOEKJhRFKHY6mziQJbmztHliysUFCPSN7SQgkmNrYiiCxn7bRIBGUyDHyBiZ6SuICCU9JBCQWSmTZxsAkCBIJIXC0wOQKBElUhFgAoVpfrjbBUu3rnwwHD+x3/gwICytNIUrCKjXaVzL60QYGJXSIlzq9FSGCyXSEyuhxJpfZ93zfnhJavlk/taNCCT3WayFjw7RO0UN0SIQaEwJEWjelI6xDfFBBkKy1QCJlDa6vJyWSBxI5m2ShoESmJJSABDObWwUjmJmSYN6yjUaJftqGl20wmY7IkzZ+kAQ2tVogMVMSzLePJDghCUxJ1OO/HkpkY6sBiWM6EoGSW//CEUYYJP9AiFAEEj0dsSckamMr7SOxQUJnl1gYsZZseEoSQIlMSAgkghLeS8JTksjzSBgkQZSkUHrZJoAS2UNi9pHobIwYlGiMRICEQgwcDSjp2ig6QloHEELF1VLRsfOvPH6r87//YWGlLURJWKVG+0rSx/0LXrlBoYQeJ2WQyHTEgESjpOeZsKrvuQYj0vopyRolVyA4LJRodCh4dDRtsF6vJ3gUWwqiRLWWmpSCANFNVBXpMvpeHBUlvikJP21zGk+GUikLJQwTs7nVmpBYIPEmJCoBib2fxIUSBRKFEsq/sVU/9oupp2xinZCoU1zNso3GiMRLNhomwSUbb9nGA0nEko0FEkr2kKh9JBZIrsNkQoK5NrZSwT0knAbJk/rbfwkknI0RCyUMEwTJI1wkSmyQ2CiJ6dTWYAiCI42Srg2LR4gNEKldbVU89uqmAud//8PCSluIkrBKjfaVvJo7hVFC9bvlzz6M+FFyBqzEMnuf7QMJtW5SB9g69ybeW7IRAWJnw8SJE0SHxADBGB++khEjXmt0RRPxitGVWkbHy9OXChqUnO6BxIKJjRKzbCMg4SmJftomMClhlCBG1F4SGyXeI8DTJVq2kaUb+2kbmZQ4UMIwMY/+Ikj0pIRBYk1JDEgslIy4m1Io8W1s1fFTNjobJN6yDYLkH5F7SMySDSYTEpmS8KSEMELf/HutZG1utUEiExKNEgMSjL5oj0GC0bJNVJBQPB0RkPhREsSIEyWUBZKjGSX3JahNrbEihADC1VGPC1O3danD/z13/fc/LKy0hSgJq/T2fvGuQQlFkwUDEkSIxDDpiTDpXQUhcilWE3KHqNZNSoBt826AzTO7MTQ2TOsIGyV8T/HnVuunIkQkGyaIEDMVoSZJ0WFCFY7voI6Xxz+/RAfCUbJ0I8s31AJGCSYgQYyY/SQUomQugUSjxExJECMGJRSB5NFT1LINIkT2kUQ8+qunJJN1DBKdb0qiJyUEkrGUDRKNElmyoW8J5ikJg+RE35LNsDv+CkN1fDhaACSDCCR6YyujxF6yoWjZxkIJL9sgQhgk9oRET0kEJWZjK+baR2Iv25hv/qXsCQnmWrYxSzcOlNDJrS6UCEh8KEFs2CA5GlFyL4KEHvt1IcSeggQR0p6qewIk6hbNHOn8731YWFkKURJWqf3++2/w/cGdMPyR6vCyRgndXG2MMEgQIwwSqteZCBFEiakmrJnYDrbMvR420Z4SRIYdoYNfIzgoGyDc5GRYNyWZr9I6HU9IKIEI4kMmI/aEpGhCMuSNjuPHgOVRYH4MWKYjdC4Jp2FiJiUeSuZrmKhNrronESYaIxEgMRMSHcHEQoks2QRhMvlBlWvZxndA2n0nRWDETEcoWbaRCYneRyITEkEJn9hqTUnMWSS8bKPiw9FoSmLBpKQnbXzLNhol3a/5i2/JRlAiIDGHpF3xJwYJowQxwsfIC0bsBCWCEQdKHqb0sg0v3SA6XCBhlFjLNoKRoxEld7c7ATrUKxkhDJAAQuivo5KwK1qcDvt+/N753/2wsLIUoiSsQvu/3w/Bf/+3DT44NB62H7wXCva1gNzv68C4UWcxSijaVxLESLDVgy+F1YgRae2EONhKKJlFe0oEJMm+1iM8+DVdCSFW6yYnqaboKzUpCSGiWjPRX5GukK4T8Do+CXKGN4lEiQ0T6zFgXrbRSzc2SuwpCU9KAigRmJgJiW4GpaclPpBolEymfFMSCyUCEj0h4fRR8hHLNtaJrXImiYAkiBJ+2gYRIiCh77mhgiChKYk6j0Qv3ciERINEDkez95EISvwTEg8lAhI6k+Q5jRI1IfkTg4RRYk1I7H0kPpQgQHwTEskHkgBKsCBGOAEJFgRJsSihEAqHCyb05XqECxshwSlINIRIyfXVlGXikGedPwfCwspaiJKwckUI2fu/zYiQsbDt4J2Qt68RrN5X19+PdWFe1gXw8vUKJX3+8WcFEntC0utMXzmDLuIJiaCkaFxLRMl1sGkmoiSAkWCEEIGJjRODESsGyaQOqom6CR0QIqpCarxq1YDaej+JWrqxN7gKSlyHpdnLN7yfhFFiLdvopRvZ3CpTEoMSPr2VpiSn+De3ynREJiQCEoOSkyOWbXwntmK+JRtetvFAYh8hT4//2oekMUh4Y6tCiVmysacktGzDExIvAUnEso2A5AbECEUgQYRQBiUIEso3ITEo+ZMHkm6YgARjkARREliyCaKEpySMETdKfFMSRIhd8PFfOydIKMTC4UDJ31t5ALERIgBxIYQAIgjhGpwAHbEuTf4G3379ufPnQlhYWQtRElbq9v/fe7Dn0HR47af7IH9f40iEOFq55zI1KdEwWfziabCCQYIIoSyQrCKUDLhQTUt0RaMbw5bZ18JmmpRMTYra+il41a1HdFAb9HU9AoQ2zFJrrXwg0ShhmCBEKEbJuETI6FNDoYSfvgk8daOTU1ztSYmNkYinbmg6glffmSQaJfK0jWsvib1sI0/aBB//NVMShAgfkKazN7ZSvidtZEJiT0kQIryXxJqQ8JM2t6tJCS/bWHtIZEqilmys/v5X6CPLNgISWbpBiNiP//I+EgslAhJGCcb7SCyQUBETEh2DRFAiyzVRUPKIgESjxIOJxkgQJRZGzJSEQmi4coKEQjBUNkqubVY2hBBAKNoQyzU8ATpjw3v82/nzISysPIUoCSuxX3/bB1/9ugre/OlFWLOvvRMdJZWztw4MePQkhRKMnh4hkEiCESm7//k+lOSPrI8guQY2z7wSkdFBNUW1PtA6/LWoIUDWTUrk1k70WjNBVaQrHB/ZslfOUSDRKJGlGwYJPQosKBGQYOZpGyuzwdXa3CrLNv4piQaJjkGC0RM3BiQaJeYYeQsklJqSBM4jEZQgRGhCIntJvMd/vQkJT0kslHgTEoWS4MbWiCUbCyR0lLygxDch0SDpgRChZGOrWbrRGHlRg8Qs2/j2kXgosUESMSWJghIzHbGzUOIDiaBEY8QGydGIknviT4BujfwIEYCUiBDEhyCE6oJ/H+rKZn+Db778xPnzIiysPIUoCXP202+fwce/zIZXD94DefsaOKFRmnJ/qAsTJ1aFl65TKBmJ/4vcNSWhMnsTSs6F1UNoX4kqf0Rd2DL7GtgyC1GC8OAQGcUBZd1kxIckEAlghFojCUo0QgrGt4eCcVICLO1+hjcpEZgISKzHgIMoCcJkruwlsZdtNEqCe0lsmAhIfFMSzP5uG3nShpdtqH+rSYnv8V+NEsaIlX0eCS3duE5sjTgkjQ9Ii1y2MV+0hyBhjOgv2uMpiTUhCaKEJyWEEZ3sI+EJicaI77tteFOr2tjKUxLraRsCCW1u9W1wDaDELNkEQaJRIss3QZAISmyM+FBCITaONEpo/wgBIypCNEBshBiAWAihg9UoOoKemjDwMefPjbCw8haiJMz04/+9AR8cGg0bD1zrhEV5W7iuBqOE6nnTnxRIdDwhQYxImX2r+VCSN6wWouRq7CrER2JkCA9pPYWf0bUkmBRNaO+FCOEQIYU6wgi1emQL9TgwoUTOKEGQ+CYlGiZBkPj3klgbXGn5xoaJDRLe1Ko2tpopSZS9JOqJGwslGibe5lYNEo0Ss49EYBJ82kZPSqKhxJuSaJRojNggsSckHkgwxIhz2QbzTUgMSLzvtbFBIihRT9polFhP2whIZELiQsmjAZREPnFjowTTGGGQYC6QUEcLSm5qqeBhT0FKgxABCEXHz1NXNjkBrm99Cuz95gvnz5CwsPIWouQ4b///vYMQGQXr9ndyQqIiy/66NvT4+58MTOgsD3vJhqIpSWafMyGrbxVYPRRBosvDtsy+klMQaY/ocDQpsnXBJrZHkKjWBEGiURKESfbQhowSnpBgdDaJHJwWRInAxAUSMyWxYBJ1SoIokUPSeEpi7SVhkGDy+C+BRCYkAhLzpA3mm5LYMKEJiQaJoMS3j8TCCDVYQoyYY+Q1RoITEu/bfwUkf0WQUIgRjKcjOrOPhFDC+0gURuyj5M2ERIPEhxICiT0hsZZsgiiRZRsDkgBKGCQSoSSJQOKhRDa4ukBCHWmU0HLNVYiHEhFiAaQ4hFD097uqqWr+xN7OnyVhYRVRiJLjMNqoShDZsL+bEw+VVe4PdWD4K6cZlNCSg71kozrLZIOE2jSzK2yefRVsnEpLNe2xBNP6yV500FpEE73WUhMSECSqIl3heCuakIyV4mFV/8u9pRvCiCQowewD00qekpwKc5441Q8STEBiHgGWJ25k2cZGiZmS0NM23oSENrfyAWkaJuMoWbKxss8kURMSObXVf0iab0JCINETEkp9r40bJQISQUkvBAlHExLMBok6tVV/A7AFkhck/bSNWbYhkAhK+Aj5wLJNFJQE95HYKPFNSSQLJYKRklBClRolFIKivDC5rY0CBwOklAgRgNgIuVp3DdXsBLi328Vw6OefnD9XwsIqohAlx0m//LaX94hsPnCjEwyHpR/rwvRF5xqUDL7jL9aU5Cwuq4/X6sEXGZBQG6el8KRk4zR6uoZQYhfAyaR4BIhqraM1E/wVjY9HiKgKKISIlI9l9L7QhxI1JVEZkERBicCkOJTYSzdq2caPEtdeEvMYsD6TxDclkegsEk6hJLiXxEbJCBsldyuQmMd/KUKJXrahCQl3qx8l/TRIBCV9KD0h6XWjipZs7GUbAskrAhLMPrHVnNoqKLEmJAwSOrUVUaK+bM8DiY2SiL0kGiUCE37ihrJRopdtBCX/caCkOJhEQwnlBAmFqCgrSv6VcAJc19xDSHH7QYJTkOIQQtFTO/T3ptblLHT+fAkLq6hClPyB++33X+Cb/62GHQcfqpDNqhXRindqwosaJbThlb6EjzBiT0goQknuoAshf+glpg2T42HLLPrum2R8jQixEozQ7yGQSEGYrJEEJIgRilDihkk7yB/TDtJ7nO0DiaBkEWUt3QhKBCbBKQmf4GqhhGFCIKGCKEGQTOMiQeI7JE1no0SWb+iAND4kLbBkY6PETEk0SobrSYnvTBIKMULxl+1hakryN+hP0YREY8Retul7syzZCEysja0EEt8+Ej0lwQQktGwjILGXbAxILJT4QILZGHGhxAcSilBiYwRTe0mObpTQZlZCRqwIYYAEEWIBxEYIdb2u5386hd9xE1bphSj5A3bgtw/hnZ8HQtH+OCcMjmS0hNP3wRMZJtQcvDkHMSLlDDjfh5J1E9ogSrrCpmmEkngFkGi5YIIIUVOSdlzReN04VaGprcKIBkn+6LYIEvXkDWPELhpKnjlNneCKRZzgSiDBZvOkRKMEMWJvcp1O8ZQEUfIw5UAJQkRNSQgk3kFpZh+JmZJg/zpJLdlQAhJMvtvGgOSuExEjlAUSa9nGPyH5Gwy4hUCCWSAxj//qza2ysdWc2GqBRFDCT9sgRmTpJto+EvsbgBkkGiVPdVEosc8kCYJEUGJvcA2CxHsE2OooRQlNR65v4V6KiUAIwiMWhAhAbsC/r3Qjdku7k+HLT993/rwJC6vIQpT8QaKpyFe/ZvKpqi4MHDX9WBcmTqgKL16LKMFG4U1yVQAjBiX9z/GjZFwz2Dq7C2yanoIgaedr/SSvddJEr7WIELs1E9rCmvFtESUYIoQqHEsYoeIQI165w5t5KAnAhCclmPkSPsQIlarzTUk0Sggk3pTkVLOfhPeRWJMSF0rMso2ARBcNJeooeQKJRgmBRC/ZeE/beCARlPA+EkqDxCzbUIgRH0r+4UeJ79t/9ZkkAhJGCaVBYlDC55EokDBK7CUbSkCiUSJTkqconpJgernGzgkSSlCil2yCU5IgSlx7SkpECYXYqAyU0N4RAkcsCAkuxcSCEHpyR7oZS5s50PlzJyysogtRcoxH54m8d2g4FO1v60bAUdiiTTUMSnrc9Cc1JUGEUNl9vXL6VfWhpGh0A9gyqwtsntERNk5px5UVJgyScXEqREihjkDCjWkD+aPbQB5eswfXhzT9OPAS8703HkoWPodZUxLGiGRPSQQlGiRzECSEEtncyks3lMYIgwSbiiihDa5TKFm20Us3E6X7T/b2kpSAEgaJhRJ7SuKhBEOMCEp4c6uelMiyjUKJxgjWlyKQ2Ke2Yvz4r4YJg4QmJQQSWbbhp23ocDRrQqITkJgpCUZP28iU5EkBiUZJxGPAGiOSQQkipMRHgCWDkkiYuEBCVRZK/tlOYUIAYiPETEFKgRACSARCWqnoSHrq+TtbwP/+96vz509YWEUXouQY7fv/bYOdBx/Fm3y9iJv+0V7uf+vAK7fizUfDhG7sWYgQO4WSsxAjF5sKR9aBLTM7w+aZnWDDpLZek63X2HrdOt3aiXjF1k5QEUjUlESjxIKJoCSfUILlIUxWDbgM0hAk6nwS78v45KkbXrqhKYmFEoGJLN14jwAHpyQq8/021pSE95MwSDCZkuilG4MSWbphlJzsPXFDGNEpkJyklm4QI5Qs28iUxF66GapRYpZtMJ6Q0AFpOjm1lZ+00TCRfSQGJRojvkPSECMyJVFLNio6k0RQIiARlJi9JNjTBBKNErVk40YJ7ydxoURPSJyPAGuQHI0ooaUaAkJxCAkCJCpCLIAIQgQg1D9aq27B7og/CT77cLfzZ1BYWGUUouQY6rfff4Uvf10Bmw/c5LzZHzP9WBdGD6oCL2iUTPzPST6McAiSnH5VIH9IDSgYeglXOOwy2IooodR0xAMIh/AwILEgsm5iHF5VaxAiazG6UkXj2yBK2iBI2vB0RKIpSf7o1pA3qjWs6FOdpyRqT0ngO28QI4ISmZak6qduIqYkmL2XZBZFKHlMTUsMSIIoeUijRE9J7A2uNCWZgCghkNgoMXtJNEpG30t5UxJCiW9jK8Z7SWhCYu0l4TNJ6Ch5TEAiKDGP/wpKblYJSOQoeXtCYpZsKI0SPiRNo0Qe/+UIJJhZsrEmJLRkY5ZtLJT4QGKjBCHi2+CqQXIsoISWaggdBiH4ujiECEBcCKGlmOIQcgv+s261WjV/hPNnUVhYZRWi5Bjof78fgI8OTS3z984cLRXsbwprDyTAxoPdIK2wNaOE6nvLX6zpSBVfeYMuMMs3BJMt01MYJZumxMNGmpDoPIzEmdZKDJI2iBAdIoQqQogUjm3NFYxR5UsIkvzRrRAlrWB5D/s7bxRM7EPTzH4Se1KiUSIwcaJE7yWxN7galCBGKEHJFEpQIiAJTEkm/BtRggixpyS0dKNAohKQ+JZt9MmtrkeA1bKNPkaeQozYJ7fyXhI9IVEg8Ta2ypSEUUJTEp19cquARH23jYeS5wMTEnVAmrWXJICSJ6goKGGYWCCJBSUumJQGJVR5UELd1VYhIxpCglOQWBAiAHEhhPBD3R6n6v9IJ/jtt9+cP5PCwiqrECVHcXS2yAeHxkDh/lbOm/zRXz2ESHNYd6ADbDp4FWw+eJ1pw3+vhu434g1IwyT95TMg28JIbn9V3qDzoGAYgkS3aUo7REknvCJuJsWZNmDrESCUDyYEEn2NQIkFkwiUYHmjWsLqkS0h/aUzzRHzai+Jt3zjBAmHGCGQYAIS39KNhZKZmGxwVVMS66A02kdiLdt4m1ut77m539rgalDinUliHgGWKQkt2yBGKHn8V74BmFGCGOGlG98+Eo0Ra0LCUxK9bMPnkWByYqvviRuNEZ6UYAISPkoeoy/aM1+2hyh5Xk9IDEr0lMSgREASRImGiY0RySzbFIcSSoMkVpQUB5NSo4RCjNzTTmHiuhgRIgApE0I0QCh6tPgOhNCd2MNXnQ/ff/el8+dSWFhlFqLkKOzQ71/BOz8PgIJ9zRw3+qM9GyJX+yASbFSvC/AmhCjBpjxyijch0SChVg84GzFysWnDhJaweWYKbJrWHjZMboMY8bd+oooeH6bWIkIoBZHWCJFAPClpxRWMUfGERE9Jckc0VSCRI+YJJbJ0owuixOwlkSmJ3ksyV4OE4qUbDRNCiSzfEErMuSSStXTjbXBFjGBmc6tGiZmSWBtbedkGkz0kvn0kWMR5JBokch4Jo0SDxIcSmpLYKOEpiYcSOko+4qA0PSUhjHjLNvRlezrEiA8liBHf0o0NkiBKOmMBjETsJTkKUEK5QHJvgsIDPeZL3RBACE9BMB9CEB7FIUQAUhJCpLsQRP+M/zO8uTXP+bMpLKyyC1FyFPXzb1/D2z/3gbx9DR03+8hyvq8LK7+uw9/A6/r1w1nB/mYxQcRuUWZzg5IB+L/EfSAZ4FU4/GLTurENYQujJNEPEo2R9RNaI0b8rR2vIpSsGdcKMaIQwhAxGGmJGMFGteQJieR/8kajRMMkiJJUa1IiIDF7SiKmJDpZusF4SiIowQxIrEmJt8EVQSKPAFsosZdtfCiRCQmBBJN9JGpzqwKJ7CPxPf4bDSUaJIwSzJxJIss3gWUb5z4SPSExKLnqL+ppGwslPCHRyZJNBEoIIyY/RmJBiQ8mGiSHEyWP3fg3eKlXFfjnDScqfCA2BCCl2g9SSoQQQKi7pXgCyQmQPq2X8+dTWNjhKETJUdCh376Fd37uD/n7Gjtv+MVFIFm6pxYs+bAWrPq2jvP3VFYEkbUHEiOWZmJt3bdXQvcbaB/BCXhjOoG/LTjXWrpZjSChCoZWh8IRCiVrR9MTOCmwZUYybAxMSmRKEg0mBiVjW3KFCBHCiAJJCy6PGoWNbMHfDJw5sJb37cCY9yiwBomFEv/5JAgTAQnmPyyNMKJybnC1JyRBlOjlG9pLIigRmNCUxJ6U+A5Ks5ZufBtc5YkbQoletjGP/wpIbJRYyzYGJbRso0HSC+MlG71sQ3lHyaslG/PEjY0SBolCiQGJhZLgBlffkzcaJI9zkSBxoSQIk1hQomBScSi5M+FP0CX5RLjmX2fBQ4PPhYHp1eGF/tXgHwl/jg0hQYBgAhBGCMIjFoTQF/hxCSfAqOeuCU9tDTuihSg5gtGekfcODauQZZpV39SB1Lcvh4XvXQ4ZX9WG3B/dv6+85e9rBGsOxMPGg1c4oVHaRvY8H57X0xK6MTNGJEHJkAugCEHCjbgEQZIEW6YnwcZJrREj/tZPVK2b0ArWUuNVhBFuLOWhRGDCKCGM6FaPbA65WEa/i/3fDqxhIhMS30muQZRY+0kiUILNRJTYB6bJ2SSybGNjRJrESzd+lDBI9NKNoEQ9ceOhhDe3CkoQI97SjQMlmA8kmAskvmUbAgkfI6+/38baS8JP3CBGZB9JxKTkasQIhSgRkPDmVo0SAQmjBBEimaWbAEpimZQcNpRQAZDchuhIaH0i1Gtxsqlu85OhTrOTof31p8Ndz1WDe289xQCkNAgRgLgQQgAJIoSWjCh65Lj7bXXhpwM/On9WhYUdrkKUHIH+7/ef4aNDk6Bwf0vnjb+s8dTko1ow783LGCgrvqgYnND35hTtbwMbDnRxwqI8Lc5uwSihBt7+Vx9G8gZU5QqGnO+hZNjFsHlae9g8owNsnEITklaqia0QIxhChECybnxLxIhqja5oHCKEMDK2BWJEVYAY4RAi+aOaQx5ChCKUUMt7XeDfT2ImJd4prmb5RkBiocQs3ejspRuDEj0pUd9zQyhRMHFOSAxIrDNJrL0kYyjztE3k0g0VcUiaPpNEPf6LWRjhA9L0IWmuCYm9bCMgEZTYZ5KYza0CEkyWbRgkghINEkEJn0nS1Ss4JTF7SY4BlPwj/s/Qrs2JUB8RQjFGMMJI7UD1Wp0Mna4+FW6M+3NMSzGxIMQGCNf+BLhP90jXM+Gjd3c6f16FhR3OQpQcxn7//Tf4/Nc0WLMv0Xnzr6hon8n8ty5nnCx4B3HyZW3n7ysptWE1BfFwbQQmKipawnnx+j+bacnK3mciSKpyeQNVBYPOgTUIEopgsnFKa56U0JM4AhJGyYSWsG4iRldqfAtESQtYM05VhBihCsc0R4io8iUESf7IZlzeiGawmhreDJa9or+ITyYlFkpoWsLfDGyhxIDkqdN8U5KoKNEgUXtJAigJTEgogxL7oDQbJbSXRB7/JZDIlESDhCckghINEt9BaQgRmpB4yzb6KHkLJYQRydtHghjRk5KeGO8lEZBolPDTNoQRCVFiQKJRIiCxj5K3QWJvbj0yKImEiQskFIHkfuyG+L9A69YnQoOWiBFKg8SFkWC1Gp8ECS3+Cre2diNEACJLMVERgvCwEfJvRBJFy0gPJv8VViyYBDt27IADBw44f3aFhR2uQpQcpr79dQ1sPHCN8+ZfGdEm2EUfqKkJ4+Tdy3mJx/V77WiT7Ro+S+RKJyIqI3oK5/mrT+Do5myDhMofVBWKRlwEa0YgTLAN4xsjSjrA5qnxsJEnJS0RJS1hPWVAolGCGKHWEEjGUM2hEBFSOLoZogQRMkrHGGnKrZaGN4U0ehz4xTN8kxIFEjUp8aEE86YkfpTMlhAl6mh5L0GJHJhGKOEpiQslekpiUKKXbngfiQslNkhoSqKXbZwo0Us2pUIJZr4BGOvBIFEoMSDB5PFfgxKaktiTEp6SIEoQIwKS4JkkxxJK7k38E1zR9q/QtNVJjBGJMdLcDRB3J0HtpidBvQZ/g2ubF4MQDRAbIQKQIEIomeLQnzV1Yi949dVXuRAmYUe6ECWV3MHfPoLXfrrfCYDD0fLPa8O83WpqQi3+sBZk7Q3ipB6fhbL+QCcnGiq7pXmtDEpo7wIv2xBGNEiowmEXMkyotWNqI0oSYcs0QklL2IgY2TCxBYIEQ4gQRtYJRsY1V41VRUNJnpmSeCjJHtoQlnanL+JTKJEpifpmYL18Q3tJKMSIt5dEUKJgEnVKouMpiUxKeEqiUWLtJ5mkQRJEyThKg0RQIgeljb5HH5Zmo0SmJJiAZOgdJ5qlG4MSxIi3dEMo+ZsCiSzbEEYoWrbRIOlJKGGQaJRgvimJRonsJZHHgJ9HjDBINEoi9pEcQyi5o/2fISXub9AYAdJQRxihZZrapcIIdRLUkhAml9U/Ea5o+efSIwT/XDZCHrT+7FMGPGBAEsIk7GgoREkl9b/f98N7h4bG/HhvZZb1XR2elAhMqLSPa0HeD41g7YH2pXqMtzLa8MM10B1vcM9pmGT0PNMHkgKalAw9H9bQtGQkRSe7tofN0xIYI6rmiBLVuvHNESSqNeOaQdHYZlA4RocQYZCMaooYUeVhq0eqckc0UQ1vAlmD63oosUBio4RBQlOSaCixpiTmWHkXSuwpiUbJ5OB+Egsl4wklrv0kghIGyUnOpRvZ3DqEJyQqs58EUxtbVf0pBsnfFEg0SnjJxlq6IZDQso1auvmrdyYJTUkQIq7NrQwSmZDonrmCqniUuGBSUSi5v8Of4Mb2J0H7dmdCs7gq0KT1aZEYKe10xMKI3eWNToLrO/7Nh5DgFKQ4hNiNeuGmCJBIIUzCjlQhSio4epzui1/TYc3+BCcQjlS04ZUgQiBZsLsRLH0rHla81xWKvjuyIJHGD7+EUUJNxpuyDZKCwVWhcMg5GiQY4mTzlDawhQ5Q4z0lNCUhkDRDkGAIEWotYmTN2KaIElXhmKZQMFqlMNJENbIJrEaIrEaI5A5vDLnDVKv614Q0CyWULN0UhxKzp+TJ08yExJ6SGJQ8SiBxo8RMSGRKojMgwRgkeunGBxJaumGQnAQjECX8CDA2zH7ahlBiQHIiDEKU2E/c2Cjpp1FCk5I+FE1KLJTwlMQGyfXYdYgSPSExKKHpiCQg0XkgKS9KMAdIyoISF0xslNyV+FfoFn8atEKItIiryjXDmrSuhiCpAnWan1omkNjTEVd1EDr33XtqqRFiN+ixjrBt61YnSKSdO3fCTz/95Pw5FxZWWYUoqcD2/997sPXgrU4UHOnoCZo1+9tBwXddYcW7XWDZ215Ze7rBhh8rbzNrLK3cmmBQ0uvmP3soQZBIa0bUMDDZOLEpbJmeAJsmI0r0hMSFEioqShAjHIKEUihphCBRrehTgyclSxAlsnTDe0kMSk5XKNEgSRWQmCmJAyWIEYpAwih5hNL7ScyUxI2SCZQGCTWWQOJAySiMQMIo0SAZHkCJf0qCKCGQ6CmJoIQmJDwlsSYlDBILJQQS3txqlm08lNibW3kviYUSGySMEgOSMqBEw6RCUEJpkLhQoqYiJ0P7tmdCSwQIxRhpUxUaE0ZaWbWsBvVanOGAh6vo0xFXrTqdBi8PqAr/wT9XLAix6/dgO9iyeZMTIsF27doFhw4dcv68CwurjEKUVED/9/tP8N6h4Xzjd4HgSEZfgrfuQDLe+D10EEAyP+zmg8nyd7pAwddlOwStItp04Fro9c9T8AaFMMHSXjrDYKRwSDVuzYjqsJYnJTVgw7h6sGVaO9g4uTWipJkCyQT8zzpetXZcU56ScGOaQBFWOFpVMKoJ5CNG8kc2RpQ0htUjVDwl0SjJwZb3Oj8SJRhhhHv2dHOKqzpa3o0SPsXVMSWxUeL74j0bJRokZi+JnpSM40kJwgQxEhUl/1QoIZDYKOEpiY2S2wklCiayuVVAIijpSyjRGJHsR4B9IMF4QqKnJMHNrWZjq4CE95IcvSihG/9tiSdC5/jToHXbqtAKE4w0RYw0CmLEQglVX6YmToxQCI1SgET6V+9zoN+U8+Bh/HfiwoerPve1gk0b1zsBEq033ngD/ve//zl/9oWFVXQhSsoZPVWzbn9HJwiOZLRxtbhzRTYduA5yP7vSBxMq86MjNzWZPr0OPIsgoWhZwlu60SgZfoFBydpRNRElbWETnVWCGFmPEKHWjWuCIMHGNjEYKRrTGAqxgtG6UY0ZJPkjG0HeiEawGiFCEUhyhjWEnKENeZNrOn07sGtSQhMSnpL4URLcTzIHUVLc0o2gxGxwDaCEpySIELOXRKYkiBECybj7NEoQIxFLNwwSjPaRBPaSqKdtdAKS2yg9JbFA0p8nJAQSDyWyj0SWbfiJG0xA8nIAJc5HgAUlsp/kKETJ3R3+ClclnAbt2lVhjAhImrumInYaI8HqNQ9OTUo3HQnWqvNpMDznYhgw9wJ4FP+duhBi98pdDWHThrVOeJTUW2+9FX5jcNhhKURJGaPTWHf99KQTBEeqvH31Yc3+tqV6nLfo26t5SmLDhJZ3Cr85/FOT/I86G5R0v+5P6oySwQokRYSSoecyStbShtfhNWAznVeCMIkJJaMbIUZUgpG8EQ251cNVuQySBlz2kAaQ9nIV/eSNQglNSYIokf0k9vkkFIEkiJKZOrW51YESvXSjUHKK2uAqIAmiBEEiKCGQGJQgSAglDBKNEkpAEkSJmZIgSuRpG3tCwss2CJI+nB8kPpTcoDAiCUp8UxIBiaAEMVIpKOlcdpTcm/wXuC7xVEiMPwvatKvKEUZoMtK0TTVohOhoGESInQMjdvVbVEGInOJhpIwgqdXkJLgc67mgOgzLvggGLroQHsP/O7gwQhFINqwrcoIj1j744IPwCPqwSi9ESRn6+n9ZUIQ3fxcMjkR09Lv6DpprnDf7klr3/TWQ8X5XH0yo7I+vgI37D+/UZMjz5xiYzMMbvY0Sau3IGrzRtQhRsmFCY4RJnN5L0oRBsm5sYwQJhhBZgxWNxhAihQQSxAiVzyDRKCGM6AQjVObg+tbjwISSMzyUYC6UmGWbaChBjPg3uBJIToWpiBJvg6sGiUaJWbKhrCnJWAbJyeYEV3M2iUYJT0ruPkkt2WiU0LKNbHClfSRqL4lqIKLEbG61QWKhRB4BNlMSQQkt29gouU6hxJxLgiARlAhMZOnmaEDJfcl/hRsTT4Gk+DMhDhFCEUZoKkJ7RWh5hiBSHozY1W9ZFeo0P82NjZJCiAhIqEeGnwdDESVDsy6CQWnV4XH8v1MQJD3ualRukEifffaZ82diWFhFFaKkFNF0ZOfBx5wwOBLRfpH1FXTiKuGDlm6CMKEndNbuLRt2ytLi7JYGJfREiNpXomDCOBl+Ie8tKRpeHdaNqc17Svgx4HEKI2vGNFKNVhVhhaMaQgGWP1LlTUcaQO6wBpAjWShZNbB2dJQYkKjlG56SFIMSMyVxoGSqjRI9IRGUyNM2so9EUDJWo2QMZe0jsTe4EkqGB1FypzclsVFCIIkJJXrpxgYJRSAxKEGQUAwSSoPEhxIByRFEyb9T/go3dTgFUhLOhLbxVTnCSGtMlmcEIhUJEru6zc+EWs1OduPDlYUR6e6Xz2aQSAMJJjd7MCnLHpKS+u6775w/H8PCKqIQJTH25a8rj5rpCB3/vuFAZ+dNvTxF22dC5X1xeE545TNL8Ifqs1eqDa+rep/FKJEKh55nUEKnu26kp28m0mFpjRAlBJKGXNHohowRBsnIBlz+CFUeYmQ1ImT1sPqIkvoIElX20PqQNUS1sn9NDyUIEkaJnpIISlJLQMnsJ04zZ5MEUTJNN/VhykMJT0gEJRokghKzuVVQ8i8HSmTZJogSwohkT0k0SAQlBJIgSnjpBv9vwiARlGiQ8F6SAEpe0tlTEoowIpUVJQyTMqJEINIx8UyIT6jKtUOM0FSkeZwbIlJFYoSqT7Wgp3PUco4TIXYOkFB/f7IqY2SIlIkwWapgMuChxAoHCbV9+/bwDJOwSitESQn9+tuPR83eEd68erCr82ZekdFTOC6Y0CRl477KX86ZOPYyeAZRQk3GGzVveNUVDj6bQUIVDqvOT97QMfMKJQokkSipD/lY3gjV6uEYIoRRghDJ0WUTSAbXg6xB9WBF34t4QiJTkphQIiCJghLvsDS1bMNLNxolvHQjKHlQFQ0lai+JQsloGyWybGOj5C5vSmKjRJZtBCUDHCixpyQ+lFggCW5wNSi51o8SmZCUBSVBmJQGJf9K+RvcmHQqQuQsSGhfFRI0Rggi9PRMcRChnBihAsiINcYIhSDxqoowOTUqRqKBhLrxkSoGI9LgVTQxqQGFG5Y4UVERvf766+ETOWGVUoiSYtr7v82V/uV5JVePv6F348ErnDfwymrN3sgNsBQv5/y3cpdzVr/b0aDk5ev/bL7/xpxdMvQCKBx6IbdmdD2ESUtYOwZRMqYBvlcVjWqAIFGViBLECGWjhL4d2EYJgcSFEgYJbXDVm1yLRQliRJZubJTw2STFoET2kzBIfEs3fpR4jwFrlNzlRom9l4RQokDiQAlixFu60Si5KYASmpIISAQlDBIPJfayTawoKXYJpxiUPIb9s+OJcH3yaZDS4Sxon4gQoRAktDzTPK5aiRCRKhIjVCRG/NVpdnoESFwQsfvHU1UjQCINXVkb1m3OdqKiInr33XfDja9hFV6IEke//f4LvHdoiAMIhzPCSBxsOnjkzg6hDbCEkCBMqPyvKvfPNfjZsw1M5j9zuvlyPn4iZ8j5DJKCIQiT4TVh3YQWsHYc7SepD0WjsVH1ESMYQoRBMqIelze8HkJElTtUlYNlD9ERSAbXRZTUhWU9z3OjxJ6S4J8rGkpmI0pmEUoQI4wSvWzjRAlihPeTWCiZiNlTErPBNYgSmZIEUcJTkgBKECO+pRtMLdv4UWKWbmRKQii5iQos3SBIXChRIFEoEZBUJkoeQYjc2fEkuDb5dEjuUAUSO1SFRIQIgaRNvIKIPDUTS06MUAFkxJp7OuKO95k0OTkmkFC0pySIkcErVYOwoSvrwoYteU5UVERffPGF82doWFhZC1ES6MBvH/DeCjcUKj95rPdIYsSOzixxPZlD5XxyBf+7cv115W1JXiuDkoG3/82HkryB5zBIqPzB1YG+64aevllDILFQQiAp0CBxoSRnSF0uGyFCEUYyB9WBzIF1IB1/2Ecs3SBIikOJmZIQShgkfpTI5lbeT0Io4aWbElBCILGnJIISnpJER4lauvFQIss2rv0kghI+Uh4xIglIeOkGUcJTEkGJgMRCCS/bWCixpyQVjZIHO/8Vbkk+BbomngEJ8WdBQruzoIOeihBEmiFEGsY4EbGrSIxQsWLErm7zs6BW05OdCAn25LjzI0BCGOEyLoKB2LCMRrB1W2wnuJal/fv3O3+WhoWVpRAlVl/+uhwK9jVzYqGy8zBydHwXjR3tI1n5gRsmq/DzyjhsbeO+a+Cl206Cp69AmGDLXzkTVg+oasofcgGChFByIUKkHqwd3xQhUg8KR9ZDjFhZIPGjRIFEoSCpMR8AAKGgSURBVAQhQhjB6KkbfvLmpSoWSKKjhB5b5imJoORJa+lGo8Q+m8RMSRAjNkoIJD6UPKBQwlOS4NKNgMRGiXM/yUneEzcWSgZRiJEIlOgJCU9JBCUIEqpXKVHy4jUVi5Inu/4F/t35RPhHp9OgWwoCJOEsaE8YofNE4s6CZq2qQMMWGEFEQlDEmhMjVAAZpaksIFFVhXoEkybFw6Ruy5Oh/7IaEdMRwoiAZGBGDRi4ogaMXpngBEVFRPtL/u///s/5MzUsrLSFKMH+7/ef4c2fXnJiobI7mjFix48MB46ml2iJZ10l7DOZPrMeo4Si8zhy+1c15Q06H1YPuoDLH3YJrBnbRIFkRF0uf7hq9TAdIoTK1RDJGVKHMUJlBVCyckDtwJTEQwmdT6I2uNKUBFGiQRJEiVq6OU09dRMFJWo/yakGJOrANNUEB0oIJEGUGJDEgBKakNiHpfn2k9zioYQ3uFooof0kjBLECB8pH2XpRlCiQFJ+lDzW9a9wT+eT4aZOZ0CXlCrQKbkqdMRSkqpCu4Sq0LRlFajXrArUaYo1UdEN3YWO4nJihAogI9ZKs1wTGYJEal4lOkwanwQ3PFwl6nTEBskA3aRV1ztRURHt2bPH+bM1LKy0HfcooeWajQeudoKhcqt3TGDEjpZqXGeZULQplk6Hdf11ZW3NF93g2WvxfykjSp6/5k+Q1acKgySnH8HkHAQJweR8yB14gTq1lTa1WiDJG1YHQaLKHVqHIeJhpDZkDfLKRIxQqwbUgox+Nb29JNhCRIl9YJpZugmCRKPE20+CKKG9JDobJQQSH0oQJBQt2/j2kyBG7LNJ/Es3CiUMEiwIkgiUIEZ8J7haUxJCib2XxL/B1UOJvcG1hwUSRolZtik7Sh7udiLc2flUuK7TmdA5paopmSDSvio0b4uQ0JMQuoHbIJEatIwNJk6IUBYwSlt5MGJA0tyOYHKKDyNU44RToO+SGtGnIzZIlnvNy33SiYqK6Pvvv3f+jA0LK03HNUro7JHDv1xDG1hbHzV7RkpbcTCh8r6s2PNMxg652ExL6GZOIMnpV0XBZCCBREUYoYPSfFOSobW53CGqHIQIlc0QqcVl6lYNrAUrB1zOrehzsUIJT0g0SjRIBCU0JTF7STDZS2KWbqKghKckNkoe8lBCSzcGJffr/SSIEXsviUEJgyQSJQQSGyW8bEPpKYmghEDiX7rxo0T2kzBKeOnmb94GV42S4JTE20sSO0qeQZA82O0kuK3LaXBVp7Oga8eq0EXXoUNViEtQ+0P4VFVHdWlSEkAJQcWFEDsnRqgAMmKt4qYjrjRMNEjoiPonxpxf7HTEBRJa6umXXgMy10x2oqK80TcKh8s4YeXtuETJb7//D949NMgBhsqNMHK4H+2tjEqCSc6nFbcBNnt3MjyFIKFevuHPkN23iil3wHkMkpwB50Pe0Ev5OPn8YXW4PA2SIEoIJNkaJIISAglNSBgl/S+H5b2rq6WbElBipiSEEr1sMwcxYqNEQGJQghDx9pJ4KOG9JIKSB04xyzYRT934piQeSuwpiVm6caDEnpIISvoLShAklIDEiRJZtrFQYu8liQUlT135N7jvipPhH13PgKs6V4FunapyBBF6cqZ1fDVoQt8zg+iIhhGJIBGBEoywcjgwQlX8dMSVggmB5IEB55Y8HbFAQhgxIUr6LbkU1m7McsKivIXLOGHl7bhDCR0V/+rBu5xoqKwK97c4LIeeHc4YJlH2mFBZe7qVCyb010qDnj0HnuqGMMFoaSQLQUJl9zubQZLNXQAFdIQ8T0hqmXKHqHIGqwgk2YMuh6yBl0MmIoRaRSFGVva/DDL6XQbLelzgQwkv21hLNzwl0SihZZvgBldByUwbJbR0E9hL4kMJYsR76saBEgJJtKUbDRKzdIMNvVMlIOENrgGUyH4SAgkV3EvCG1xl6UajxOwlEZRokESixH9GyWNXnQj3XHEq3NTtLLiqS1W4kuqslmboiZmW7dT5IQKRWEAi0KCbtgsm9fHzygRJ5U5HImva7mx4bGT1Uk9HfCDRDVzSGLZs3eiERXnbt2+f82dvWFgsnUCH3xwv/fC/nYf1MLSC/c3+cBixo82v0Z7KoQgtZflCPxskVPq6tgYl/W75K+8toTIxBkl/FSGE9pHkDrnclDNYJRDJGniZKXOAahVGx8qv7FcTVmBpr5xn7SXxUEL7SNRjwLR0gyjRIBGU2CChBCNScC8Jo+Q/iBJr2SaIEt8GVwslNCWRZRvzGLCghPeSeCiJusGV0iDpZ6NEg4T3kghKbvybf4Mrxks3UVDyPPbIVSfDXVecDtd3qwJXd60KV+k6IkTata9mlmVcORFih5iwc+0toRgQBA9XGhdl6fBMR7w633QxjEhPgmlFKTBkVU0PI1GmIz6QIEJskHBpNWDCspudqChvb775Jv+8dd1wwsJK6gRaAyxNdLTwkejXX38tV5/9nA55+xo58VDR5e9rrL8oz33T/SNFjwtHO2CNIrTEejR9ECPURmrfddDrwTMNTBY8dwaDJLM3TUvOhSwECZUz8CJ+7NcFEhslmTqCSAbFGLkUVvRVLXn5HGvZRqOEpiQWSnjpRkCC0QTHoIT3kngoCe4lEZBMZpCc6ttLoh4FRpToCYkPJYgRez+JjRIBiTrFNYASxIhzL4kFEoMSPSUxG1wpBElPCyX2XhIbJc9d+zf4z9WnwB1XngHXdasK12LXYDQVSUaIxCFE7GWZaDkRIiEmXPE37zpQQlhhSODvqQiQHO7pSLP4c+HR/s1g+pquMAOj6+TCJBi08pJST0cEI1RfrPeiGpC2eqgTFuXtq6++ct5wwsJK6phBCeXCRkn98ssv8M7BoU48VHR5+xrAugMd8AZb+d8PczS1/odrYMW7bpRQhJaSzjJxYoTaT10LC7NbwpMIEoq+PXgVgoTK7FONQZLZ7zxYRdOSYfS4LyJk8GVc1iCVgkhNWDVAxZMRGyUEkj6qJd2rGZQISAQlCiSRSzelQoks22iQBFEy/n43SmTZhlFyj0LJCEpAYqFkCIHkDsqBEgKJtWzjA4mNErNs46GEQGJQQhC57kR48JpT4farzoTrrqiGIUawK7tWhaTkatA6oRo0JojEgBHKCREJMVFc9qbX2lJjemy4arkxQh3O6UjjuLPhnmcbwITsjowRAcn0NV24SfkJMDDj4lKDhDDCLa0BfbCeqZdA0YYMJyzK044dO/hntuumExZWXKVCSRAJhzsXOorr519+hB0HHnECoiLjs0YOxMOmg4fvK/6Ptui7clwgkYqDiRMkjBEFEpq0bPj+Gnjl7lPhya4nwFPY4hfPgJW9zuIy+54LqwgleM0efIneO1ITshAhWQgQKhPxkdn/UoSLamW/SxEjqhV9L+GW91EtfrGKb0rCjwD79pJ4SzdmLwlmnrixUEIg4b0kBJISUKLOJolESXAvCTVSUIIgsVHCU5IASnx7SRAjESj5hx8lNkh8KNFTkueuOwkevPY0uO3qs+CGq6rCDVdWg+uxK7tUgw4IkZbxCAyByGHAiERwMCBBjNgRCoLIiLXDOR1plXQePPByY4WRtTZGPJBQ07Dxq+OiYsQHEkSIAQlCREDSZ0l1bvDCRNi2basTF+Xpk08+cd50wsKK65hBiQsdxbX/l89g0/4bnIioyI7lx3srumjfLizRNIWmKvL7nRihBCMaJNKcJU0YJdTQu06EjJ5ncSt7nw2r+pyLV8RJ3wsRJrUgc8ClXoiQzP6XIFxUKxEgVIaOHgGmlve+GJb1uhgWvXCmnpJ4KJF9JLyXBOMpiQUSJ0rsCYkGSQRKECO8wVWDRFDiW7YJoEQt3WAaJIIS2uAqSzcKJSdGfvmeBklJKDEg0Sh5/oaT4D8IkduvqQI3XV0NbryKoolINWifVA1atENc2BA5zCCR6MYeBAlFWHGBo6QOx3SE/tzX3XM5vDyxDUwv7GIwEpyOCEa4ItXo7OYRIClpOmKDhOqReiHMXdXdCYvytH37djh06JDzxhMWFq0/5PLN94fegDX72jsRUVH90TexljV6HNgFEklg4gRJYDoibdCt23s1dL/9FEbJ091OgKXdz1Aw6VWFQSJl8ybW4kGyoi9CBFve5yJVb1V6zxpq6YZAoickvs2tAhLXlIRCjBBIeEJSDErUlMSNkuCyjdlLgtGyjVq68VBib3C1URLc4Gr2klACEqyvhRKzlwQx0v3Gk+Ch60+DO6+tAn+/phrcjBghkFzdrRokIkSaR4MIhaAoKSdCpAA2SsreL0L7SFwwqSv7S2Kosqcj9Ps63XQxPD6wOUzM6QgzESJUSdMRwQiHgKGGraofOR2xQYIICU5HqN6LvV6adREUrF/mxEV5+vDDD503nrCwaP3hUPLNofWQ/2NzJyQqorx9DWHdcbKJtSwRMIp7Iif9LYJJV4TJtQ6QIEJcIPnRa/biJvAEooSim/GKHmdxK3ufw2X0OgfxUYOXbBRELkaEqDKsfCghkPS6CJZh6T2q62UbDyXePpJIlMheEv+yjR8lDBIKMUJNxhgkGiX2XpJxekoiKKEpSXAviaDEBonsJaFk6aa4Da7qBFcLJXpK8spNJ8LjN54G/7yuCtxybTX4B2KEQHLNFdV4j0ixEJEQFSXlhIikoRFrNkgoQoELJRSBwIUQu7JjhEJ0RMFI4zZnw7X/vByeGd4SxmchRNYhRCjBiA8k0acjNkioqfmdYODyy0o1HbFBQvVYUB2GLujihEV5O3jwoPPmExbm6g+1p+Szn5YzGlyYKG9q30jCcb1vJNZoEkLHzrtAIhFM1iFMfCAJYiQAEoLM2u+uhhdvP4VRQgeq0d4ShknPagwSakWvcyGz36UIkosQI14ZCBBqBSKEWt67BmKkBmIE61mDpyRLXz5fL9ucEbmPRFCiJySMEpmQaJDYKDFTEntC4kCJb9nGQolr2SYCJQQSWbbRqb0kCiWydBN9g+uJ0PvvJ8JTN50K/77hLLj1umocgYSWaFI6OvaIFBeioricCLFDVMRaECMmRAVNRVwooQgPQYhIFblcQ58nXVsD7n6mAfSYEoeA6OxBRGPEno5EBUkUjEwrUE3FJuZ1gP7LLi7VdETqtUj14swLIS13hBMW5SmcloSVpj8MSj78aaoTExWROom1Yo9P/6NH34PjwoiUhi3XE5OSpiP0e+x4WtLlBI6+ln/5K2dxDJKeqlV9a8DKPl4ZCBBqhW5Z7+qIkeqQTvWsDmlUj+qw+KXzDEh8KHlKFVy2CU5JDEo0SAQlZh+JhRLfI8CIEUGJfXqrey+JAonZS6InJIwSmZJgAhJGCWKEMqe3Yi/cfAo8eNOZcOcN1eD266vBbYgRmop07Rx4aiaWEBQl5USIhJgoTU6MUIILBIELJJR5TNiqopZrEq64EG5/vB68OK41TMztCLPWdzUFQRI5HfFAUtJ0RDBiyu8CY7Jal2o6IhjhFlaHnqnV4ZUZjWDTlrVOXJSnn3/+2XkDCgsLdswv39Ajv28d7OfERHnL398ENhzo4rzphpVc9sdXODHC7aY6Q8Z7BJNrip2O2NF0Zc13V8MLt50CjyNK6BFh2gOS/vJZsKxHNVje82zduZDB0xEPIjwZEZBEQ0n3c6PsI5ECIAku3Tyql26KQcmkB1VRUYIgGatBwiiRKUlJKLFAYlBym4onJFivW06GJ24+A+65qSrceWM1uEOD5Jpu1SChQzVoQgeaudBRXIiK4nIixA4xEWtOiFAWMKS6zVzLOGdxNMmQ31dWjNBju13+cQnc+0JDeGVynELIBgQIVQxGKmo6YoNkim7oigalmo4YkOhemHEhTFv+qBMW5Sk8fj4s1o5plPzyy8/w+oEXnKAoT3TeyNoDiXhjPb7OG6nIaK8IoYKWcXwgYYwokKS9qVr1AcLEgogLIwKSdd+rZi9pyiih6Emc9JfPhPRXzsKqmeg7bCQCiJTe60KEiK7HhZD2imrpyxfCohfPcS7b2CBxTUloOqKWbfwokaUbnpD8R2WjhEEiKPm3BomFEt7cSiCRZRsECcV7STABCWX2klC3eygZcOtJ8NzfT4V/X38m3IEAIYxQNBXp2LEaf/NuqaYiEoKipJwIkRATpcmJEUrjwpULJCr1mHCsIKG/V8IV1eHmB+vAYwObwaDUBJixrgvM2qgRYlcMSIqbjsQCkiBGbJBQk/I6Qv+0S2KejhiQLFC9PL86PD+Zvhsn14mLskZP4tDPbNdNKCzM7phBSRAkh345ADsPPuZERXlSj/hW7FfwH2/JBlaKHhMOTkdskEh0JH00kDBGKA0Sas1318BLd5/GKKGncQgSaS8RTBRI0l7Ga49zYTkCZBniYxnig0rvcQGXplv6imrJyxfAYmzhC1WjgMRCCWJkNkLETEiCKLGmJL5lGwslBiR6QsJTkgBKgntJ1D4SFaNEJiQ6b4OrAknvW0+Gx28+He6+virccV1VuP3aqnDrNXTUezVoq09XJYxUBkicCLFDTMSaEyKUhY9o0cFpfoyoamH0mLALIFTbzhfADffVgof7NIW+s+IRBJ1h9sZuWFfOiRELJEGMxDQdsUESwEhx0xFqspTXGcZmtYvAiAskMh0hjNBGVy61Ojw37QKYuPQ+Jy7K0xdffOG8CYWF2R2TkxI6FO3VA/c5UVHW1FJNZ+dNNiy2bIxItJF1FYIjOB0xveGV88mVbpBYGFkr/fdamJ/ZCh7vfAI34Na/QVr3M7EqiBNEiS695wU+jDBIXjmfo02t0pKXzofF2ILnq0Si5ElKT0gIJHpCEkSJTEnsCYm9j0RQMhFRQiDxoQRBIigxG1wRI769JIKSuxEl1hM39l4S6uVbToX/3HQW3IUYuRMxQiC5+cqq0CGxKjRoQU+gVGFYlAkkCIqSciJEQkyUJidGKAdAoqUOU/MwwjVS0a/TZtRbHq4Djw1oBv1nx+NNvzPM2dRNxRCREBzRQHIEpyOCEWnS6s4wZHnDqBgJTkcEI9JLcy6EZ8ZXh6INmU5clLWdO3eG34kTVmLHHEp++uW/sPXA7U5YlCV6qmbtgfZ4Uw2XasqTCyPyZA2d9loSSJa+rsr/6qqo0xHBCLWG+u5a6PHAWfCYhslsxMPSFxEmL1WFpQgSKu2lcxAi55uKAwltck197iyzj0RtbD0dMUJFoiQCJI+cFgESGyVqc2t0lIzFBCT2XhIBidpLokAiB6UJSgbdcTK8cNvpcP/fq8Hd11dTIMGu6VoV2rStAvWbqa/zlxq0rOpGR3EhKorLiRA7xESsOSFCBcARS7R/hEBCrztcUx1uur8WPNizMbw8sTWMTO+A8OgKcwUhFkY8kMQ2HfGBBBFS6umIDRIESGmmIzZIKNrf0nfJJREgiTYdkV5JvRBemX8hPD3pfJiwpOKnJXv37nXeiMLCpGMKJQSSzftvcuKiLBXubxmexlrOghgxIAkchJb1UTcnSAQjEv1a4bfXRGJEg4QxQu1VLS5sxyihev/9r7AEUbK0exUMYYItocnJK+dxS1/WIT6kJdji7qpF2PxnzvQt2UQDCaNEL9nw5lYNkmgo8faReCgRkKjHgP1TEoqXbQQlBiR+lAy44xR45rYz4d+3VIP7bjkb7v3H2bxvpHNKVWjair73xY8RO8aECx/B6PeVkBMhEmKiNDkxQgWwUVy0/HL9vZfBAz0awStT2sCAefEwankHr2VeE7M7RoDkWJyO2E3M7QwjV7aOeTrCGNEgoZ6ffgE8O+FS2LC50ImLsvbuu+86b0RhYdIxg5KKBAmdZbL+QEfnTTYs9pwYoRwHoa377zVqWuKYjkhLdMve7soAcU5HNEa471QDnjvPwIQmFkteOJMx4lXNYIQQwmmELHrxPFj44rmmec+cUSxKzITEBokDJQYk1j4SQYlvSmKWbTyUmL0kiJGIvSQaJX3vOBWeuu0sxMjZHIHkzhvPhk6d1V4RwkhxIKFkGafYEBUl5YSIhJiINSdEKAc6pGbx50Dnv18CdzxRD54a0hwGzo/Hm35nmL+1GzeP2tINsdAlAiOj0lU0LSEoHPHpSBSQRGCEKgEk0oCltWOejkgvz7sQXpp7ITwx/nyYsfxZJy7KU3j0fFhxHRMo+fnX7ysMJEX748ID0CogJ0gC0xFJHvXlaUkJIJFWfXhF1OmIDZI1314LK3elwONd/gSPdToBXrruL7D4+TMQJmfxF+stovD1ku7n8vIMFwUkC15AlARAYqYjUhSUmFNbg1OSAEgMSiyQCEoMSCyU2CCh+tx5Gjx+e1W4/9azOQLJbTecDUkd1eO8jXX1ERwuiARr0CrKMg6CoqScCJEQE6XJiRFK44N+T/urqsPND9SGh3o3gV5T42B8Vgqi4wrEB6UQIjFGKASJND4zxQcSwog0enkyYuPYno74QJKjGpPZPubpiICEQ5Q8M/kCeH5SPdi6dbMTF2Ut3PAaVlylQokLDJVdRYGEN7KG31VTbDLdkKdg1n1PyyjXwNq9XkXfXQ2F33rlf32V6qurIO/LK2H1F9jnXrnUZ6qcT64oESPUYmqXgknWx1dC1p4rIfsTHb6Xcj+5Cv+e2KdXwfBBNeFRRAlFh4/RF+opkKjoqZrFCA9qEYUAWfjCOaYFz6u86UjJIFEbW2lCgijRGLFRYk9JGCQPWCDRKKF9JGYvCaEEMeLa3NrrrtPhMcTIA7edzRFI/n7d2dA+2YOICVHRELHhQoivpurKyDiKQNIq+Ty46s6a8K8XGsCLY1vBiLREmLOpK6S+egWkblPNp4oDiYWRuZtVM9Z28U1HTGkd8J/RAW/mHUs/HbFBggg5GqYjAhIuuzMMTGsQ03TEBglNSl6YeSE8PuZ8SMsZ48RFWXvzzTedN6OwMOqonpQc+nVfBYCkHh8P/0fayCpwEDAQFOgE1cJvNA40DAQCdIhZ5kfd+LFbOhMk430VfTkeZR8FX1z2IWjFnTviK4blGokxQiFIFkk7rXZYvdYZFlrNW58ET17zV0bJM1f+CVKfOQNhQt/2exa34Dl8/cLZCJJzECQEkbPx87MRIqrU586G+c9WMyApDiU8IdEoiQYSSo6SF5DYKDH7SGRKoveRCEhoSjIC6333GfDYHVXhQYQIRSC5+dqzIS7RjRE7Wp6JgIhEINHReR1HAiN0+FjHGy+C2x+vC08OaQYD9NLLgu1XmBgikmDEgMSBEcoBEm5TNxi7KtmHEQEJh5/x2SOlwIgNkrJMR3wgQXhUxHREMEJNwMauSoKeqTVKno5YIKEncKgnxp0Hw+Ze78RFefrpp5+cN6SwsKN2UnLo1wOw7cBdDmTEXsH+ZrDx4BXOG/uRjpc89ilY0NMphAo604NAIZjI2qMgQV9wJ4hwYaGyc2KEKubckeIwEhUkiBADkmIwEgQJtQAbMaaumZYMufNEPi5+4XOIEiz12TPxfRWFkOeqIUK8CCPUvGeqOkEyk5IJCULE7COJghJ50sZeshGU0EFp3sZWL/tMkpFYn3+eAY/fWQ3+c/vZHIGEJiNtXRhxgISQQU/YFIcRO0KCCyF2TohIAXAEa51yHlx7d024/+WG/NQL3ShTX+2G/7e7gltAFYORsk5HBCPydA3BwJ6OSMN1Y1bSMk5sIIlcrjl6piOEEbtBaY1jw4gFEn40ePL58MTo6rBx8xonLspauIQTFq2jclLyy68HYfuBB5zQiCV6zHfdgQ5ODFRmNMFY/4OHDJpa0MRCgCFTCteX1R2tOUFylExHBCPc9s540+oEz991BjzSUW16JUgwRp4llJwF85+hL9qr6gSJjRJ7OiIYKQkkU3T2ko1/2UaBhJ+2QZB4+0g0SDACSZ+7aZmmGjxw69nwwC0YXm+6mr6Lpqq6wSMAGAkBhNjZyzCxgISix2ZtgNhFAMQugA/65yZdVwNueaQ2PDG4KQyY1w5v0p3w/35XcAsljZFYQFLcdIQqCSTBJ2vGZCQ7QSJNzu9ULEZiWq4pBiMxgaQYjEQFCeLDBZLx2Z1gbGYy9JhfPabpCNVdR8fOPzrqPFiYOcSJi7K2e/du5w0pLOyoQ8mvvx6CXQefdGIjlgr2N6/wL8+jqQadnUHYoCUS2jtB0wxeFvmw2xGHRvrbnUxpbycH6hDZW4lRW/pWPLdkd2SLqTfjYdGb7VRvBHodf+319o4SsQ6qXV4LdyXBwp26XSl4VS3aSTcxP0aiggQxQqVSr+IP8bTWjBKqx41/ZYjMR5jwlTsTMUIwqYqfV4V5EoHk6bMUSBAiZv9ILCjRyzVOkGAEEkYJ7SMJTEkEJf3/eRo8fltVePBWBMktKvqW3lZx6ikaVwQNft28Cm9slW+qpQkJ14q+rTYSINHis0sQGrGCpEXiuXDVHZfy3o/u41vBqBWJiIeu+H8/BZBgToxYIAliJKbpCFXCdMQGCW1knVLQ2YkRiSYpM9d2iXE64oGkLNMRGyQVPR0RkIzPUg1Y2iACI1FBMlv1Ivb42PNh2Ny/O3FRnuh7y1w3pbDju6MKJXQ42hsHuzuxUVLlmY7w/oz/XsPTDQGHTDZKu2SicNARb/4WCN5qr270b7XF4mDxW21g0VutVLubw8LdzbCm3ILdjbFGkLq7IdYAqw+pb9bD6nLz36ytqwXz3rysUpr7htXrl8Ecq9nULq9Z0k6vmTusXrsMZkjbA716GUx/taZqm9c0q+lbL4NpWy/npm+rhe9rY3WwejB9S328qmZsaYg1wBpDTwSHwISWSggj/KgvNpcORXv2LHxdBeY97TX3qSow58kzDEgMShwgmUY97AdJVJQQSO73g8RGyeB7T4On7qgC/0GMEEioW66tBq3bIigsgATzTUCKy4EPDn+N/178FfsKMfYkJggQWn65/l+XwcN9G0P/OW1hamFHWLzrChNDRHJhhAqC5DBOR+xHfWlZZuRyB0iWetGTOsfEdCQKSBgjFkio0Ss7RE5HLJDIdEQwws2ig9QugKfGXAbbtm114qKsffvtt86bUtjx3VGFknd/Gu4ER0mVNB2hSQft3aANobSkQuigjZ804QiCwmCCIdGOEbHkndaw5N1WsPTdFpD2fjNY+kFTWPphY0j7sBFWH9L21IP0j+tC2se1YNmntVWf1Ybln6tWfOm18us63KpvsG/dZWJZ35Ut19+P/lnyz6UyvvL/meTPSX/m9E9USz+qxS35ULXo/Vqw8P3LYcG72DuXQ+rbl8O8tzzEEFh8IEGEGJA4MGJAoiESxMi0raqpdltqwhRqs2oytUm6FCZtVI3Luxgeu/rP8DCi5Oluf+YlmblPE0gwetyXX59lmvMUdSbMfsJDiYDEfspGnUXiBolsajUgQYwISCjeR2JNSYb96zR4/s4q8NBtZ8N/KMTInTdUg/j2lYyRQHUcNWl3NnS79WK457n60H18SxiX2QFv/F0QDF0RE90YHrFgxIAkiBELJEGMVNZ0JPioLz1pEw0kw5aoCBQlTUdiAUkQI6UFSXEYiQoSCyPjMr36LaoX03SEMCI9N/0CeHjEeZBdmOrERVn78MMPnTelsOO7owYlH/88xwmO4qJv85XpiIGHnnZkf9IFVn6YDMveTYSlb7eD9PfaQvoHrWH5hy1h+Z7msOKTprDis8aQ8XkDyPiynoECg2BvHcj5vi7k/uD+5/4Ry/3RCv9z50j47yH7+zqq/6qyJPz3JGUiiCRBEKPnCwUegg1NWWKZjghGfO8tkDBGDEgu9YFEGjDmbHg45QRu4O0nGozIRta5iBCFEQ2SJxVKZMnGfsJGQBJECU9HdC6UjOcJiR8ko+47FbrfdQY8fFsVxAhNSKrAPTdVgQ5JZyI6zkRQUGdxhwMkTdqeDZ3/fhHc8UQdeGpoUxi0oB3e/JK8crwmZHtNyk3Gm2kK3oQ7wsx1nWH2hi6IBHpsV29ejQaSIzQdCT7qS0/ZmCWcAEa4xR1gzIrkkqcjNkgCGIlpOkJV4nTEBsm4VZ1g+PJ2UUFiT0ekF2ZewNG+khnpzztxUdbou3BcN6Ww47ujAiVfHMrCG2O9iBulK7ph0v/6p5te1letIOvL1rDq8xYIjCaw8stGsOrrevzrBhZ4k3X9fcJUQYwYkOC/OwMSjREDkigYIdBRMp2hCCXzdl/uX65BaETDyMztNSH1ncsh/VPEjAbNMixdT3GWfFwLFuvJDU1tUt+5jCc2c9/U05pdNWHGa+rv/fz9JzNK6GkcAoSAhJr9BF3PQIxgNCFhkJxupiM+kFhTkqkIEt7UKiARjFgg8faQWChBkPT652nw8O1nIEbOgAdvPQPu+8cZ0DHlVKjT7CSo1SRaJ+tOgVpNT4XaTbCmp2GnIyqoM7AzMYQM5wYIRXtMUq6vAXc8XgeeJICktkVcEDAshEhRMCKNz9JlRjYOm5CdjDfVFLwZd8QbeGeEQBfEQldERzc/SBAhpZ2O+ECCAIl1OmKeqNGNXZkcFSRDdZNyO2mMHLvTEcIINZZa2Ql6zLvEw4gNEgdGuBkXwJPjzoeBM6924qI8hY8GhwU74ij57tBmyN/XxHnDtKObJd0E6cYYQqNiCoKkuOlILCAJLhct/qCWWr6JYblm9s7LYBH+foaIxoiAhJaVeGmJQqykf1qLS/vE31IEi2lPLZi79RJ4tOufGCbPX/MX/sI+wgjFyzR0xRgjUUDC+0dcIEGE2CCJ3NSqQYIYGXzvqfDEHWfAQxZIrr3iNGjQgrDhgojX5dFqXFz49218CrRIPgOuuOtc+NcreBOaWh9GrWoOY7PbwPgcmoa0V/hwVQxIDEYcICGMcKu86NFfuzEr6ZqMf68UmLy6I0wt7AzT9abSuZsRLRZGDEhcGNEgCWKkuOmIL/znTcnvFIERA5JFquFLkxgdlTUdKS1IghiJBSSMEQ0SatCS5sUu1wRB8jz29OTz4akxdZ2wKE/ffPON88YUdvx2xFGyYf8VzhtmWOUVxEhM0xELJEGMBKcjBAfa/OqbjlggsTFC0w0ChMGINR0RkDBGLJAEMeICyRLd8Alnw0PJJ3BD7jzJ7Bnx9o6UAiSIERskUVGiQTLyvlPh+btOh4ctkNx+/enQPA7R0NSNEMkJEcqJEPxrmp0Eba88Da5/qAr8Z/C50HtBdRiccZFqhWrQihpey2vAQGzw8kvx1y6DIRl1YFhGfRixsjHipRnWEsasioNxWQl444sRJIiOaBgRkJgykmA0tULqwNHn47OS8YaMYCnoBDNoyrK+ix8jUUASy3REHvOlaGnGTEkEIxokQ0yJ+J8t5eidjlggCWLEno7YjcpIhpdmV49YrgliREBC0b6Sh4adC4XrVjlxUdb27NnjvDGFHb8dcZR8c2g93ijrR9w4wyqnIEgqdDryVR3eBBvLZlZabklHTAQxEn064gZJECMGJLRJF1v0weXw/D0nMUoe7fQnRgVjBPFhQ4QxQtkgQYio/SMeSGyURIAEIUKNxXr/63R47O4zuUfuOhPuv/UMSEo5Feo2PxlqN9M1dePEiRHKQkjdFidD4g1nwC1PV+OjwPunIzBWIj4owYgGSRAjApKBy2rAAAn/eql/mr9+fL0EBqZfBoPTa8PQZfVh2IrGMGJFcxiZ0RoB0w5vfnjzRnhEm47YGPGDRGHEbhTl+EZfOl+EnoqZlNMRb/K0rNIFZiMuSjMdkeTJmrErUyKmI4IRaeiSRJhS2NkNEgTIsTAdMWWoeqbWLnE6YkKQUA+POBfSssc5cVHWwvNKwoIdFXtKPvp5mvMGWpkV7GsOhftaO2oVeO1VsK+lVQtdc1P+vmZ4bcbX/H1NdU10jXWNIM/UkDfr0uPMCmaVi7PyTEd8IEGEBKcjaR/X5qdvok1HBCSCEd4AGwBJcdORWEAi0xHCyGKrmesvhkc6/wn+gzB58dq/RGDEgERPRbhYQfKASkAy+L7T4Jl7ECP/VCB5FEFy7dWnQaO4k6F+a3/1qFZedVuq6iA46iBe6jBeECoIl3r4eYcbz4BbESFPjT8fgYHgWIUJRBwYiTYd8YGkGIwISExLq0NfaUl16EMttlpyEf6emjBwaW0YnFYfhqQ3gWHLWsCI5W3wf53HIyoQHcWAhDFCOUDi+hI9OZV11HLCD4KFloQQK9OKOiM4rOPiHRiRR30nIwhc0xFpMLUwEf98ycf0dERAMkY3aEnLSJAgQFwgoSkJ9dio82Da0uecuChr27dvh99++815cwo7PjsqUELtPPiE80ZamREkivbF6dpGqZ1V8L0U7yghojURtXeUqFO/R/219PeTf1ZbBFKcrg1XwGASNCkoeTBqAnk/NobVPzZS/dAAQVIfQYJV0HRk/lslT0fosWGChAsjFT0dsUHCm2KxYePPZpRQtIwTPAjNBglBRO0fiQKSB1UGJNgYBMnL/zoDHkeMUISSf/7jDGiTeIobI5QFkmD0+wgh/3z5bPxftdVh8pZLYfpr+O8S/91O2VoTJm26FCasvxTGFF4Cw7IujgBJECNlmY7YGDEgQYi4QNKbWmS10GqBqhdfL4G+iy6HAYvrwqClDWFIWjMYltYaRixrVyxGooFEGu5oJGKFpisTsjsiCBArCAkbJLR8M72oK09KnBjRIJEIMMWBJAIjVBlBEsSIAUk5piMCEmrUihR4caYfJEGMGJBMU/EharNvc+KiPB08eNB5cwo7PisVSlyYqKh+/vVHvqm68FCZ0Y3bg0k0nNgAUTCI/IwqGSaUHyZUcTiROsRYkr8fk1U/qIqo71WF3ydB4X+ToOC/HbBEyP9ve9XeeMjb25Zb/V0c5H7XGnK/bYW1hOxvm0P2N82wprD8k8Ywd1d9mPVaXZi5vQ6CpBZGh5x5IKED1ggP5vHgAEgqazpCGBGQ0BIOnbHywr9Phv8knQCPpPyJURENIzGBBJNNrf3vOw2euucsA5KH7zoTunQ9DRpohESAxIEQqkXKqXDzY1XhuSkXwPi1l6iniOy2I0oohAk9Mj264JIIjBQ3HaH3QzIvgqHYkFX0+y6KwIgLJBHTEQskjJESQEIY4RBXvVIv5HrqekjzKfz9qZdgtaDfwvowcHFjGLykBQxdGofwaG8wYoNEABKRfqom+GTNcGzUsmQYszIFJuCNnbAwIi0pEiQWRgYvUI1MT4pcrkF4lHY64gNJACOxTEd8IEGExDodsRu9gp7CqVXidIQw8qzuifHnQ6/JnZywKE979+513pzCjs+OmkkJ9cMvb/NyhgsPlRktq/hhEgtOgu/tSsZJbDChyoaToh+TvH6gPJAwRjRIpAJqL5XM5X/nVfBtCuRL36RA3jcdYcUHSeq4+J2qhYEWvdEeVu7pADlfYV8mQvaXCZD1ZTxkfdEWMr9oA5mft4aVn7eElZ+1gIzPmsGKz5rCik8bw/JPG2H1If2TeoiQOm6QIEJimY4ISKSZmy6Gh7v9GR5EmDx71V8MRooFicYIJXtHBCSj7j8VXrz3DHjSAsmtN54OzdpFTkeigSTppjPgvj7nwAAEAMFjxg79SHMAIzZIaEJCsAiCJIgRAQkBZGzRJTBp86U8YZEmbrwUJmy4FMavuxTGrrkERuVfAiNyL4Zh2RfDkJXq70d7Vco7HVEYUSARjBiQMEZUr8yzmquSo9CpV+ZeBL3mX4ZoqQv9FzSEgYuaweDFbWDY0oSYQOLezKogMnQxwqMYkHCpiYiETsfsdEQwIg1Y2CwCI8HpCINkquqpiefDM6MaO2FRnsIv5wuzO6pQQn3283InHCo72uNBSyElw4SyARJ8L5UMEyo2nARhUjxOin6UBCQYIoRyYsSARGWDJP/bZMjTEUpyvkiGJW8lIkgo+v6aRNVOFX2W8UEy5H6VovqyI6LE6gupE+R83gmypc+ojlzWp1InLvOTjlgyrPqkA6z6OBEyPk7A4mHFnrawfE8bWLanNaTvaQHpHzWHtI/otN1GsOSDBrD4g3pYHVioT6OlRs85j1FC9bvlRAMRA5KHNEgQIVRwM6uApN+/T2eMCEgevONMSEw5NTpGKEQIve9655nwyPDzYEzBxTATEUIJRqJORzCajozMi1yqiTYdIbiMQ2wwRiyQEEaCEU5M6y+B8dK6S2AcNobRcjGMWE1owX+mTFoQLf2W1vCjRDBiQFLcdMQNEhsjL89R8WFfs1X8OOssq9k1oMccBMu8utA3tREMSG2BwGjLm1QJIyVtZi0JIxLhJipIisFIVJAgPEo9HbFBEsSIBkkQI0GQjF7eCYalJZQ4HRGQCEoeGlLDCYvy9NFHHzlvTmHHZ0fN8o3d7oO9nHCo7GhKQxtc/TCJhhMbIK7PpJJxEgkTKhacRMMI9oOqkK6MEXxN/ZeyQOLDiNW3lAcSatWeDurL9QgfjJD2mAeSZe92QGwIRlQ5ulyDEexzlYcRBRIPI14EkqxPECYf23XmVtnt6QwrpY9Uq+j6oSrjw06IpRRY/kESDOvXAF64+SJ44aYaMPXJmjDnuUth1jMXw6yna8CMp86H6Y+fC9MeqwZTHqkCkx8+AyFymgEJT0f+paYj0t+vPx0at43ECEUYoWsXRMsTo8/nm/zMnQgRSjCiQRLEiD0dITjEOh2hJRrCyOQARlwgCWLEgAT/nAKScWu9xlL495bGFHnRpGUkomUoTVostNCEhdBSlumIwYgGiZyt4QMJNdPrxRn+us+8BHrMrgW95zaAvvObIVjaIDziPYzECBJp+BLaWNsRJiEujsR0JCpIEB4lTUcII9Qo3YszLyp2OkI9M0X11KQL4P6B58LWbVucuChrb7/9tvPmFHZ8dlSihNpy4FYnHCq/+giTVoiFIExixYn93q4sOHHBhIrESRAkhBEOIVLwfSICJFGDhPaP6KKBBMujECYMkq+TIf0dPRURjPBrQgl9R1AiZH1mT0c8jHAIFRNjRMeTkRQnSNR0JJhCySqTwogByUedDEgyGCKqlR+oMnTpb3aE/o81hh531od+/2oIqT2bw4JeLVQ9W+B7Xa+WML8n1qMlzHulOYx7sRn0e64Z9H66CfR8EmHzSF247saaEN+5BsR1vBBaJZ8LLTqcDc3aV4FG7c6A5JvPgkeGnYc3c0TPrst8GIl5OrKtJm9m9T1dE2U6Qr9GODAYKSVIgtOR0oCE/oyjpQLqYm4Ula8akaemLISmQfhn7b+sBvTVUxbazBvESInTkRIwQtFX778wXfU8p5cp8Mb7wowa8NKMy6Hn7PrQZ24z6D8fsZKaEBUj1CCrgfQZ/l6anoxansxQIXiUFSQxT0eigCSIERdIBCPcsk7QY27dYqcjAhKFkvMZJes3FjhxUdZ27drlvDmFHZ8dtSj55def8Wbb3oGGw1E9foIlcjknGkwoGyDB91LJMKFiw4kCSdGPVjQVsTCiIowolKgII17532EBlHggSUI8JMHiN+2JiIIIRUs4GR91QIgQSLAvKQ2RIEg+V2VTepmGQJL1qZ0GiQslH6s8kGB7ECGcgESVQVMRQYmFEe79zrACS13TAXrcXR9eQZiMfLgRw0SFGOmhmq+bhSgZ/lJrGNg9Dga8qHrq0dZww20t4Jp/6G5pibWAv9/bCl4c1R6mFXaCtN3dIO3NbrDkjU6w+I0UWPQGwu719rBgVzyk7oqD+TtbwdydzWH2jiZYQ5j5Wj2Ysb02YuQyno4QLoZnx/BkDV7ppk/wqLTpiAWSIEYMSBgjCiSMEQ2SkRKihKIlIFOuarhuqH6SaMDyi3ijLe1d6bngQnhlvoZJjCBhjFAGIxokeNOVicBzeNOVnsWbrvTC1Iug+4xa0GNmA+g9B7EyL84JkoHz25sGzPOiaQudBDs6IwUm5HSKwEhUkBSDkYqcjghIRmL9UpsVOx1Rnc89OeF8+PeAc2HN+hwnLsoaPRbsujmFHZ8dtSihDv76NT/S6oZD5UdP5shjt7HhxAZI8L1dyTiJhAnlh0nRj5SABPHBKYzwdMRMSCyU7JU0SEwaIxZIMj5ChOxSAFmwM4ETkKS/m4jYSEKMUAokOSYPI9kUQiTLgIRK5vwgSUF8YAGUrNIgWWW3h9Ig+aijTjCi+0DyMCIg4d7rDFPmtoVX7qiH1YdJTzdFiCBKOA8kMwe0goEvtuEII72fawN33dMCrv5Hcw8k2L+fi4NhixBwr3dliEhL3+zq9UZXBAr2OkIlmP7WXW7nFTBvC/758pJh4upEmJAbD+Ny4mBsVisYndUMRmU2hhGrGsCwjDowanVthEct/oLCo3E6YmPEBRLBCJejGkZlX8QNpbK8Bq0isKgng2hZqOcCNWHh49JtkCBCXNOR4jDy7GTVM3aTLuCv7n9mMv79ptSE7tPrQs+ZTaDP7FYIkAQfRqT+c63mtGfE0JLP6OUpjIwIjBzm6YiAZGR6Jxi0uF2JIKEj5il6+ubf/c+FDZuKnLgoT+FZJWHSUbfRNdjeX7YjEGL7sr7KiJ7MiQ6T8uAkCJNYcSIY0f2gYpDQVIQx0t5DCJbvwwi+/85OoSSP+pZKgtVfJyE6EB+7CCEKI9KiNxIQCzQd0SD5UpXDaZR8gejgNEQIJTQV0SDJ+jSYBokVYYRDhKwMgGSlZEDSESEi2SDpBCvoamMEWy692xmG9W0OLyNMaCln1ovNYP4rzbkF/VpCbkYiTB0Xr0HSBp59rBXccKsCCXXj3S3g+eHxMGMNTUUQI6ZIjHgg6cpwoRRGVIupnd346/7plNKpeZ1V+V3wqpqC77nVnWF6gfqemIXbr+AWbL8SUl+lL7zrBPO2JcOcrYkwa0s7mLmlNczY3AKmbW4KUzY2hMkb68LEDZeXejriAwkipLTTER9IECAukDBGNEgYIwGQDKEyvfjwOGnlRTCQloQQLLQk1GtRDeiRWh1emqMwEgtIghgRkDw90Q5v0LqnJpwPz068CF6cWgtent4Qes1sAf3mxBuMmGar+ukGzqfNt0kwcnkywqNj6acjUUASxEi06YiAZAQ2PC2l2OmIgIR6bPR5cF//cyoFJXRvcd2gwo6/jnqUUJ/9nO4Ew+FKNsCWbmpC2QgJvpdKhgklKCn6URKM6Agi0n+9CCT5BBFXiJI8TkCiHt9d8pbCiAJJPCzYoVr+QSLjQ4EEYWIwovuC0iD5XJVFV990xF+myQYJ9rEUK0awD1Qr+Kph8j7ChHqPrhoj73kt3dUJ+j7aiGHS994GMPfl5pA2pjUUrU2GdVs6wuzpCdDvhdZw/79bwtV/bwZXYXc83BIGzk1ESHSBpbtVNkqWvomfcX6M2DFMdlEeSBa+1g1mFBFANEh0BiM6Opl0wXYFkgXSq9SVXOq2YuJv4b0So2lMF5i9uSPM2tQBZm6Mh+kb42DahpYweX1TmLSuEUxYWw/Gr60FY4suPaLTEcaIBZIgRqhBFKKEIpwMzECYLKzuXK4JYiTadCQaSAgjwZ4c7/X0hBrw/ORa8NK0htBzRkvoOxv/f8hCCUWf9Z2lGjiPHklGpCxLYYSUNB2JBSRBjNjTEQGJ9ML0iyNAYmPk6Umqh0acC//uey5s27bNCYvyRD/nXTeosOOvo3r5xu7dn4Y7wXD4og2wLQ1MYseJDZDge7vicVJoMIL9oCqkECEKJAmIEEkfgiY5MGJA8q3Xqk8TYeHrFkY0SBa/GQ+ZnyUqiERMRwgyhJEkxIjuc0qBhDbAZn2WpK9WPpBg/MgvpTCy0soPEvyMszBCaYyY3sfPBCTYcgpholIgWfYu1QlS1yVBj3vqwyt31Yc5s9vCus0pWEdu3oJE+McdCiP3v9AGf+AnaYQIRrzXS99E5AhI3lAFpyOCkSUMEmynKnVbV5ia78eIDySrOyNYOkPqq4QRFcFkAb5XILkCf00VFSaMEWwLRSi5EuZtdrTJa65uzsYrYNaGTjBjfRJMW5cAU9fGweQ1LWDimiYwvqgBjC2ojTi5rNQgKe90hDGiQaIwokBCT/aUZjpCyzu0FMQbbudV5z0rtPRDvy84HYmGEfp6f+oJaqyKTkGl7yZ6evxF8PzE2tB9CkJlekvoM1OBhK6mGfgZXmmSMnRREoKiYwRISsJILNMRX2md4KWZtQ1GXCChDa7UA4POhUeG1HGiorz9+uuvzhtU2PHXMTEpkV478JADC4czbwNs6WBC2QAJvpeCMNE4sUDCEDEgQYB8H69AYqEk36RQkrdX5Z+O+EGy/EPaN6IhYk1Hlr2fwPBQIKHpCCFEQ0RjJOeLDhZGECAUQ0S/168FJ0GMGJB8rFrJV42SPbqP8HMNkowPJYWRCJBgyxElXjZIOjFEBCTSzBUJML8oCZa90wnyXusIaxEmuXidvS4FXhjVDqavTYG0tzp7ALHiz8x0BGHyRmfECIEEe70LQoRCfGiQLNKpSQl9iRwtzXTiPIyo9/IZfa3/gtc0RHwgUQlIpPnb8Gowgq95QoIRRKTNCJMSMMJtVM2hNlBXcLOp9apZ0rorYOa6zjBtTRJMKUqAyUVxMLGgJYzPbwpj8hrCqLw6MDL3slJPR3wgQYREm44MWFGDn9oJTkd8IEGE2CCh/Si05NM3TYev+0j6wDiausjeFToBlf5+hBQbJIwRDRLGiAaJ9NiY83gJhHp8NN7ox12CUKkHL01pBr1ntMUSIuo3qz0MTu0AI5amMDyKA0kQI8VNRwQkVK+5jaJORxgk+j/nv/qdA93HJjpRUd5++eUX5w0q7PjrmJmUUKTpjfuvc2Dh8GbvMykdToIIcX1GKZAU/qiKnI7YIPHKx884jZK8vZRGyXdWFkZyv0mE9HdpOkIYaafa0Q4WvUHTkfaQ81UiRxjxQKITjGiQZH3ewQIJvsYy+SqfJSFEJAsjGiSEEdMe/MwHElXGh5RGyQcpCBAqABK62ih5j7JB0tGUjggxvY2/htF1+Zt4fasTQoRCjOiWUrspBZIliBDJm47g+9cpAQm2S0KQ7NTtoO9f8fAxZbXOAsnMtV0QHbRco5ZsIjGi26bTIJE8jKjmURZG5nL4XmPEBRLGiAUSxogGicGIHcLEtBaRYrfmCpihm16E+CpMgkkFCTAhrw2MW90CxuQ2hpE59WB4Vi0YmnlxqaYjtAH2pdnFYESDRDBC7+loe9o0KxgxIJETbOmMFTm9VtdrkdWC6vz36I4Qog22jJVJFzBOfBixQPLoqMgewR4fVR2eHnc5vDixEbwytZWCyXR/A+bRoW/JiI2OZZ+OUBokI9I6Qt/5zSNAItMRBgn28Mjz4F99z4ERs+51oqK8hSgJk445lBz65SdYsy/RiYXDGX3Dr73PpOw4Cb5XFf5IaZj8gOjA/NMR7L82SDB8rxKQ6L6jBCQSHf3eHhbv1hDRGKHS343nX8v5SqPkSzuFEQUSDCFipiOSxoivTykNkk9UwemIDZIMyYcR3QeUgET3Ph2MpkDim5IwSDyE+EEiKYikSQYj2G7VUsqARGWDhCEiGYx0ViFGFlkRTBZs7wLTCwkeHVWr9RWbzK87IRYQJK8JSHQukOjmI0pMW622dFMYMSBRKZB4zdmEn1kY8U9HLJAgPJwgCWAkKkiKaO9MN0RJlAq9phR0hkn5yTBhdQKMy20Do7Obw8isxjA8sx4MWXm5hkkNPvPkxZmxg4R+H52PEnU6EgtIFlaHnhLhREpVvcJYUUtDz05VN/snxvlhQhjh8KbvawT++sgL4ckxl8FzExrCS5NbQq9pCb76zUqEQQuSGBalnY4ISIYv7Qj9U1s7pyMCEvUo8DmMknnLBjlRUd4OHTrkvEGFHX8dcyihfvplL38brgsLh7f6/OcoG0woGyLeewUS7AdKgcRA5Pt21usgRlR5/IV6gpEEWE19qyKQrMYyv0iAha+3hdSduh1tYcGutogCbzqSQzDhLJR8gZjhFEjUdMSfGyQ6OiqeQYJ9nIT/PMrDiAEJQUQKgGSFL4WS5RTBJIARP0hSuPR3KA2St1VplI0Rq6WUwARb8qbVG5RgRKUwomGyqzNCBNtJV4WSeVs7w9R8BQ/GCEYQURjpCDPW0t4RAglmMOJFT9kUD5Ku+M9QT+cokGCbJcKIjhFCrzVEMIaJYMSARGOkHNMRGyROiFAWRqYVWOWrpuqm2OV1g4k5nWDI4vYwYH4c9J3XAnrPaQKvzKwHL82oBS9MuxgxcqEPJPTYsFmuoWsMGPGBBBFiQEL7UAIYYZCkXqiiU2t1L8/T0TIQ71lRfx7am0JLPgYnCJKHpeF2+PtG1YRnx9aH7hNbQM+p8VgC13cmnZuSxMiIZToiIKEGLmznnI4ISOjPdG8fQsl5sH5joRMV5S1ESZh0zOwpEZBIPx76gL+vxo2Fw1vBvmYRMIkdJx5MFEbaGpAUBGOQSJEgURjRfRePGKE8kFC52MqP4xkgghFqyVvtIPPzBD0dURDJNrVHhOBnApLPVVkIEw8jiQgQSWFkFSKEEowokGAfUwIS3Z4kazpCZ6TofNMRRAi+tlGyXEKQLJPeQ5z4QKIwoqYjghJMMMIgUS3la3Eg6agTkOhe7+RNRiiEiAKJnpAQSrA5m2i/iMKHwkgKTDbTkY4IhM4+jKRu74Lo0Es4BiQeTIIY8U9HECeUAUk3/PtTHkgIIZJ/OkL7RiyQIDwO13QkCBLBiBMkuV1h5NLOMHyx17BFVgs7w1BscGoSDJgXD4MXt4bhGS1gyIpGMGhZHeiXVhNBclGxICnNdMSAxIURDZKXJDmxFqPlHz5rBbFCJ6w+jVihfRyPjTkfcXIuPDRMN/Rc+I/uoWHnw+MjL0WkNECktIIekxO4XtMTEWhJMAzB4ceIAolghFvSkY/bd01HKDqbhPaSEEp6TujmBEVFFC7fhEnH1EbXIEz2HtrOj+u6oHC4U1/oF8tyjhsnZjrCIGnrw0g+vs//XkUgyZf+SxUDkm/tFEpWfNgOMRKn0iBZjp/lfGWDBBHCaZRojGQhTLI+p/C1Sb33QKISkHAIkZUWSFbaIUYUSAghHQxGVnxo9QHlx4gByfuqZRRiRErXCPFPRzyMpL+dghihzauUhxKGyW7CiR8kBiKMEXyNLaYrYkSBRBKM+Fu4owvMXE/LNSmIEUqDRDejqJPCB4MEIaIzGNmG7ykLJfO3SQokNB3hCYlMR8yEpCtChBKU6GyUbJS86YgNkgiMUAGQBDFSkdMRH0gQI2pC0hVGLImOEQEJRZ+NzeiKfw3+ddmqCVRWV6wLjMtMgVEZCTB8RWsYuqwpDEqvD/2XXo4ouTgSJIiQUk9HbJAEMSIgkRAm0gszL+DoS/OenaLQ8PhYtfRDSHlwiG4wQeVCRMpl8MyYRvDSxDh4BYHSewZNUJIRIG6QDMOGLkmJmI5I9w86l0FyT+9zYGnmBCcoKqIQJWHSMY0S6qufC5xIOBLlOR4bjo4TwYgV4oNQUkAJRiyQmBgjqry9ksKICyS5WM7X8ZD+ngbJDtXC1+MQCwISespGpUCipiMqCyaMEIFJewSInYBE9wkVBSMMEkSIxCBRrfiQ8lBCX6JH+TCiQcIYYZBYMUTomow4oe/tsUGiMaInJEsRJZJBicCEE5Do+Mh4ClHyekdYpGOQ7FIt4jyQLHitM0xfgxDRIJm8OtkqBWZv7MS/Z8F2SoMEgeKlIaJh4mEE24rvsXmUnozMpRAhvunIJvyMwtdzNlltxF8TkGiIzNnQrfjlmgBGok5HygESJ0YoxMhkbEJ28SARjFD06xMyPZAwRgxIdPjrduOt6HHc0RkdYPjytjAkrQUMWNoI+i6uA70WXBLzdCQqSBAhBiQOjHAIEsr+Rl+KJip06BlDZdz5DBVa5iGkECYeGlIdnhhZG54b2xRemdQO+sykI/IRKAgRAcmwxaogRp7AHhzqgeTlsZ2cmKio6Ge56wYVdvx1zKOE+vTnpU4kHJnosWH3cg5lw6TwR8oDSYFJgySIEQaJlwcS7Lt2ernGjxEByeK3aDrSBjFCxeH7togK/LWvdIwRK5qKSIQPggijxIOJHyTtESKUB5KV0seUHyMGJBEY0X3QAeFh4UTDhEOEeNMRLwYIRyfSYu8QSHRvUxokDBDBiAeTJfLegIQggp9T1nSEMCKTEUHJol2UgMQr9dVOMK3Qm4jYIJlakALztnkgSTUhPjRM5lt50xF8TwlGGCRdECOUAok/DRMGSVedAolJY0SBBFuviooRDZIgRmJarikGIyVNRxgkiAgBSRAjQZCMXNqFARI5HdFphEQDyfhVXWGctJKAgmV4jc7oBCOWJ8LQtDgYtKQZ9F/cAHovqAU95l/kn45YIIl1OiIgMRjRIOEv0KOmIUok2tSrozNH+AkgXv45Dx4aTtOU8+CRoZfC06MawksT20C/2R1gyMIUGIogoYIgoeUhwgj10MDLoWDtKicmKir6+e66QYUdfx2TG11dfXBwigMIR65oyzkcY8RfAcJEUJL/QxwChFIQyaN8GLH6jiKQYN9KGiTf0FM08bBod2uNEVXae20tjKjo96kSECQJCBCdBonkwogHEt0n7S2MJEKGLnI6or7QLwIkGIFE8oMkCTGiKwYkae+oBCRpksFIMETHbsSHJBhhkKTwF+oFpyM8IUF4qOkIvt+pw/cLd3ZCSHTEG6qahtgYmZybDDPXpTBA1HREY+RVr/l89UBiIBIxHbFAstnOD5PgdGTORjofBT/XEJmzAd9zghE7P0YIIEdiOlISSGyMDF3QGUaneyAp7XSEMGJAghBxgWRMRhd/K6yWd4FRy1JgWFoCDFrcCvovbAy9U+vAK/MuKdt0xAYJPWEUBSP2qawRZ49YE5XHR10ET4+pBy9NbgUD5ibDUxMQMQQShMwDgz2QPDigJqzKm+eEREVG9xfXDSrs+OsPgxLqnYNDnUA4UnnLOZE4KfhR4aRAIohIDJI4xIiOIKJbHQDJasmApB2CBPumHaKiLSx4ozXM36FK3dUacUDLNR5IPIxgX6iyuAR+Qof73OozyY0RBRLs4/b4z6KrRskeK8aIasWHVAAkkkbJMup9fG0w4hUxHaHXCBFGydt2+Bm2lHqLUhih6QiHEOHJiA0ShIgByeuqRZxGCUJkoT0h0ShZiM3Z3BEmM0iSYdLqJI5BkpcCc7Z0hAWvdUKMdNKTkUiQ+DIgIYx0RoxQ9nTExkgwmYzoECSzJQ0RA5L1KjrG3kbJzHWqwz4doQQkqz2QBDHiAsmYFYHlmmIw4gJJcdORCIw4QDJaWuY1ikIojUzHP+PSRBi4qDX0S20CvebVhZdmX1zsdMQGSbTpiA0SH0YmqVxP1nDjLoDH6NA3BMn9Az2QvDgmBQrWrnQioqILv5AvTPpDoYTafbCXEwhHMvq24YIfLZgwSBRMCn6gCCNtECKSYMSLMGLyYcQrl1MgWfVFHCzY1cqAhHCS+XlbyP6qHQIEYeIAicII9nk8/l5KMBIPqz6jw9RslCQgRCgPJIwRCyTSSh9I8DOdAonuAzpV1g8SwghfESSm9ygBCdVBpyYjZkLCCNEgeSsJAYIZkKiWUNZ0ZPGbyZx/OmJjRLdLRSDxtVNNSGZupMkIQaSDAcmk3CS8OScjOhAkiBEFErW8wyFMIjCCzdumIowYkGxRzaUsgMyxXpvPNlGEERVNR8xERGNkFmUwYueBZOZa1Qy+eiCpzOlILCAJYoQ+J0zEulwTxEh5pyMGJA6MKJAESutsGrG0EwxZlAD9F7SC3vMawStzasGLM2pELtcUgxEXSCIe9RWM0GREQpBQDw0/D54a3gLSs6c68VBZuW5OYcdnfziUULsOPOPEwZEq90e8/tiQYaLyQJL/Q2uVBkme9F9KQGJlgYQQ4gPJN6qVn7fhqcj8HYSSVrD4rdaIDcSIBkmWLnI6osqkGCX0mDACB0HiizGi+4TyMOIDyR7VCuqjBAsjdgolyyXCiTUdodINRlSCEA8kHRAikoLIUgohwtMRQYmOMcIgkTyQcG/oECAukCyUdlow2YnY2NERb+A0HdEQYZRguR3wxp8Cqa91RHxIFkiw+SY/RjgzHcEEIwwSSYGEY4QE2tgFMUIJSPA1h68RH2Y6sk6Hr2fi1aQxYlqDMDEgwfcuiEjlmY5YIPEt1yBAXCAZjmiZkBlluUYjpDiQRExHLJBEYMQBkuKnI44skNBjzSPs8D8LL1NhQxclw4DUOIRKM3hlVl14YfolpZ6ORAWJxghFSzuPjUWYDK4DW7dtdeKhMtq5c6fz5hR2fPaHRAk9XrbjwMNOIBzOCCOmH6j6kPdDcw8ijBGvPIoxolq9lxKMqHKpb/G1jRENkpxv4mDlp21g/k6FkXk7WsPS99ogRtoiQFQCEg6hkon5MGKBZNVndgokKz/1IpCslD5GdARAwhjRIDF9SFcBSXuEiCQgSUSQYBojHEFEYoTQ0fgqDyPY2yoBiZdMRwgk2G6JEJLkJRhhkCQjQigPIz6QSAiTBRSCZPoaWqKxJiS5SXiTTYK5W2n/iAWSV708jHh5GMHXnMKINx3xrnN8IUCw2QgRygcSA5EuCCTdekmjRMPEDxI6Cl/FOCGESEVd8T8zooOKgpHyTEeigSSIEYo3tGYdZdORaCAJYMQFEsKINIyifwe6ofjvYcjCjjBgfjz0ntMMXp5ZF56benHx0xELJMHpiIBEoiWcZYdxUvLWW285b05hx2d/SJRQBJPtBx5wYuFwFARJjvQ9vv++EeKkFSPEDxIvBRLdd20URjRIvLzpCIEk4xMPJNSKjwgkcRojVgwRL5mIKIy4QNIOESIhSD6xQowokFhFw4gvGyTYB+0RIxSBBMFBvUfZGAmCRBKM6N7qgPigqwcTxghPRzyU+EGSBIt0Hkh0u5JhIcLEBRIq9bUUmFqYBBNXJ/qmI1OLkmC+hghdOR9I7AgjVls7GpTM3SJpkOjm4HsbJbM3qfzTEQdIDEb8BTFig2TGGklhhEHiC8EhuUCC6CjNdCQCJAiQaCChG79zOhIDSIqbjsQCkuKmI7GAJIiRWEDiy/r3MTg1BfrNbQs9ZzWF7tPqwDOTasQ0HTGNPY97aMS5MGzGPU5AVEYffvih8+YUdnxWKpRQLiwcrlz4KK5ffvkZXj1wrxMNlVUQIwYkiBEq+/s6kP3fOpDz33qw+vvmCiMWSFbvtUKMKJBg30pxkCMhRLK/acPXFR8TSFrCvB0tGSYZnyJIviSQxCFEJAJJW8jUyaSEY5S0jcCIHyTYJ+0QP3QlkMQjQiTCiGoFZYFkOSJEIpDY7wkjBiTvqzyQqNIsiPgxgr2tWsoplCyhLJj4pyORGDEgeV21kK8KIwwSX3oyopv/ajLeVGk6QiBJVDBBkMzckIQYoQkJ/h4O4aFRMk9no2TeNsoDyVxqi0Tfg+NlQyQIEm4jZWOkM2KE0viw8kAiBTDiAwkmCMHXNkqmUYQQ3dRyTEcYJIgGGyT2zVcwQo1ZrvaP/CGnI1Q0jFCBfydDrAbrBsxLhF6zWiFSGsAzky8pFiSPSfQY8cA6TkBURp999pnz5hR2fHbMoMSFjlg6nDAJgsSejjBGNEikLMLJ3sZRQNIaMaIzIEGAUIgQAUn2121g+Z5WMO+1FgyS1F0tYdXnCiQeRrAvVJkIE0HJKrqaKQmBxC4SIwISeoJHZaFkTzxiBPvIa/mHlA2QBMRH5HuOMaJ7T0UYUdFr/MwBEoUR7K1ExIfkoWQxtRtfG5Dge87CiAaJwohuF77n/ChZsJNSIJm3LRkm5bVHiLRXKMnF8jrAnC3JiJFkjRGCiy6AEo4xouPpiAcSekqH24zvDUiwTR5MbIzMYYzoECGzN3TyQLJeZYOEMxjB1qpmcB5EFEDwMwshPoxQhVYWSGyMuEASnI7EDBJ8TXg43qcj8u8jAiSpXoOo+aqB81Lg2UmXR0xHBCPSvX3PgdVF6U5EVHTffvut8+YUdnz2h56USAom9zkhUVHFMh2xMcLtVWXvrQ+5e1sYjBiQfOuVwxFIEBzftOZyLJDMxRa+2ZLh4QJJptUqDuFBEPkcX1M+kLRFiFAeSBgjFkhWSHvwvQEJvucEJF7LECEmH0ZU6ZTGiAIJlaDD1++oltIVEWJAgghhkOBrDyUaJowR1eI3E3X4+g3VIkojhEAieSDR7UzSGNHtSEY0JMFEDRIutz1MKeiA0BCQYPhahYCxmo8YoYIgYYzYIEGMRObBZDanQEIQmRUAySxpfScECIEEW6dzgERhRLemC2KEQnzo19MQJpQPJBZGphZY5VMWRhAeJU1HJudaIMEbrg8keKOV6HPCRUkYoco1HbFBgggp9XSEKsd0JBaQRGCEigISqvesOMTIBc7piPQo9u+B58CMJb2diKjo9u/f77w5hR2flRollAsMhyMXOGKtsmBSlumIYITK/M4r57sm1nQkABJCiMZI9teqFR+3Qow0h7k7WsDitwkkbRAhksKIEyQCkc/bIEDiYKUdY0T3iSqIEXmdgSAhlHAftWWQ0PfoeAlIJA0RLJ0SjDBIVAYhBiQJCBG8apSkvY0w4YLTEa/F1G6VHyTYG4kKIwySDogQyUPIAgohYt4zSjRMECSzNnXwYYSatrYDAyQSJMmIDsxCydxtKoURvGK0GXbuFgrh4QLJJi+FEd1GFYFELdFQHkYUSLB1HkxmIEok/3QkAJKizip+rRKYcAGQTPOBBMujq2CkK0KE0hgpASTBm69Ev05P2ITTEQdIghixQTKvM/SZHQ9PjL8w6nSEMMKNPg8eGHouDJh8mxMRFR3dU1w3p7Djs+MGJRTBpCI3vzpBEuN0JAiSzG/rwCos85v6iJAW1nREMNJK9bUq4xOakCBIsCXvtoBsgxEdAiWTi4IRbOVnKgOTTyXBiO5jBAenUGIgwhihCCT0xX6Uh5JlJgTJB6p0uiJCvOlIECR+jJjelhAkb6mWcG6MUIvebG8ijCiQYK+rPJBguygPJBHtUM3cQPtGPJBMwCshxWDEAglNTXwhTgQk3FZ8b4FkjrSZQnxYeSCxYozo7MmIBgljRECim8FplKxFcGA2RmyQTAtkUFLoFZyOTLNAohBCdTGvJ1OrKQ8jDJJsB0jwRms3col6wqY4jEQFCSKk1NMRGyRBjGiQRGCEKgEkERihSgGSCIxQQZBY0xECSb85ifDk+OrFTkcII9Qj2H+GnQtPDm7jRERF9sYbbzhvTGHHb3/4PSXBCCavHXjIiYxYC2LEBklppyOEEQHJqm+kupD1bRNrOuJhhFrxcUsDkrT3WiJCWkOmjqclAhKEBxUEiWDEjjbGMkg+UWVQCBEPJDqEyHKJIOKbkOD7D1QeSLAP2jFGuPfjIU0XCRL8PApIlkhvSYISbDeiwwESmowwSt6QBCNWu6gOiBFsp8o/HVEYSd3RAWYwSBIQI6pJeYmIiA4IEXrKBnuVsqYjPCFRzWWQ6LbSY8J0xbaoPIyoZnMKJJwPI6pZ1AaKINIRwaTygUSnMKJbK3kwmb5GT0SigMRUSAlIrGgSEowxoprMCUhUk3LxaoEkePP1gQRv9od7OhIVJPhniWU64gMJwsMJkuIwYoNE/3uIAEkQIw6Q9J+bBE+Nr1HidIQwwtEX+404D/7Zo7oTEhVZ+ORNWLDjYk9JsF9+OQRlPWAtCJKI5ZogRkoACWPEAslK6WuqHmR909wHkoxPPJAs+6AlQqSVAUnmF60RICpCySpKT0VWfY6fO0BCGDF9QglI6IkeiTCiWk59FGdAsgwhQpnpCIHEF4EEe1/FIHnPSiNEgSQeESIpjAhI+GpAIhFGdASTwHTEjxG8Ygs5DyQLJA2SVCuZjhBIpq1tDxNy4xkjE7DJhe0RHUGQqOZtwyyY+EGimkMwYYzoNlMWSDbZ+UHCGDEgSeEYJOtVM6h19NoNkulWMxAjFKOkCD/DghCZajCimlpACUZUUygCiEGJgAThQSBZbcUYUU1EXIwoASSjl2uERMFIVJAgQo7n6Qg1YG4KPD3h4pimI4QR6eGR58Ed3c+GonU5TkxUVF999ZXzxhR2/HZcooSic0zeOPiSEx6ughip+OmIjZE6kPF1bcj4SrXq60aQ9VVLyPisJczd0QxB0gxBICDRfdFKgYTxIXkgWfmZFB0kK6iPJQslexAhPpColn1IKZQYhJjpSFvEiI4xontPUghJexdfczZIsLfjfdORxYSQAEzos8W7KYWSRW8m6BRGFkoGIvr1LpUBCaMkESFCaZQgRFJ3JML81xAkaxAiOfGmaWvaI0Q6wDzqVZXBiJUfIzQd0RMSMx0hiCRpkCQjRiQFk1kIEilyOqJAMlNan4IYoauGCaJE5WFEQGJgssaKMaIrVDAhjHAEEYlBosvvrPChU9MQ/V6/ViBRkxECyaRcLwKJb0KCN9pgYxARxYEkiBEbJEd8OhINJMVhJBaQBDFSLEguiXk6YoOEuv3Fs2Hl6vlOTFRUBw4ccN6Ywo7fSoUSgoFcj0QuXJS3tw8OdCLELgiSypyOMEYskFArvqwNyz6tA3Nea6RA8rEFEsSIAgn2eStYiXko0Z8ZkKgyPqU8jESCRLeHIpAQQtroBCO6DygLJTpvOtIWMYK9RymQLEWEUB5I8P07OsSIAgn2lorx4YpBojIgeUO1kDKTEStGCIEE2+nBRIEEQ4hI819LhCmFGiO5KtpTwhixQELN3abyQGKFGKHJCLeFEpBISYgQbBOCRDeL0yjZiNjQ+acjCiMCkhnr7CyYrO3om44QQmYYjOCvYdOoQroqmExFmKjcGFEgwfIUTCZznVX42STMno4oiNCSDV5z6LCzLnhT7uS8+TJI8LNxiIZST0dskBSHESoAEsaIBZIjPR2x/52UZjoiIHkmGkgQIdGmI3a3v1gNFmdMdGKiInrttdfg999/d96Ywo7fjrs9Ja7e/2l8TBixpyNRQVIMRkozHRGMMEg+qw0zt9eE6dtqQtqeBogRjRLBiAUS7jPBiJ0NEt0nrRVGNEiWB0CyXDIgaYMQkRRI0q0URmQ6QhhBcPB0RFDSFjHib8k7eDUgaYcYoQQjut06hMgiihBiMBLv9Ua8wgiDJAEWYB5GVD6M4DXVpCGyoz03bzs94qtAMh6biCCZvYU+j8RI8L2HEXyNzaG2UAgPSiPENx1hjCRpjOg2Ugol3lQkWWdhJAIkOsSIAokVQmSaxBjRVwKJbqoPJZ3w3wNefdMRDyQEEFeTVquC0xECCe8hWUIgwRao5OZL0fkkhIyyTEdiAkkAI3+k6YiA5OkJl/pAEut0RHpoxHlw2wvVYMHy0U5QVETvvfee86YUdnwXokS356d5xYIkYjpigaQs0xEbJNGmI9Tyz2vDrB01YRqCZMlHtWD5F/j553Vh5RdNIjHCteRoqYcSlGR8KimMKJDQY8UUgkMqESPYByobJFQa9T6+9k1HKAQHT0ciQWJ6m0KQvKVazHkwWYQoUXkoiQQJ9rqKQGLaRVkg0anpiEaJxoiAZDKCZHxOO25SfjzM2UYTEuxVygZIlLYmKoxokMzWmamIxBhReRhBnCBIZkqIkFk6Bsl6VRAj063XM9biexNhRDWNksmIjRGGCILEijBiysdftzDigaSTBxHdZMYIvs61QowwSDAbJEOkVBUt54zPpAlJF3XVEIkGkojpiAWSCIw4QBKcjtggicAIFQBJECM2SA73dGTQvE4eSDRGSjsdEZA8OOxcRsnspYOcoKiIwv0kYa5ClFh9/vNKBEn9wzMdsUHiwAiHAJnz+mUKJHsUSAgpy3TLP6sPGZ83N/BYqSESkQEJ9kkrxAilQLLcDiGyTPoI30cBSbrd+wonAhJqKV0jpiP4eVSM6N5qqzGC7dYRSHwoQXS82c6HERskC+wYIwmQSu1U+acjCiP2hGTuqwgSRAiDJLsdL9/QZ/M4hZK5CBTOgskcnX86Qk/nJCqQbPaaxVcCiZd/OkIYocePNUI20GsdY0S3TlIg4RAhfpBga1IQIxThIwWm6nzTEc6DyZQCKwQJNZmyEKJeqxgkejrC+UDSGSZiE7Lp5m1PRwIgQaxMsEDiz4+RSpuORANJACNH23SEQNJ/TrIPJIwRDZJYpyOqc+GBwefArc9Xg7lpw5ygqIh++ukn500p7PguREmgbw6thfx9TUqcjsQCkuKmI7GAZN5uCySEEAHJZ6p06lPCSUMESQsHRrxWfIJXAcnHKg8jqmXUR60YJNyHrSEd809H/CBJ80UY8fIgIq/jIkCyWKdAgu2WEB6+PJBIBiNOkMQjRnQaJNT8HXT1QELvpXnb2sOEPJqOtEWQtIVp6/Cz7QISlQGJjiYoBiU8HdFZ05HZmxEmFkjoXBMvmop42dMRP0ZUMyiDkWREh10kRgxICCECkkKvKXy1pyMUTUcII6rJdEV4UAoh+JnBiG615MeIAQk2HEEyZEFHBRELI9RI/DXCiBskXRAgdC15OhILSIqbjsQCkiBGSg2SAEZiAkkxGBGQPDX+knJNRwgj3PBz4b4BCiWplbR88/rrrztvSGFhxwxKKBciKqO9h3ZAwb5WxU9HLJAEMRLTdMQCSRAj1IJ3L/eBRKYjBiMaJOmf1oK0T2pB+id1YPmnTQxIVlggoceICSXcxy0RIgQS3R5EiA8kOsaI7gPECedhxAbJUuk9fO8DCX6mW/IOgUT3NqUwwhDBFvlAgu9NCiUL32yrw9dvqBZQr+PrAEYMSHZ6zd9h4cSCiDR3WwJMWK0wQiiZvgE/I4QYjARTIJHUcg1hRDWbCmIE39sgmblRJTBR0xFKgWSGhBCZbkDiNZ1QYsFkmg0TMx2xMBIACaOkQBU5HSGMIDzoigiZpFMgwVbje84DycRclT0dsSckCiQd8UarUiDpiBAgkKhlmyBEFEYwuur3R/V0hCrPdISyMVICSAZi/eZ0gCfHXRQBktJORwgj1H+we/qcA7c8Vw3SVk11oqK8ffrpp84bUlhYiJIo/XjoQ1i3L+WwT0doiWbxh7UUSPAabTpig8TXx/Vg+SfNGCUGIhojCiSSgIQQ0lLXCtI/tPoAf82ARGdhxIAEMSItIYBYGFEgkRRIFktvxTFGPIAgOqzX5jMDEuwNSsMEQUIoMQlGHCCRFEisz16LR0zEw/jVcTAuG8uNg5mb4xVEpABI5myNbDa1hbJBovJPRxINRiJikNCVDmrDNEQIJNMZIRoja4MpkHBrJMIIXrGplA0RiTHix4k9HZGJiICEE4zYrzEBycQcO4WSkWmIkAUpCiWMERV91f7oZQISOw8kEa3sghjRlQIkf8TpCIGk76xEBEkN93JNMRjxQOJNRwgj3LBz4c5XzmaUZOcvdaKivO3bt895QwoLO+G3336D0uSCyuHKBZXK7OCv38DGfTc6pyM+kCBCSjsd8YFET0cIJASL6a/WhMUf1Cp2OuICydKPvdI/bog4aYEphCyzQbJHtYwyIGmJEKE8kKRZpb9PIGmNEMHeoyuCwwmS1qbF7+BVQPK2ajGFGFEgwXZTHkh8ALFjjLSFBdTrkg2SdogRzIUR6/W8He04Acnsre0MSMavbougoD0kNCVJgDnbaIISAInd1gT86ykFklnUZpXCiA4horIREsAJYyRRYYRB0gExotMg4RAh0yyQ0GuVwshUqShJRyDxEoxIk63XU/LxvWRDJE+/txDiYcTKBxIsuxPe1FMYJAQQaYhuzIpOCBBJgWTcKjsFkbGUDyNeERihyjMdocoxHYkFJBEYoUoBEsII1WdmPDwxtnqpl2uiTUcII5Rscr3l2WqwfmORExXladeuXc6bUVgYdYLrwzCv//v9J9h+4EEFk0qcjlAEkJmv1YRF72uQIEJimY7YGFm6R0XLPks/qgPpexozSCSDEQsk6R+20CDBPlDZIEl7vxUChK4KJUslxIk9HQmCRDIYYZC0QYzoGCRxiBHVIsQHpRCCn1EaJIwRDZJUu12UgMTLgETjwwbJvNdUDJJcBZKJ+QiSrX6QSBHTkS34OUFEY2Q2vp9FaZCYDEYIIHYKIjMohIgHEmy9SmHEyoKIAckaCyX4eiq9R4hQDJJCiTCiK5AUSEwGIyqCiGm1LgATP0g6wgSdAcmySJAMTk3Gm3EygqKjgYiqEwKE8lAyVsOkRJCsoEPW6GolGHGBBOFx1E5HbJAEMGJAMrcT9JzRBh4fe0HkdMQCSRAjHkjc0xHCCHX/oHMZJHd3v9SJivIWLt2EFVeIkhj6/ff/g7d/GsAwcYIkiBENkmKnIwGQUPSkzcL3Li/zdEQwwn1UCxbrlhBOPmrKEEmnPmoRmI5QCBPGiNX7lEbJe3YCEg8hbozgVXqLEox4MUje9FrwBn4m7zVMFlA8GYkEyXxqJ742GLFCeBBIBCGUvJ+1hUDSBsZmt4HJhW0RHwQSevRX8lCipiEKIgQSQogK4SFtJpQkwEy+Eki8fCARfDBIFEpMjBHdOomOuPdijNgRRDRICCJTdB5I8D1VQCmQTDZZGNEg8TCSjPCQNEp0QYzYIJmQrRq1PBIjBiQrER+EENeEhH4NI5CMXWmlIaIwQgjREJEQIqMJJ4iQck1HooAkAiNUKUASgREqCJIYpiMEklemtYDHxpxf4dORB4eq7ul9DvzjmWrw1KBEJyrK28GDB50/Z8PCqBAlpejjn+eqSUkFTEd8IEGE0MbW1HcQJIiQWKYjPpDQVMTCiA0S7sNasAhb8lE9xgmhhJMJCQLEA0kLA5KlujQbJO96KYjQVWWDhCCyyALJImk3JSAhgEgKJJLBCIMkDhFCeRixQWLaQXkgmfdaW52HkrkEks1tPZAUtUWM4OeYBxKVYITbQoenSQolajriTUhmUpsQJpjCiJ1CiQ8hG9p7ryMwkojokOioe9VUnT0dUSDpoEAiCLFjkKgm52OCknwEB+YHCX6mQTJRylUpkFjZGLFAMnoF7RdRCLFBMnQhgaQjYoTSMOHpCOVNRwgtKgGJF2OE8KFjiPimI/RdOQ6QIDwOy3TEBgnCo9TTER9I/NMRqvuURsVOR6KDpPjpiICEur372YySgRPvcaKiPO3evdv5szUsTApRUsq+/qUQcvc2jcSIBklppyMEEoLFvLcUSCpqOiIYEZAs+uBy0+IP6kPah830dEQjROLpCGGkBSIEr9gS6l16rWDiQYQ+J4xYvU0pkAhEFhqMqBZyHkgWvNHaSqEklXodXxuQ6HbFKYzYIGGM6BAhlAcSbDvCg9IgGZfTGkHSGqauVSCZsy0YgcTKB5J4xAglIFHTEY4gopuxMYFjkDA+JMFIe5hOrcfXxYIEW5OI8FA4IZB4KYwokGCFkgMjAhKTAolBiIURAxLCiH49AV9TCiOqCZwHkvEMkhS8sSZpiNBVNXRhCoJDQKIzIMECEBlDZXTiFEbUa9qHIjAhkJgiMNL5DzUdGTAnBZ6bWLvSpiPUA9j9g8+Fvz9djZu9ZLATFuXp66+/dv5cDQuTQpSUof3/ew8KvutQ7ukIRQCZb4Mk1umIDRIESLTpSBAkC9+X8K95vwEs/aC5no5g1nREYaSFAYm02HrN79+RFEgWSRojnIGI7k0vP0haIzwwDRIvhREFEmynhOBAiEgKI3FW9J4wolAyc3McjM1pBWOzWsO09W1hjgEJTUbUa9pnoiKA4BWjpZ5Zm+m1BslmL4URK2s6MmMDwsQkKEngx40FJNOkdfjegREBiT+NkqJExAjlgWSyzgcSgYh+PUnKowQk+Hp1UsR0hFIY0a9zJI2SbBWDJANBggAhlAya38EDyeJkhEcKQoTqyDgx0eTEgATBwRFCvEYjRkYTRnSjl+sMRhAgFELEPx3Bz7CSMOIDCcLjyE5HKA8jVL/ZiXwGSWVORwgkDww5F+7ueQ6CpCpXsCbLCYuyRt91Qw8suH6mhoVJIUrK2KHf9sLG729nmJRlOiJP1tCm1jRCSCmnIzZIghhxTUc8jGDvqRbwtTYsfq8hQqS5no6oCYkfIy0YIyp6jVixQfK2ahH1FoGkFWIE200piCyQfCBppXqdroQRjRJsPl81Sna1QYxQNkgQHTsoBQ+FjziOQbIdX5sEJK1hTFYrmLExzgKJl5qMaJQIRqxmIkz8IME2SWoyYiYkBiHYevyMEpDga5XCiGmtFA0jCBAKIWJAUujFICnwmpSPVwGJzsMIAoTrwCmQYLmSwogJITLRgETHGFGNyUhmkBBCCCTSsMVJCBKZjtC0RE1MBCR2DBKZiNgRRCQBiW4UXxVIfAUREgUkR/N0hOo9sx08PrZ6zNMRH0gQIbFMRwQkFB2YdvNTVeGBno2dsChPH3/8sfNnaViYXYiScvTb77/Azn0vqSlJLNMRGySEkE/oEWDBiAJJECMukJR9OuJhxER7WbAF7yJO3m2spyMKHZLCB2KEQpAswqtkMMIgaYkYoQQkqgUUIUQSjNB0BEGSalIYMe1CmAhIdnopjOgYIm0MSDyIeM3YTPtHWvGSzcxNcTB7W1uTfzqiMGJPRyiFEf97GyQzNkoKHoKPGbw0o1BiILIuAabhlaPXlMEItkblw4gARIPEZDCiK6A8kJgIHRZIFEZ0qxEl2AS6GpAkIUQkBZDxVhOyVeOprGQERjLefD2MCEyGLUGQ8HQkiBF8zdkgwTIoBZHR+Jr2plC+6Qi1TF0JJKPwNaWWawgjqpGUhZER+JoSjMQEkuIwEgtIghiJBSQaI9RLU5vBo7ShVTBSAkiCyzWxTkeke/uewyChBk++3wmL8hQeKx8WSyFKKqCPf1oAK7+qFwGSIEZ8IPEt1xze6YhgREBCG2yp+XR9uzYsIpzQRIQhYoGEIPK2hRJ6Tb1FaZDs9mKMMEgkGySYhZHUXa0QHzoNknnSTnxvQCLZINFtpzyMzLFAQvtIZuJrGyTUrK0qBRJ8bRJ8eBmQbPLyQIJtiEeMUIIQfM15KDEQ0U1d66UwYlVECULaI0AwCyMGJIwR1aR8yQ8TnoYYjKj3CiQEE8IHwoTKoasGSY7KBglBZJyOQDIGQTJoAWEkkSEycJ5qeFoQJDoBCCMkhZd8PJCoJSBOg4QatRyvFkoEInYjqXSKIKLxoROQcA6M2CApy3TEBklZpiNBkND+kWcn1Tls0xGK9pLc+oKaktz8ZFVYkT3HCYuyFn4jcFishSipoP77y2uQ+0188dMRGyRlmY5EAQljpASQuKYjAhLCCPe21Vu1YeE7jREizTl7OmIwokGyUPKBBHtTQni80dLEyzUCEh9EPJgIRkw7WsNcjEGCAKHmvoafGYy0QYRgryqYEEgIIWOzW/I+Elq+mb3NzgPJrC1xOny9WTWT2kRXBZEZkg8kOoSIAYmBSDu+TqPW6QIoMSBZo5rCVw8kDBHGSAJMxiuHMKGKBwmWl4jw0DgRhHD4uTUdIYiY6QiBRMrugAghkOiyKQ0SxAjFE5KFhBHVwHlUB7z5J8HYTPXrKsKIagwlEMEEIQYkK7zosWICCbdMF0AJY8SABEvTIUxG4NW0lPIwMlyD5KiYjlgg6TOrPTw5/uLDNh0hjFD39tNTEgTJv16uD9u2bXPioqyFJ7iGxVqIkgrs5//7BtZ9e0vU6YgfJKWfjvhAgggp9XTEBglNRRwYoaeAVJdx89+uDQvebowA0TBBiCykNEQWMEa8FnA2SAgiLTyUvN4SAaLyTUdsjNB1p6RAIimIWG1vjQChFEhm62ZupidsWsK4XAQJgsMGyaytVgYkhBhJg0QnGJGmI0QoBRJ8LRmMtEOAYOvUZwYlnIURDRLCiKlIUhhhkJg8lFCTCvDqwAhdGR8mjRFqdSJiRKenI+MRIZRMRhgkkgbJOEmDZByiYwiCZOD89nhTpRRKRqQTSDADEmxlssKIBomZhmiMRAeJTkDiC+FhYWSEDRIbIxSChL4MUPJNRxAfMYEkgJGYQFIMRlzLNS/z+SMXlH46YoMEEVKa6Yh0G+0lQZDchI2c/oQTFmXt7bffdv68DAtzFaKkgvvt919h1w+93dMRCyRBjLhAUtHTERskrumIjRFq7m6vebsRJ281Rog0NxjhNEQMSN70UhjRva5ikOxSzeOrDRILItjcHa1M8xAg1NzX8L0kIHlVZYNkTHYLBElLBAkt2UQDCf5ebBZChGKQbPKaQSDxhcjQIOEMRqS2CiMaJFOtBCVT10rFgQQrjEd4YPjaQ0kCTKIrY0Q1KZ/yQGLjg64TuPaIkPYeSHK9BCScDRHGiHo/jsoikCA2qFUd8EZtg0Q1clkSL+eo8PVK/L0MEixDNRphYqNkFH1mgcSPERWdDEsJSEZKGiOcBsjwpR19GAmCZPiSTggQuiqQ2BBxYsQBkgiMUDZGSgBJcDpC3/AryzVlmY7YICnNdIQbpL58jzBC3fxkNciv4KdufvzxR+fPyrAwVyFKKqmPDy6FFZ83jGm5JoiRqNMRGyTFYCSm5ZoIjEQHydw3L4M5urlv1ob5uxsjQJobkKRKPpA01wlGdLtaID7oqnGyE3FC+aYjghENEwTIHB9GVHOoV1shRAgk2LbWiIzWMDanJYxf3RLhgeDYpgtgREBCSzy074TygwTb6MFk+kYv/3SEws8tjExb19YHEm4tpUGyRjWF8yCiAIKfCUhMCiNcgRWDBEN0UAYjgg+CiAaJKZcSkOiyKQslnExHCCQdECO6TATJEgWSARZIRi3voCDCKYiMRpRQjBFphU6DZBS+NgVAIhiJKJ1Agvig0iyE4GtCCcPEgREBybDFdsWAJICRypiO9JrZDp4YV6N80xEbJEGMlACSfw86B/7xLILkCdXLI693wqKsvfPOO86fj2Fh0QpRUol9/8ubkPNFR4ORWEBS3HQkFpAwQiyMGJAgRKKDJDpGDEjeUM2mXsfXr9eC+W82QowgPAghuvkIEYpB8rpqPsUQUSDhduJ7AQm1g66IDWs6IgghkJgsjCiQYNsoBMlWNSEZv7oFv56NGKEYJ5JgxAbJJq/pfNUo0TCZzmmUbGgL0zAbJHTmCWdjhBGi3/Nr3Zp2GiO6Ij0N0SChJlEFHkrkvWBkYr6XwojO4EOBRBpPV8aIanwO5YFknJWgRDAyTqYjiBFq2BKFEYlw4gMJIcTCiAIJvl9BKZCMwteUek0YsVpGCT50PpCkIEYoAQkhJIXj9wwSDyf2dIQnJDZIFul8IOmkCoAkAiNUKUASnI4MmNMRXqTTWUdbT9cUA5LipiNRQVIMRgQk9G3AhJEbdSuy5zpxUdb279/v/NkYFhatECWV3K+/7Yct3z1eIkZimo5YIAliJKbpiAWS0kxHDEY0SKhZutm7asG8NxoiSBRGTIIRBklzhAjlgWSutIPeK5jMRZioBCMtvTRGZlMIkVk+kLRChLTygWQWpq6CEXyN0SSFlndkOhIEyfSNKgKJwohug4pAYhCyHt9rjCiQYAQRDZAp1Br9HjGiQGLFICF4tNPha8IIA0RnQKKamE9plOQlwARqNb42CFHvBSMcQURikOiy2/tAQo3NomvkdIQanp6IEEkwEUhGLk9EjBBKMI0RDiEyijBiT0c0RuxGLserBZKRpiBCrNdpXgISbgldLZAsUQ2jNESGUgwRBRKDEN2QhV4xT0dskAQw4pqO9J4VD0/SYWiCEQskQYx4IClmOmKBJNbpCPUv2tz6pAbJ41XhmUFdnLAoa++//77zZ2JYWHGFKDlMfbh/PqR/0gDSbIxokBwr0xEfSHZ5zdxZE2btvBzm7KqHCGnqwIjVzuYGI9Kc1+iqQYIAoegzDyQtESM6DZJZCBHKgCSnBYxjkODnGIHEtIU2u9ogwTZRFkYskHAbdBok0ySGiGoqtY6yQaIijDBKGCYIDnpvMKKaTCFGJkkFKh9KECGUwoguj/JA4hVvXo+ncik3RhRIdFkKJ2M1SqgxdM30Gp5GkxEbJAmICg2SlarRVAaF0KAcCBnFCFGvCSTcMgkxku41gkKYEESG65wgIYxgw6wMRhgkHREjVCRCVPhr2JCFEqJkgWowXzVGXCAp1XQk5aiYjvx7oOqW56oZkNzwWFVYnlVxjwFv374dfv75Z+fPwrCw4gpRchj74Zd3IOezzgyRskxHfCBBgJR2OhILSIqbjkQDiWlHTZixA3/fznoIkCYRGFEgwXZICA+NEmfbKcGIaha1DV9rlBA4xuY2NyAxMURUM6jNkoBENZ2yMDJNMGJFn3kYaYMYwdZRGiVrJY0RXwQSq6K2CiMMkraIEayAUiCZqIucjnggmSAZhOjXufEIEMyARDUuB6++6YgfJGNNHkrGZraHMbqRyxAkc+O9GCQaIXYIklGSDyP4frnOxogPJFg6ZYEkTTWcrxoijBH8zAKJjRFfCBEDEg0PlR8kHkawBZIfJoNTKQsjNkgCGHFNR3rNbFuGR31jm47EAhKZjhBG7sNo2YYwIiB5Ydg1TlyUtU8//dT5MzAsrKRClBzmfv3tAGz55hkDkcM7HfFAEsRITNMRCyRBjCiQYK+ppmMzd9SBOTsbexixQDLnNZ2Fktn4XiKQzJZebaEwokFCzdxKT9a0QowQSJp7CDEoaYkY0SFGpkubECaCEQaJF+PDICTwWicgmaLzQBKHANFpnNB0xCQQwRgiPpCoJnKIknzVBL56GDEg0QgZLyFEDEhyvAgjpmyESXEgMQhJ4Nf8fhWCZEUC9LdBMi8e0eFNSLzpiGDEa+SKRD9IsJEc4kODZATFGFHRa5XCiJ2ajhBIdEuSIyAyVF4vxteSBRLBRzSQDJZSdQYkqtJOR+jJmucm1WWMVNp0xAJJECPB6QiB5J6+ah8JYYS6+YnzYHVhhhMXZWnnzp3hd9yElbkQJUeoj/YthbSPGiuEWCA5NqcjHkgII6bt0uUw67WGCJBmfpAwPhAhlMYIv8Zm0RUxokCCbZM0SLBx+c1h7OpmPAkxKNlMWBGMqKZTmyiFEm4jJRixsvGh870XkKz1mrwGrwKSIpUfJIgOnX86olIYwfJ1CBMCiSmP8kBiMKJB4suAxApBMtaKl2uCGMHXBBITgmRUBi3ZxDNK+vGERIFktE69RmxEAQntN/ESkGDLVAISX2kqOhFWpUAybGmSiTCiQCJ5IDEQYYx4DVmIEUI49X4wfaYxIiDhq4DEahCDBJsv+THimo7QuSOPj73wqJmOUP8aoA5JE5BQI6c/6cRFWfvuu++cP/PCwmIpRMkRbP+veyDvs5sZHodjOuIDCSKktNMRH0gQIa7piA2SadKr0mUwY3s9xEdTxogBiaNZr1oZkNASDdUSJhQokBA4ZCLCGNEQMRihGCSSgEQ1bQMlIGmN8JAIIdZ7mopEAYmpiEKQ+FIYmVQYx02kaxAkghFsQp7XRMaIbjWF4ODaIUBU4+iqIRKJEdVYTqMkC8Ghs6cjNkZGr0pAbCQgQtoFQIK/hhFGfMlERDASBMkynQbJCCldUiDxIBLIAsmwJXYKJfQtxKpiQCIF3g9eIAk+VH6QYPMpBRIzDbExQmmM9JkZD09PqHlUTUck2kciGLn+0apwb/dGsHnzRicuytK7777r/FkXFhZrIUqOcL/9/j94Y+9oWPReHcZHrCA52qcjfozUhKnbrLbiZ9tqw8xXGyFAmnkQ0RiZbTDiNXMrpVAyqagZjMlt6oFkcwtuOl8tkFgYmSZt1DFGdOspwYfUCgHSynw2RYqKkTb451IJSCZJhW0YI1yBagJfo4OEGq8jkDBEOPxMY4TLUblAojCiy5IIIxZCrBgj2JiV7WHggnbQb45qQCqCZIWARIfvPZCoghgZgRChDEr0ew8j9EQPfU8OvrYAIhmIUIiQ4T6QYIuTYKiFkiF0jYaRhXQCLX1xoIo/E5Ckqjx8WAU+GziPEoR0hAGYYKTf7A7wHB2CNsbCSEwgqdzpCDfgHLi9ux8k1z9aBRZnTHHioiy99tprcOjQIefPubCwWAtRcpS09+ddsGpPJwaHjREfSPDXjr3pSCRIpmy91DR1y2UwfVs9BEpThshMKQIkqslrm2uQIEC2EEKa82tuk10AJIIRbOoGLwLJVIkRoiKQeBFGvIIgURDRIUAIIXYTqQLKA8mEfCsLIhMQHQYkBBBsnL4qkOB7KodSIBmb7eWfjugQI2OkzHgYjY1Z5TV6JaZBQg1aSBhpa4EkAQFCKZCMlBAmvpZLHkgUQgKvdQKSYdJS9UV+FL1WKYAMtSKMMEioRUkwhCKULLIKgEQwYjeIrowR3XzJDxEPI7q5KTp6jTCZkwLdpzSCx8aqI+JjmY74QIIIKe10xAeSEqYjBBLa2BoESf9x9zpxUda++uor58+2sLDSFKLkKOp/v/0E277uwdhggARAcqxPR3wg2aKaTG1WTdlSG6ZvbcQgoWYgQigByZR1zWBMDoEEP9fR6+mbqCBKWiBGqCggWa+aQlfCCIfvTa1gsrRWpUCiK6IUSMyExIeR1ggQSVDSBkGCVx9IJAsjGiSEEVUcQkQijHjZIBmb1Q7hoRKMGJAQRDRIRq9qxzFIJA2TwYsEJG15+YY2uqrJCD1xk8DvbYiMwPcjluNnGiQjltkpiND5JpLCiC4t0WBEotNiKX6/RDWU0ygRjNggsZOJCKfeuzDCpeoMRhAa0jwPJ0GQDJAQIy9Pbar2jZR6OuKBpDKnI9RdPREkjwtGFEgeeLl5hS7b0Mmtv//+u/PnWlhYaQpRchT2xf4iSH+/LUODEFKu6YgNEkRIqacjNkgQIBUxHTEY0SCZJG1STd50GUzdXA+mb2liYDJ1vQ0S2kuiQ5BMkzZ6OGGQbJQsjFgg4RAgCiMtFEbWqiZzHkgmrfEikEyy0xBRExF6jxDxoaQ1Y4TLV43Pw6uABNFBjedskCBCfCDBclRjswkkuiw/TgQmwemIAgnVDkat9BKYDFncDvoGQDIyIwARBoiCiIBEGr4MrwKS9PYIDyyAkmEUYkSBhPAheSDxEpBgiyWFERdICCECkSH0eoEUAIlghEHiZUCiUTIAC05HCCP0RM3L05rBk3Q8vMZIqacjNkgQIaWejtggQYC4QEKbWv/ZWz36KxihbnrsXMjKW+rERVkKl23CKrIQJUdph/73X9j4xTOMjflvX1bm6YgNkrJMR2yQBDFSEdMRGyPUxI3+Jm+qBZM3NIDROY1h+sZmHkg2qaZRiBFpqs4DSQuEiKQgQtMRAogHEh1DpIUGiZcNkklFrWAi5oFEA0SDZIKUb4NEvVcpkEgeRjAbHxZGxtJVY0SBRFIgGWNF0xIzMclU2dMRVbwPJdSwNAWSvrPb4k2ZQBKvMaJDdHAIExsiHGNEl4444RAkaVaCkgiMBCHiCDEyRFpEuTGi6sANWoBXQUlqEgIE0yAZKBmM6ObpECUEEtPcZIURvL4yrTk8Ne4ieIwwUo7piA2SskxHbJAEMWKDxJuQIEgeUU1N7evERVkLn7YJq8hClBzlfb6/CNLejYd5iAwFFBsjMUxHbJAEMVICSIpbrqno6YgLJBM2XArj118KQ1ZdBOPW4u/ZUBumbmroYYRB4sUg2WBngWS9agrFCKErAoSuCA8zHVlDKZhMwtcmhoiHkomFEsEDr9gEyuCjNYynqw8k+FmebjWiBBtH5dJrQYh6TxFGOIKIJCDJUo2hECeCktF8FYzoVuHnnB8igpNh6QSSOARJnJ6QEEjiYYTAhDCiG7EcP+fotZqOqAmJDRIsjVIgGeYrCJL2PoAMsV4PXawaQi2iEBqUhkckSAgeCiRcqoLJIErDZCBlQ8TGCKYAghmMJEP/OUnw0tQmPBkxGLFBUgxGPJAEpiM2SIIYKQEkxS3XEEb8IFHTEcLIdVjfsf90wqKsffTRR86fW2FhZS1EyTHQr/+3H7Z80cNMPkozHYkKkmIwEnW5BhFS6umIDRJESCzTEQEJNTTrYhi35hLECbZOqgkT19eBKRsaaYzoNkjN8dd06xEnBiNSc8YIt7YFTNIpkKgmFVH4uX49UccwMSAhjNDjyQISLwKJL8EIg6Q1YoTyAKLCzwxIsByJ4OFlMCJlqggkozNVo+hqMILvV0oKJCMzVASMfhok/ee3RXgQSvBzQokBSGTDl1EKJAKRYQYjqmEmhIe0FGFiMKJbrCKQmAQjGiSDJWsSIgU/Y4ggSEzzOyiMMEikYkCi6zcnEbpPbQRPjL2QMWJPR2IBSXHTkaggKQYjUZdrECEGJP0DINHTEQLJY32SYOvWLU5clKU33ngjPCQtrMILUXIM9fWBLZD+TgpDQ+HEwogGScR0xALJkZiO2CCJdToiDcu6CMYWXmxAMk5aa1cTJqwjoDRmkExZr9MgkSYjRAgjFL2mp3goBskaK4aHVWELxAeGr7lCRAhGGFEgwfIlwoguz4KJCyQMkNaID+/1uBx8T/lA0gYhInkQGW2BZLQvBZJRq+K8DEhUIzMohY9+c9tAn1ltoP88BZIRDBLCigKLCl8va4cAUZ8pkOjSKQUSQYgfJAmIEWwppVAydAm+5jRGfPkxYkCy0GvQAhsn6r1BisEIwgQxwiDxlQQDqHmqSIwk4b+PdvD85Lrw+NgL/BjRIAku1wQx4oGkmOmIBZKKmo4QSO7uRSDxT0eou5+rB2vXFzhxUZZoH8lPP/3k/DkVFlaeQpQcY/3vt0Pw6peDYM7rtRgaBJBKnY7YICkGIzEt1xSDkSBIRuZeBKPyAyCxMDJWWmNXE8avrQOT1zdGfDRDfBBQBCPqvYBkkrRGInh42dMRhZEWjBGuoAWMx/wgaYkAwfIohZJxOsGIDRLCiCmnlY5ee3kYwbKkaBhBfFAaIqMZI3Y2SAggbREiCiT95sUpeDBGNEKw4ToCiTQ8nXAiGIlHjGBpKh9GCCE+kOgEJItVQzgNkkXtESAq/3TEy0NIe531WWoiDESQcAiQAYQQno4ISNRnAhKqPyJE6jmjBTwz8TJ4bKyCyFE9HbFBghih7uqBIHnMPx257uEqcNvTl0JuwQonLsra3r17nT+fwsLKW4iSY7S9P70JK9+7AWbtRHQgMqJNR2IBSXHTkVhAEsRIaZdrbIxMQISMLrgYRqxGkCBEooLEwsiYIqtCqSaMK6oDE9c0Qog0VSBZq5pEGYw0R3SoaLmGpyJRpiOEEQHJ+Hw7GyQqAQm3GsGB2dORsbn0RYIaH1wrxIcHkzHZVoiR0XaZlMaITEMskFAjESKUoGRkhoQgWUFP17SB3rNaI0jaKHiY6QiFwCCQ6OkIRftOzHt8Te9tkFBD6YrwYJDYAMHXQ/BqWkxP+tBVt4iuiBFKo2QQtRBfR2CEosPdvAgjCiTYfErwYcUTEu99/7l4RYj0nZ0A3ac2hKfG13BjRIOkoqcjsYCkuOlIECR3vnw2XK9BItMRAsnNT1SHlbkLnbAoa5999pnzZ1JYWEUUouQY7vfff4N3vkuF+W80Y1wQOCIwYoEkiJGYpiMWSIIYiWk6YoEkiBEXSAgcw3Muci7XuKYjQZCMlgoUbqhR+HpsYS0YX9QAkdIUIUIoUQlIuMLmiA+6apQgPih7OhIJEixPQoystsqlqwKJQoiGCF31dERhxAPI6KxWnMKIajTngWQUtUoihOjXK9sYjPgyIMFWxMHAhQiSmW00SNqa1HREv19GeSCRDEjSvAgj3FLEhs5GyZAl+JkBSQLiQ8LPESSDpYUJCiMaJKYgSFItlNBrCUEyQJpHeQhR0XREgaTHjBbw7KTL4XGCiBQECSLkqJ2OWCC5/aVqEdMR6oZHz4WlK6c7YVHW3n///fA8krBKLUTJH6Cff90L6z9+QeGCcLLTjxEXSI626QhFAPGBRGMk1umIhxEFklFS/sUwkspTjc6/DMYW1IPxhY0RIwgThogCiamArmoyQq/HUxZExuk8kOD71ZSHkrGIEi8CiX6d01JhRE9HVAgPScNkFF81SjJbI0YoBZCR0kr8TKNkJKNEioMRiBATYoRAMngxgaQ19J3b2gcSatjyOI0R1bB0yQaIyvd+KaVBwgDRLW5nvVYZkGiIDFqEnyFGGCS+CCMaHhx+FkSIwYhqAMUYUfXXCUp6zWoFL0ypC0+Mv5AxYkASxIgGSXA6Eh0kR2Y6wiDprkBiT0euxa5/9GyYnzbGCYuytnv37nBja1ilF6LkD9TX+7fDsreuZFTMwGYiToIYKe10xAeSMkxHYgEJ7xvBRiBICB+lBYl7OqIwEgQJRUtD0sjcS2FUXm0Ym98AkdJUYcQgpJn1WtIgIYToxjJGdLmqsRZKxnD4GWJEgQTLlhRAvDRCMEIJw0RAsko1kq6IEQIJl6GzUDIig/JAQg1ZokDSZ05rhAYBREcYYZDEwTDJgARLUzARkPhCkAyRltgIwdcmwogVQcSejnDxFkgSDEIUTPB9qh3iQxKMMEi8BCS0RNV9Wn14ckINeHzc+SrBiAskiJBKm45YIAlipLTTkXv7nQO3vWiBRE9HCCQ3PHoeLF5Rcd9pQ+3atQt++eUX58+dsLCKLETJHyz6gr83v54Bs3c0ZlAQNI7m6YhsZB2FWBiD4IjAiAWSIEZimo5YILExMiJXNdwuhz6rCaNW14ExeQ0QH02xZhyBZJyUR3kgkRgjUk4LxAemQUKvR+s8kLREfFAaJJmIEJ1MRxRI8LNVrRgj3Ep8jTFMBCS6EZxGyQopDgFBe0haQe/ZrRRIDELacAIU+jVTGtUW/1psqco/HUFwGIyoBiNCBi9u60OJ+oxSIKHpCCEkcjpCGIlXCOHoNWaDZD59ezGlINKfsjDSD+s5qyW8OLUePDWxBjwxXkMkCJIgRjRIjoXpCIHk1uerRUxHPJBMdcKirO3YsQMOHjzo/HkTFlbRhSj5g/bTr9/Cuj3dYdq2yxkUhIyjcTpCIBldeDEXARKNkYqejrgwQg2jsi/ihlJZF8Hw7JowMrcOjF7dAOGBSGGQNMfXkgcRwYcBiRWDJNtrVBZeGSRYpkpA4uVNSEYSSjRGqBEZXjItUSDRIUaG64alI0gQI4SSoQgNGyNqMqJeD8XfZ4OEfi+nQTLEF4LDCRLdoraB96pBFIJkoITo8EAiqc/pywBN8/EzAcm8BISIhBCZ2w56zGwKz0+tDU9OuJAh4sJIVJAgQmKZjvhAgggp7XTEB5IyTEcEJLc8p0GCCDEgeagK3Px4dViSUbF7SLZv3w779u1z/owJC6uMQpT8wdt78G3IfPtuNdlAUExFcBwt0xGK8EFoiDYd8YEEEVLa6YgPJAgQF0gYIxokjBENEmkIlakalnUpDM+qBSNz6sPo3CaIEfrWYoRHYBoyOgc/x2s0kEgKI1arFE5GUjwdoRAdUUBCDV9BV8GIaji1HENs9JnbCnrNbImIUBMRRggDRDUUEaLC12kSYcRrCKdAMphagq8NRgggOsKI4IOz3i9UDaRkCmLhoziQeCVAv3nx0GtWc3hpen14dtLF8MQERAilMRJ1OmKBpGzTEQ8kR2I6ck/fc+DvT1eNmI4QSO54pjZkrl7shEV5+v77750/V8LCKqsQJcdJH/83Hxbu7MiQmIIROkoLkoqcjsiTNQSJo2064sOIBZLBq6xWqgatvBiGrLoMhmfWgRFZDWFUThMGyejs5jAKs0FiY2RUpmqkTkAy0oTQkFa2VAUwIiDx54FkGNZ3XksGydC01jB0mS6d9pQISKwQIkMQJBwCxgeSJXEIEQmhIS2mzbN0JXy0ZYSoBCWqgQvbKowwSOw0PLh21mtMQ6TfvLbQazYhpB48N+VSeHLCBdj5XEkYqdDpiA0SREippyM2SBAgpZmO/LPPOXDTkwgSRIg9HaH+1b0ZFKzJcqKiPIVnkYQdiUKUHEfRfpM3vpwNs7Y1Z0RMxqbQ8kwAIz6QIEJKOx3xgQQREpyOyEZWwgYDpDiQIELKNR2JApLSTEdcIBkkZVwEA001YOCKGvjZxfh7asLQlbVh+Kr6iI7GiA5ESgAkBiWrrBAflIJICwskkgMjy9V1GIWvVa3xxo4gmdEC8dAKMYIhRqQh/9/enX9HVad5HP8XRoLK2io4NLa2jYzdzvQ448wPzjlzplsZEREVl1Gw2SEsgWxkAUITlIyAYBIgbGENEAPNFiBs5nhEXBAVwQUEFJFNRHR+eeb5fO+9Vd97863LvZWqVCV5fnifijQKp0lyX3zuUkBKBCNWOkbwGkkHiUKIp2qrKEg4hRAbJxGM8I/ZGLEA4mT9uPPPU6v6Us6iu2lS+Z2UuaA7jZnHAEE2RCIYuQFIvOuIDpJ41hEdJPGsIzpIvBiJtY6gZ3Ktp7R615H/Gvp3NKLgIWrYW29ERXM6e/as8XuIJCU7QUk77OpP52nf8SJasL8XzWM4zGdELDjowUgS1xFnGWkN64gLJJF1xMJIFCSMERskxU410YrWW01b/yuaXtODSjb0opkb72Kw3MMQ6aOBBAhxIOJ8fB/N2sivEZT0ZYCgKEiiEIk2rfofGCR9NZBoASR2JWsAlChIomEd4VduBlqFV8YHN50/drIwogWI2CCxEPIAFWsYsfDBP8b4KFr2BwbI7xggv6Gsip40YWF3Gju/E3crjUEMkZgg8cFI0tYRHSRejNwAJH6na2KtI2gQHoo2vOk6ApAUzHkuoe9l4yQgkVKZoKQdd/nH01T/aRajpCcDglHBkFCnd3SQ8D+HXkd0kDBC9HXEhZEgIGkl60gEJAaMqNZ1pUK9tVYF6rU7Fa+7nYrX96Tp63vRjJreNHPD3dy9DI8+CiUqhRG7GmQjhNGBHHwAIrkV91FxdV8XSErWRougxIGJipHhxBCZrkCCNYRfgZDqKEbUx9w0OwskeDCbk4WRohU4hXQf5Vf9lrIX9abJlXfSxPLbKHNhZxq34FYa+7qWgxEbJAojGkhSvY7EBIkPRmKermGE+K0jSF3QyhDRQQKMPDrsZnpjebERFM1NTtlIqU5QItH5H47T1o9GWYBgKAAUgEe864gOknjWETdIwq8jLpAwQlK5jqgMIAFGVGu60lSn1V0i5a+KNnV1NypYfRsVrr6Ditb0pOI1vah4bW+atvY3NGPtPTRj3b1Usu53DI++Chx5lX2oaCWDxFlGPCApWcNwsYuC5H7+Z85eRgASfRFxQWTl/VTM//2iFX2oYPm9NHXp3ZRXdRflLOlFUxb1ZHjcQRMrutP4N7owPjqpxi3Qa4qRpK0jOkh8MBIFSerXkcH50etHvKdrnhx7J23YvMwIiuaEu2zOnTtn/P4gSS2ZoESK9O3lo1T7/gsWHhgLeAU0YmHEBJImp2tsiEQwgnxA4j1d01bXEWAkApIYGHHKq7ZbaZWLVljloOV2y7qoA3rmG50omz/OWd5Vlb3MKmdpN1U2qoo2RdWdpizpTpOXdLNa3I2yFndVTVrURTWxojPXiSbolXei8U786+LXVtkYcYPkViNI/NaRICDxW0eCgCSd1hG/0zVjiv6Ddu3ZbkRFc8I7/p4/f974PUGSWjpBidSkry+8QzXvDqIyhoKK8fAaTu/4YERfR2KCxAcjMU/XMEJCryM6SBghodcRHSSMkFSsIy6MIAcjNkgURnSQcOqgzwf67GWdVVOWalV1pslOS6JlocVWk9CiaBMrO0UzYCQCEkZIBCRGjFgg8WIk0DqigcSLkUDriAYSL0aiIPFZRzSQJHMdwe2+j2dap2u868if/5JBZZWTqLGx0YiK5nTo0CG6ePGi8fuAJKUiQYkUs1Pfv00bDg+20MBQKOPX1/Y0BUmTdUQDSTzriA6SeNYRHSTxrCM6SOJZR1wgYYQkdR3hspd3VlDAQd4XJF6M2CBRGAkJkuDriBkk7WYd0UFiwAh6OieD+o3UTtdo68jTmb+mDXWJP12DDh8+TD/88IPxa1+SUpWgRLphZy68R5sOD7HQsN2CQ1l9d2sVScY6ooPEByOBTtd4MXIDkDQ9XZPe6whAkrW4E43hg3i2DhEdI81YR1wgYYSEXUdcIGGEhF1HXCBhhIRdR2KDJNg6EgQkfuuIL0gKOtIAPC7esI6gqXOeob37dhtB0dyOHDlC165dM369S1IqE5RIgfv20lGqe28EvboNb2JnQUEBBQgJCRK/dSQISLwYCXS6xgcjMU/XMEJCryM6SBghodcRFGAdQYAHQOLCiA4SL0ZskMg6EnAd0UDixUigdUQDib6OPJUdex0ZNO7vqbrmdSMmEtGxY8fo559/Nn6NS1KqE5RIofvu8nHa+sEExskdNNtGgnpDPQZHQtYRDSRejARaRzSQxLeOREESzzqigySedUQHSax1RJ2mYXzgAA9k6BiJCRL+eS2+jugg4d9r6HVEB4kXIzZIWtM6giez9h9nvrMG5ZQOpL37dhkxkYhOnjxp/JqWpHRJUCLF3aWrX1PDxyU0d+c9FhYYBqXcK9tb+Tqig8QHI4FO1/hgxASSJqdrvBhxQMJl8sEfkGiyjmggae3rSEyQMEKCrCMukDBCwq4jLpDEsY7oIBk4qUPMO2sGT7iH1mxK7Jvp6eEOG3kfG6k1JCiRmt216z/QoS+qqHz3vzIOgASuzoIErkFp6XUkCEj81pEgIPFiJOzpGi9GAp2usTGCgAZAISnrCGoz6whK7TryFC5kHWVeR/AgtNKFo+nAwf1GTCSi999/Xy5olVpNghIpYf3yyy/06elttOrgQAsHjAEEOAAYrWYd0UASgYiNkUDriAYSL0ZMIGmyjmgg8a4jCNgADGKtIzpI4llHdJDEs47oIEn5OqKDhBESeh1Bca4jeM+ax8YwRvR39dXWkTFFD9PWHRuNkEhUx48fl+tHpFaVoERKSmcufEhvHhpNpZt7UAmDAAEGgASuQ/GuIy6QMEBkHWm6jjgIUSDh15jriA4SH4wEOl3jg5FAp2u8GLkBSBRGNJCkeh3RQeLFSKx1ZHB+Bj2eGcWIDhJg5LmJ99KK9fOMiEhUOF3zzTffGL82JSmdE5RISe3Kj+eo8dhCWrDjwehSwRjAqzrF40BEA4kXI4HWEQ0kXoxEQMK/bkusI0FA4reOxAQJp07ZACCxQMIQCQISL0bCnq7xYiTQ6RofjKTtOhIDJKZ1BI+HV+9Xg+tG9HXEBkn/kd1p7uLspLyJnh5O11y5csX49ShJ6Z6gRGqRcGrnxNl9tL5xKJVsvJ0xwDBANRYagA1ZR5qernEwgoCJLAbGDdcRDSRejARaRzSQeDESaB3RQBLPOqKDJJ51RAdJS6wj1jLSgR4BRAzryKPDb6Hpc4fQnoadRkQksi+++EJO10itOkGJ1OJdunqW9h19jebU/Z5RwhhgAKj4Y+BhZl34dcQFEkZI2HXEBRIGSDqtI2gyQwOwaBfriA4SH4xEQeJZR3SQeDFyA5CEWUec0zQRjHjWkUeGZagHoO3cvcUIiESGp7NeuHDB+PUmSa0pQYmUsrCefPxVPVVtf55m1NwZxQAf+PEKPAAZ7Xkdca4dUSDxYsQGiXcdcYGEARJ2HXGDJPw6EgQkfutIEJD4rSMxQeKDEX0dcYGEEeJdR3A3zWNjLYyY1pE//+Umyi59nLbt3GQERKLDxazXr183fo1JUmtLUCKlPODki68+o427Sml+3Z+ocE03jjEABKy2XrGoABqBQMIICb2OxABJKtcR50JWIKMJSBghabuOaCDxYiTQOqKBxIuRKEh81hENJIlaR3AB65NZ1q29eNaIaR15ZHgG5b0yKOl31Di9++678uwRqc0lKJHSJjxL4ejRo7T3wFZavSObZtf8UaEETV2FuvDHXVwrioMRHSTxrCMukDBCwq4jLpAwQsKuIy6Q2OtImGtHXCBhgDRvHTGDpN2sIxpInsnLoCcmdKBHR9gY0UFiryOPDr+ZCsuepx276ox4SEa4dkTWEaktJiiR0i7cyoi3VMc33/r9NbRi63gqXf8A5fMB3wkHfbwCDIBFW1tHWt21I7FAwggJu47EBkmwdSQISPzWEbWKTLaeMfLIcCcLIzpIBmX2oNlvjKbdDduboCFZffjhh3T58mXj140ktYUEJVJa9tNPP9GJEydc35AVULZNoNJ1D1prBB/sUS4f6FF+tQUJXDQbeh3RQcL/jdDrCNIwEnod0UHixYgNEt91JAZI2uU6ooHEi5FY6whWkadzrLtosIpYy4hhHeFezL6PylcUJ/UprN7eeecdOn36tDrVafp6kaS2kqBESusuXbpEH330UZNv0rv3b6IVf5tEs9c9pECSsyxa9lILAdaS0sWNERskXozoIIlnHdFBEs86EhMkjJAg64gLJIyQsOuICySMkPawjiiI5GbQE+M7qHfsdWPEvY70G9GRsv7aL6nvTxMr4PzatWvGrw9JamsJSqRW0blz59Rtj6Zv2nsPbKd122fQvA39KX95T/XuuSr7YI9yGAJYVdSFsx6QNDld44MRE0ianK7xYiTk6RpZRzSQMELCriMukHjWkReKrEUE14n89+ibXBgxrSODJ/amOZXjW/QUjROur5KHoEntLUGJ1GrCdH3q1Ck1ZZu+iaO3Gg9Q3a5yqqwdStNW9lVPP1VPQOUDO8LDx3Cwx5qChQWwCHq6xouRQKdrfDCS0HVEBwkjJPQ6ooOEERJ6HdFB4sWIDZJUrSPPFWbQU1MyaEAmQ2QUQwQxRmKtI/1HdaLc2Y/Tqo0LqbGx0fh5lszwRNbz588bvwYkqa0nKJFaXbjeBHcf4P09TN/U9Xbtr6U124ppXs0Aylv6awslOMhXalU4UOnMuOis0HEjkDRZRzSQxLOO6CCJZx3RQRLPOqKDJJ51JCZIGCFB1hEXSBghzVlHXii6Wd018+SkDtR/7E1qEYlgxAaJaR0ZXfzvVLFyGu3bv8f4uZTssASeOXNGrhuR2nWCEqnVhvPswMnbb79t/CbvDX/r3b5nNS3fnEOvrvkTZS/qoUCiVgc+oCN1gOcDOj4GXgCIbIaGs4wkbR3RQeKDkZjrCAqAkUCna7wYuQFIvKdr4ltHoiAJu47gjhm878ygydaFqo8xQpCDEb91ZHjBP9O8qmzasWuz8XOmJcLzRnARqzweXpIEJVIb6Mcff6TPP/88ME6c3mo8SFt2L6VldVmMlH6Us7i3Asl4Ppg7ZfLB3ElhpZIhwXCYYl9M68JIM9aRICDxYkRfR4KAxIuRQKdrfDCS0HVEBwkjJNY68iIjBE9VfSbXepgZHvOOW3cjORixQeJdR/qN7ECji/8t5RBBuO3966+/FoxIkpagRGozXb16VeEkyGmdWNXv3URr/lZCc9c+S4VL/mCB5HWrcWi+lTqo80F8HB/ggQEAYRLjAdDwYiTQOqKBxIuRQOuIBhIvRgKtIxpI4llHdJDEs47oIHHWkZfUqZiO9Gx+R3VNCC5OfXwcTslYp2WQjpFY68igzNso55X+tHjVTGrYW2/8c2/JsIwIRiTJnKBEanPhmpOTJ09GHsDWnPYf3E21O8qpqjaLylY9QbmV90VA4iwMY/gAPoYP3KOd+MCNHwdigBrgAbAAONrsOqKDxAcjUZBE1xEsILgz5rkCLCAZ6jTMExM7qAtTgRAnCyMWSPzWkcfGdKRRxf9Cs8tH0vo3F9NbjW8Z/2xbOlzAigcDyjUjkhQ7QYnUZsPfRHGuPtatxPG2/8AeqqtfQktrc6isehBNrXyAxs3tpjCCRqEyq5FojpU6iPNBexQf1IEXoGDsfAsumQtvVchwlpGWXkeCgMRvHfEDydBZt9CQEsDDOvXybH4GPZMDfHRQ+MACggaMt2OMmEHiWUdskAwYx1gq/CPNXDCEVm18nf98Gox/bqkKz9mRu2kkKViCEqnNh7+Z4jkneO6D6aCRiBr5b+M7GzbS+q2v0aKaCfTKioGUV/5PNPZ/b4sexPmgPYIP1sOd+IA9zKmUD+B2+Bj/+wgbM0AMoKMgA0AwJoCLsTid5MKIBRIvRgKtIygGRvR1ROGDf29YOXC6Bdd64I6X/5luXXCKtQMXneKaD5xyGZSFu2CsO2EGMkCcHIi4MGKDpClG3OvIC9m9KXv2IzSvKos2bK5q0SerBg2nEPHuvfJIeEkKl6BEalfhTf9wx47fs04SGe74qW+opY3bFtKyTQU0b9XLNHNJP8pdwGAp66EAEgHJrGgv/9WJD/584B9aYoXFYQgjAOGai5cYA67s/y3y80pusS4Utf9ddceK8+9yzsPF1DM9pnHFwMXN9Hwhx8B4birKoMG51rqBns6OBng44bRLJA0j8YLkyQldaVjh/ZRfNoDmLZ1M696soIZ9qb8mxK/33ntPXS+CU4imzz9JkvwTlEjtMpzaOXv2rHqDM9PBpaXau7+ettSvpNV1r1LVhjyaXz2MZi0ZSIVvPEwTX+tDI0tvj2IEaaDQMfIigwIBFaoi6yJRVWFHRoYdQ8PJAod1IanT4Dy7XOTGiA4SP4wEXUcGTuTfc95dNGb6g5Q7px/NXDiEylcWKHzU79li/P8rHcNdX59++il9//33xs81SZKCJyiR2n1YT7766it1V4TpoJPqDhzcS9t3b6Da7Uto7ea5tHzjDKpYO5nmrhhBs5c8SzMqH6P81x+mSWX/SJmz+9DoWXfTy9Nvo5eKOkdBYsCIESQKIxZITBjxguSpKfzfyfsVDSnoRcOKf0ujpv2eMmc9RNmv/icVzhtIpRVDaO7S8VSxqoCWr3+FajYvoi071tKuhq0peVpqIgNocc2SrCKSlLgEJZKkhb/tfvbZZ826rTjdwhqzq2EL7dxTS5t3VkfbUU2125ZRzZYKrXKrzXitVD/HacvOtbRjd61qz76djKV9xl+vLQe4ArCArOnzR5Kk5iUokSRD169fp2+//VbN8m0JKFL4ABE8/+bChQvGzxVJkhKXoESSbhCuP8HdO8eOHROgtJNwGzkuiL548aLxc0KSpOQkKJGkEOH2Yjxz4sSJEwl//omU2nCNCB66d+nSJeOfvSRJyU9QIknNCNcW4BZQPAMl7HvvSKkNT/zF9UN4yqpcrCpJ6ZGgRJISFE7zYEX58ssv1d+6BSnpFU69ffzxx7KGSFIaJyiRpCQFpOBuHtytgUeNC1JaNjwg75NPPlFLFhAi7zkjSemfoESSWiggBRdO4tkWeAQ53qDNdDCVwocV5MiRI+ouGZyOuXLlivHPQJKk9E5QIkkpDLceAyr42zyggtM+coePf1hAsDwBIHgqL95fRlYQSWobCUokKQ27evUqfffdd3Tq1KkIVlrq/XrSJTwfBBcQAx9nzpxRzwmRC1IlqW0nKJGkVhSWFZyaAFhwGgjP0sB1E0ALDuKt5boVrEG4pRqnXPD8F1x3A3jgGhzc0STLhyS1zwQlktTGwpoAuOAAj6fS4tQQ7jgBYLC64Cm1uAsFIMB1LcABbo/FEuNkgoST/vMAIfz7H3zwgTqlAiABGXiOC+5Cwq8LbODhczhNBXAAVqbftyRJkqBEkiRJkqS0SFAiSZIkSVJaJCiRJEmSJCktEpRIkiRJkpQWCUokSZIkSUqLBCWSJEmSJKVFghJJkiRJktIiQYkkSZIkSWmRoESSJEmSpLRIUCJJkiRJUlokKJEkSZIkKQ36P/p/1lEu0SjdAiAAAAAASUVORK5CYII=;" vertex="1" parent="1">
          <mxGeometry x="-5168.26" y="-1507.5" width="43.26" height="42" as="geometry" />
        </mxCell>
      </root>
    </mxGraphModel>
  </diagram>
</mxfile>
